SplineFontDB: 3.0
FontName: ArchivoNarrowDeva-Bold
FullName: Archivo Narrow Devanagari-Bold
FamilyName: Archivo Narrow Devanagari
Weight: Bold
Copyright: Copyright (c) 2012-2014, Omnibus-Type (www.omnibus-type.com omnibus.type@gmail.com) with Reserved Font Name 'Archivo'
Version: 001.004
ItalicAngle: 0
UnderlinePosition: -50
UnderlineWidth: 50
Ascent: 800
Descent: 200
sfntRevision: 0x00010106
LayerCount: 2
Layer: 0 0 "Back"  1
Layer: 1 0 "Fore"  0
XUID: [1021 191 1600663927 6366013]
FSType: 8
OS2Version: 3
OS2_WeightWidthSlopeOnly: 0
OS2_UseTypoMetrics: 1
CreationTime: 1405248897
ModificationTime: 1405356012
PfmFamily: 81
TTFWeight: 700
TTFWidth: 5
LineGap: 0
VLineGap: 0
Panose: 0 0 8 0 0 0 0 0 0 0
OS2TypoAscent: 827
OS2TypoAOffset: 0
OS2TypoDescent: -404
OS2TypoDOffset: 0
OS2TypoLinegap: 0
OS2WinAscent: 827
OS2WinAOffset: 0
OS2WinDescent: 404
OS2WinDOffset: 0
HheadAscent: 827
HheadAOffset: 0
HheadDescent: -404
HheadDOffset: 0
OS2SubXSize: 650
OS2SubYSize: 600
OS2SubXOff: 0
OS2SubYOff: 75
OS2SupXSize: 650
OS2SupYSize: 600
OS2SupXOff: 0
OS2SupYOff: 350
OS2StrikeYSize: 50
OS2StrikeYPos: 279
OS2Vendor: 'Omni'
OS2CodePages: 20000093.00000000
OS2UnicodeRanges: 00008007.00000000.00000000.00000000
Lookup: 1 0 0 "'aalt' Access All Alternates lookup 0"  {"'aalt' Access All Alternates lookup 0 subtable"  } ['aalt' ('DFLT' <'dflt' > 'dev2' <'dflt' > 'grek' <'dflt' > 'latn' <'CAT ' 'MOL ' 'ROM ' 'dflt' > ) ]
Lookup: 1 0 0 "'locl' Localized Forms in Latin lookup 1"  {"'locl' Localized Forms in Latin lookup 1 subtable"  } ['locl' ('latn' <'ROM ' > ) ]
Lookup: 1 0 0 "'locl' Localized Forms in Latin lookup 2"  {"'locl' Localized Forms in Latin lookup 2 subtable"  } ['locl' ('latn' <'MOL ' > ) ]
Lookup: 6 0 0 "'locl' Localized Forms in Latin lookup 3"  {"'locl' Localized Forms in Latin lookup 3 contextual 0"  "'locl' Localized Forms in Latin lookup 3 contextual 1"  } ['locl' ('latn' <'CAT ' > ) ]

StartChar: .notdef
Encoding: 65536 -1 0
Width: 442
Flags: MW
HStem: 0 44<71 371 71 442> 575 44<71 371 71 71>
VStem: 0 44<84 535 84 619> 398 44<84 535 535 535>
LayerCount: 2
Fore
SplineSet
0 619 m 1
 442 619 l 1
 442 0 l 1
 0 0 l 1
 0 619 l 1
371 575 m 1
 71 575 l 1
 221 349 l 1
 371 575 l 1
44 535 m 1
 44 84 l 1
 194 309 l 1
 44 535 l 1
398 535 m 1
 248 309 l 1
 398 84 l 1
 398 535 l 1
221 270 m 1
 71 44 l 1
 371 44 l 1
 221 270 l 1
EndSplineSet
EndChar

StartChar: A
Encoding: 65 65 1
Width: 523
Flags: MW
HStem: 0 21G<0 110 0 0 407 522 407 407> 119 101<177 339 177 370 146 339> 505 101<256 256 256 260>
VStem: 0 522<0 0>
LayerCount: 2
Fore
SplineSet
407 0 m 1
 370 119 l 1
 146 119 l 1
 110 0 l 1
 0 0 l 1
 195 606 l 1
 327 606 l 1
 522 0 l 1
 407 0 l 1
256 505 m 1
 256 505 248 451 239 423 c 2
 177 220 l 1
 339 220 l 1
 278 423 l 2
 268 454 260 505 260 505 c 1
 256 505 l 1
EndSplineSet
Substitution2: "Single Substitution lookup 14 subtable" ordfeminine
Substitution2: "'aalt' Access All Alternates lookup 0 subtable" ordfeminine
Position2: "'cpsp' Capital Spacing lookup 0 subtable" dx=5 dy=0 dh=10 dv=0
EndChar

StartChar: Aacute
Encoding: 193 193 2
Width: 523
Flags: MW
HStem: 0 21G<0 110 0 0 407 522 407 407> 119 101<177 339 177 370 146 339> 505 101<256 256 256 260> 664 117<277 288 201 383>
VStem: 0 522<0 0>
LayerCount: 2
Fore
SplineSet
288 664 m 1
 201 664 l 1
 277 781 l 1
 383 781 l 1
 384 778 l 1
 288 664 l 1
407 0 m 1
 370 119 l 1
 146 119 l 1
 110 0 l 1
 0 0 l 1
 195 606 l 1
 327 606 l 1
 522 0 l 1
 407 0 l 1
256 505 m 1
 256 505 248 451 239 423 c 2
 177 220 l 1
 339 220 l 1
 278 423 l 2
 268 454 260 505 260 505 c 1
 256 505 l 1
EndSplineSet
Position2: "'cpsp' Capital Spacing lookup 0 subtable" dx=5 dy=0 dh=10 dv=0
EndChar

StartChar: Abreve
Encoding: 258 258 3
Width: 523
Flags: MW
HStem: 0 21G<0 110 0 0 407 522 407 407> 119 101<177 339 177 370 146 339> 505 101<256 256 256 260> 686 95<144 297.5>
VStem: 0 522<0 0>
LayerCount: 2
Fore
SplineSet
380 781 m 1
 380 736 334 686 261 686 c 0
 188 686 144 736 144 781 c 1
 210 781 l 1
 212 768 232 751 261 751 c 0
 292 751 313 768 314 781 c 1
 380 781 l 1
407 0 m 1
 370 119 l 1
 146 119 l 1
 110 0 l 1
 0 0 l 1
 195 606 l 1
 327 606 l 1
 522 0 l 1
 407 0 l 1
256 505 m 1
 256 505 248 451 239 423 c 2
 177 220 l 1
 339 220 l 1
 278 423 l 2
 268 454 260 505 260 505 c 1
 256 505 l 1
EndSplineSet
Position2: "'cpsp' Capital Spacing lookup 0 subtable" dx=5 dy=0 dh=10 dv=0
EndChar

StartChar: Acircumflex
Encoding: 194 194 4
Width: 523
Flags: MW
HStem: 0 21G<0 110 0 0 407 522 407 407> 119 101<177 339 177 370 146 339> 505 101<256 256 256 260> 661 120<219 222 143 306 301 306 219 381 301 301>
VStem: 0 522<0 0>
LayerCount: 2
Fore
SplineSet
301 661 m 1
 262 722 l 1
 222 661 l 1
 143 661 l 1
 219 781 l 1
 306 781 l 1
 381 661 l 1
 301 661 l 1
407 0 m 1
 370 119 l 1
 146 119 l 1
 110 0 l 1
 0 0 l 1
 195 606 l 1
 327 606 l 1
 522 0 l 1
 407 0 l 1
256 505 m 1
 256 505 248 451 239 423 c 2
 177 220 l 1
 339 220 l 1
 278 423 l 2
 268 454 260 505 260 505 c 1
 256 505 l 1
EndSplineSet
Position2: "'cpsp' Capital Spacing lookup 0 subtable" dx=5 dy=0 dh=10 dv=0
EndChar

StartChar: Adieresis
Encoding: 196 196 5
Width: 523
Flags: MW
HStem: 0 21G<0 110 0 0 407 522 407 407> 119 101<177 339 177 370 146 339> 505 101<256 256 256 260> 684 97<141 229 141 229 294 384 141 294>
VStem: 141 88<684 781 684 781> 294 90<684 781 684 781>
LayerCount: 2
Fore
SplineSet
141 684 m 1
 141 781 l 1
 229 781 l 1
 229 684 l 1
 141 684 l 1
294 684 m 1
 294 781 l 1
 384 781 l 1
 384 684 l 1
 294 684 l 1
407 0 m 1
 370 119 l 1
 146 119 l 1
 110 0 l 1
 0 0 l 1
 195 606 l 1
 327 606 l 1
 522 0 l 1
 407 0 l 1
256 505 m 1
 256 505 248 451 239 423 c 2
 177 220 l 1
 339 220 l 1
 278 423 l 2
 268 454 260 505 260 505 c 1
 256 505 l 1
EndSplineSet
Position2: "'cpsp' Capital Spacing lookup 0 subtable" dx=5 dy=0 dh=10 dv=0
EndChar

StartChar: Agrave
Encoding: 192 192 6
Width: 523
Flags: MW
HStem: 0 21G<0 110 0 0 407 522 407 407> 119 101<177 339 177 370 146 339> 505 101<256 256 256 260> 664 117<235 235 235 247 141 323>
VStem: 0 522<0 0>
LayerCount: 2
Fore
SplineSet
235 664 m 1
 140 778 l 1
 141 781 l 1
 247 781 l 1
 323 664 l 1
 235 664 l 1
407 0 m 1
 370 119 l 1
 146 119 l 1
 110 0 l 1
 0 0 l 1
 195 606 l 1
 327 606 l 1
 522 0 l 1
 407 0 l 1
256 505 m 1
 256 505 248 451 239 423 c 2
 177 220 l 1
 339 220 l 1
 278 423 l 2
 268 454 260 505 260 505 c 1
 256 505 l 1
EndSplineSet
Position2: "'cpsp' Capital Spacing lookup 0 subtable" dx=5 dy=0 dh=10 dv=0
EndChar

StartChar: Amacron
Encoding: 256 256 7
Width: 523
Flags: MW
HStem: 0 21G<0 110 0 0 407 522 407 407> 119 101<177 339 177 370 146 339> 505 101<256 256 256 260> 671 77<149 375 149 375>
VStem: 149 226<671 748 671 748>
LayerCount: 2
Fore
SplineSet
149 671 m 1
 149 748 l 1
 375 748 l 1
 375 671 l 1
 149 671 l 1
407 0 m 1
 370 119 l 1
 146 119 l 1
 110 0 l 1
 0 0 l 1
 195 606 l 1
 327 606 l 1
 522 0 l 1
 407 0 l 1
256 505 m 1
 256 505 248 451 239 423 c 2
 177 220 l 1
 339 220 l 1
 278 423 l 2
 268 454 260 505 260 505 c 1
 256 505 l 1
EndSplineSet
Position2: "'cpsp' Capital Spacing lookup 0 subtable" dx=5 dy=0 dh=10 dv=0
EndChar

StartChar: Aogonek
Encoding: 260 260 8
Width: 523
Flags: MW
HStem: -168 61<476.5 555> -156 21G<555 555> -156 49<536 555> 0 21G<0 110 0 0 407 449 407 407 522 522> 119 101<177 339 177 370 146 339> 505 101<256 260 256 256>
VStem: 409 87<-73.5 -66>
LayerCount: 2
Fore
SplineSet
555 -107 m 1x3e
 555 -156 l 1x5e
 535 -164 516 -168 497 -168 c 0
 456 -168 409 -149 409 -88 c 0x9e
 409 -44 430 -24 449 0 c 1
 407 0 l 1
 370 119 l 1
 146 119 l 1
 110 0 l 1
 0 0 l 1
 195 606 l 1
 327 606 l 1
 522 0 l 1
 512 -10 496 -34 496 -62 c 0
 496 -85 507 -107 536 -107 c 2
 555 -107 l 1x3e
339 220 m 1
 278 423 l 2
 268 454 260 505 260 505 c 1
 256 505 l 1
 256 505 248 451 239 423 c 2
 177 220 l 1
 339 220 l 1
EndSplineSet
Position2: "'cpsp' Capital Spacing lookup 0 subtable" dx=5 dy=0 dh=10 dv=0
EndChar

StartChar: Aring
Encoding: 197 197 9
Width: 523
Flags: MW
HStem: 0 21G<0 110 0 0 407 522 407 407> 119 101<177 339 177 370 146 339> 505 101<256 256 256 260> 637 45<250.5 273 250.5 285.5> 763 44<250.5 273>
VStem: 177 44<710.5 733.5 710.5 745.5> 302 45<710.5 733.5>
LayerCount: 2
Fore
SplineSet
262 807 m 0
 309 807 347 768 347 722 c 0
 347 675 309 637 262 637 c 0
 216 637 177 674 177 722 c 0
 177 769 215 807 262 807 c 0
262 763 m 0
 239 763 221 745 221 722 c 0
 221 699 239 682 262 682 c 0
 284 682 302 699 302 722 c 0
 302 745 284 763 262 763 c 0
407 0 m 1
 370 119 l 1
 146 119 l 1
 110 0 l 1
 0 0 l 1
 195 606 l 1
 327 606 l 1
 522 0 l 1
 407 0 l 1
256 505 m 1
 256 505 248 451 239 423 c 2
 177 220 l 1
 339 220 l 1
 278 423 l 2
 268 454 260 505 260 505 c 1
 256 505 l 1
EndSplineSet
Position2: "'cpsp' Capital Spacing lookup 0 subtable" dx=5 dy=0 dh=10 dv=0
EndChar

StartChar: Aringacute
Encoding: 506 506 10
Width: 523
Flags: MW
HStem: 0 21G<0 110 0 0 407 522 407 407> 119 101<177 339 177 370 146 339> 682 44<250.5 273> 750 96<224 392 286 311>
VStem: 177 44<635 655 632.5 666.5> 302 45<635 655>
LayerCount: 2
Fore
SplineSet
224 750 m 1
 286 846 l 1
 392 846 l 1
 392 843 l 1
 311 750 l 1
 224 750 l 1
192 596 m 1
 182 609 177 626 177 644 c 0
 177 689 215 726 262 726 c 0
 309 726 347 688 347 644 c 0xfc
 347 626 340 609 331 595 c 1
 522 0 l 1
 407 0 l 1
 370 119 l 1
 146 119 l 1
 110 0 l 1
 0 0 l 1
 192 596 l 1
262 682 m 0xfc
 239 682 221 666 221 644 c 0
 221 621 239 604 262 604 c 0
 284 604 302 621 302 644 c 0
 302 666 284 682 262 682 c 0xfc
256 505 m 1
 256 505 248 451 239 423 c 2
 177 220 l 1
 339 220 l 1
 278 423 l 2
 268 454 260 505 260 505 c 1
 256 505 l 1
EndSplineSet
Position2: "'cpsp' Capital Spacing lookup 0 subtable" dx=5 dy=0 dh=10 dv=0
EndChar

StartChar: Atilde
Encoding: 195 195 11
Width: 523
Flags: MW
HStem: 0 21G<0 110 0 0 407 522 407 407> 119 101<177 339 177 370 146 339> 505 101<256 256 256 260> 673 75<301.5 326.5 297.5 354> 705 76<196.5 221.5 169 226>
VStem: 0 522<0 0>
LayerCount: 2
Fore
SplineSet
410 781 m 1xec
 410 732 385 673 323 673 c 0xf4
 280 673 246 705 206 705 c 0xec
 187 705 175 697 171 673 c 1
 113 673 l 1xf4
 113 721 138 781 200 781 c 0xec
 243 781 278 748 317 748 c 0xf4
 336 748 348 756 352 781 c 1
 410 781 l 1xec
407 0 m 1xf4
 370 119 l 1
 146 119 l 1
 110 0 l 1
 0 0 l 1
 195 606 l 1
 327 606 l 1
 522 0 l 1
 407 0 l 1xf4
256 505 m 1
 256 505 248 451 239 423 c 2
 177 220 l 1
 339 220 l 1
 278 423 l 2
 268 454 260 505 260 505 c 1
 256 505 l 1
EndSplineSet
Position2: "'cpsp' Capital Spacing lookup 0 subtable" dx=5 dy=0 dh=10 dv=0
EndChar

StartChar: AE
Encoding: 198 198 12
Width: 725
Flags: MW
HStem: 0 101<486 687 486 687 395 687> 119 101<179 342 179 366 142 342> 260 101<447 643 447 447> 506 100<387 387 387 682>
VStem: -7 694<0 101>
LayerCount: 2
Fore
SplineSet
387 506 m 1
 423 361 l 1
 643 361 l 1
 643 260 l 1
 447 260 l 1
 486 101 l 1
 687 101 l 1
 687 0 l 1
 395 0 l 1xb8
 366 119 l 1
 142 119 l 1xf8
 98 0 l 1
 -7 0 l 1
 225 606 l 1
 682 606 l 1
 682 506 l 1
 387 506 l 1
277 483 m 1
 272 472 269 461 264 450 c 2
 179 220 l 1
 342 220 l 1xf8
 288 450 l 2
 286 461 283 472 280 483 c 1
 277 483 l 1
EndSplineSet
Position2: "'cpsp' Capital Spacing lookup 0 subtable" dx=5 dy=0 dh=10 dv=0
EndChar

StartChar: AEacute
Encoding: 508 508 13
Width: 725
Flags: MW
HStem: 0 101<486 687 486 687 395 687> 119 101<179 342 179 366 142 342> 260 101<447 643 447 447> 506 100<387 387 387 682> 664 117<377 389 301 484>
VStem: -7 694<0 101>
LayerCount: 2
Fore
SplineSet
389 664 m 1
 301 664 l 1
 377 781 l 1
 484 781 l 1
 484 778 l 1
 389 664 l 1
387 506 m 1
 423 361 l 1
 643 361 l 1
 643 260 l 1
 447 260 l 1
 486 101 l 1
 687 101 l 1
 687 0 l 1
 395 0 l 1xbc
 366 119 l 1
 142 119 l 1xfc
 98 0 l 1
 -7 0 l 1
 225 606 l 1
 682 606 l 1
 682 506 l 1
 387 506 l 1
277 483 m 1
 271 469 266 453 261 439 c 2
 179 220 l 1
 342 220 l 1xfc
 290 442 l 2
 286 455 284 469 280 483 c 1
 277 483 l 1
EndSplineSet
Position2: "'cpsp' Capital Spacing lookup 0 subtable" dx=5 dy=0 dh=10 dv=0
EndChar

StartChar: B
Encoding: 66 66 14
Width: 523
Flags: MW
HStem: 0 101<166 295 295 314> 261 100<166 283 283 290 166 283> 506 100<166 288 166 166>
VStem: 53 113<101 261 361 506> 363 116<421 459> 377 116<152 200.5>
LayerCount: 2
Fore
SplineSet
314 606 m 2xf8
 409 606 479 545 479 456 c 0xf8
 479 386 438 337 386 318 c 1
 386 315 l 1
 446 296 493 240 493 163 c 0xf4
 493 61 411 0 314 0 c 2
 53 0 l 1
 53 606 l 1
 314 606 l 2xf8
283 361 m 2
 337 361 363 395 363 436 c 0
 363 482 333 506 288 506 c 2
 166 506 l 1
 166 361 l 1
 283 361 l 2
295 101 m 2xf4
 342 101 377 127 377 177 c 0
 377 224 349 261 290 261 c 2
 166 261 l 1
 166 101 l 1
 295 101 l 2xf4
EndSplineSet
Position2: "'cpsp' Capital Spacing lookup 0 subtable" dx=5 dy=0 dh=10 dv=0
EndChar

StartChar: C
Encoding: 67 67 15
Width: 523
Flags: MW
HStem: -11 98<231.5 307.5 231.5 335.5> 520 97<229 303>
VStem: 30 117<220.5 281 281 325 220.5 410> 384 110<178 225>
LayerCount: 2
Fore
SplineSet
494 225 m 1
 494 65 400 -11 271 -11 c 0
 119 -11 30 89 30 303 c 0
 30 517 119 617 271 617 c 0
 398 617 494 545 494 381 c 1
 378 381 l 1
 378 475 335 520 271 520 c 0
 187 520 147 446 147 325 c 2
 147 281 l 2
 147 160 188 87 275 87 c 0
 340 87 384 131 384 225 c 1
 494 225 l 1
EndSplineSet
Position2: "'cpsp' Capital Spacing lookup 0 subtable" dx=5 dy=0 dh=10 dv=0
EndChar

StartChar: Cacute
Encoding: 262 262 16
Width: 523
Flags: MW
HStem: -11 98<231.5 307.5 231.5 335.5> 520 97<229 303> 664 117<286 298 210 392>
VStem: 30 117<220.5 281 281 325 220.5 410> 384 110<178 225>
LayerCount: 2
Fore
SplineSet
298 664 m 1
 210 664 l 1
 286 781 l 1
 392 781 l 1
 393 778 l 1
 298 664 l 1
494 225 m 1
 494 65 400 -11 271 -11 c 0
 119 -11 30 89 30 303 c 0
 30 517 119 617 271 617 c 0
 398 617 494 545 494 381 c 1
 378 381 l 1
 378 475 335 520 271 520 c 0
 187 520 147 446 147 325 c 2
 147 281 l 2
 147 160 188 87 275 87 c 0
 340 87 384 131 384 225 c 1
 494 225 l 1
EndSplineSet
Position2: "'cpsp' Capital Spacing lookup 0 subtable" dx=5 dy=0 dh=10 dv=0
EndChar

StartChar: Ccaron
Encoding: 268 268 17
Width: 523
Flags: MW
HStem: -11 98<231.5 307.5 231.5 335.5> 520 97<229 303> 661 120<228 232 311 315 228 228>
VStem: 30 117<220.5 281 281 325 220.5 410> 384 110<178 225>
LayerCount: 2
Fore
SplineSet
152 781 m 1
 232 781 l 1
 271 720 l 1
 311 781 l 1
 390 781 l 1
 315 661 l 1
 228 661 l 1
 152 781 l 1
494 225 m 1
 494 65 400 -11 271 -11 c 0
 119 -11 30 89 30 303 c 0
 30 517 119 617 271 617 c 0
 398 617 494 545 494 381 c 1
 378 381 l 1
 378 475 335 520 271 520 c 0
 187 520 147 446 147 325 c 2
 147 281 l 2
 147 160 188 87 275 87 c 0
 340 87 384 131 384 225 c 1
 494 225 l 1
EndSplineSet
Position2: "'cpsp' Capital Spacing lookup 0 subtable" dx=5 dy=0 dh=10 dv=0
EndChar

StartChar: Ccedilla
Encoding: 199 199 18
Width: 523
Flags: MW
HStem: -161 50<251 252 252 261.5 189 282> -154 21G<189 189> -68 39<225 290> -10 21G<292 292> -8 21G<232 232> 520 97<229 303>
VStem: 30 117<220.5 281 281 325 220.5 410> 228.5 62.5 284 76<-97.5 -82> 384 110<178 225>
LayerCount: 2
Fore
SplineSet
232 -8 m 1x8f40
 103 8 30 108 30 303 c 0
 30 517 119 617 271 617 c 0
 398 617 494 545 494 381 c 1
 378 381 l 1
 378 475 335 520 271 520 c 0
 187 520 147 446 147 325 c 2
 147 281 l 2
 147 160 188 87 275 87 c 0xaf40
 340 87 384 131 384 225 c 1
 494 225 l 1
 494 74 409 -2 292 -10 c 1x9740
 290 -29 l 1
 328 -32 360 -49 360 -89 c 0
 360 -149 301 -161 263 -161 c 0xaec0
 239 -161 210 -158 189 -154 c 1x4f40
 189 -111 l 1
 252 -111 l 2
 271 -111 284 -106 284 -89 c 0
 284 -75 277 -68 254 -68 c 2xaec0
 225 -68 l 1xaf40
 232 -8 l 1x8f40
EndSplineSet
Position2: "'cpsp' Capital Spacing lookup 0 subtable" dx=5 dy=0 dh=10 dv=0
EndChar

StartChar: Ccircumflex
Encoding: 264 264 19
Width: 523
Flags: MW
HStem: -11 98<231.5 307.5 231.5 335.5> 520 97<229 303> 661 120<228 232 152 315 311 311 311 315 228 390>
VStem: 30 117<220.5 281 281 325 220.5 410> 384 110<178 225>
LayerCount: 2
Fore
SplineSet
271 722 m 1
 232 661 l 1
 152 661 l 1
 228 781 l 1
 315 781 l 1
 390 661 l 1
 311 661 l 1
 271 722 l 1
494 225 m 1
 494 65 400 -11 271 -11 c 0
 119 -11 30 89 30 303 c 0
 30 517 119 617 271 617 c 0
 398 617 494 545 494 381 c 1
 378 381 l 1
 378 475 335 520 271 520 c 0
 187 520 147 446 147 325 c 2
 147 281 l 2
 147 160 188 87 275 87 c 0
 340 87 384 131 384 225 c 1
 494 225 l 1
EndSplineSet
Position2: "'cpsp' Capital Spacing lookup 0 subtable" dx=5 dy=0 dh=10 dv=0
EndChar

StartChar: Cdotaccent
Encoding: 266 266 20
Width: 523
Flags: MW
HStem: -11 98<231.5 307.5 231.5 335.5> 520 97<229 303> 679 102<224 318 224 318>
VStem: 30 117<220.5 281 281 325 220.5 410> 224 94<679 781 679 781> 384 110<178 225>
LayerCount: 2
Fore
SplineSet
224 781 m 1
 318 781 l 1
 318 679 l 1
 224 679 l 1
 224 781 l 1
494 225 m 1
 494 65 400 -11 271 -11 c 0
 119 -11 30 89 30 303 c 0
 30 517 119 617 271 617 c 0
 398 617 494 545 494 381 c 1
 378 381 l 1
 378 475 335 520 271 520 c 0
 187 520 147 446 147 325 c 2
 147 281 l 2
 147 160 188 87 275 87 c 0
 340 87 384 131 384 225 c 1
 494 225 l 1
EndSplineSet
Position2: "'cpsp' Capital Spacing lookup 0 subtable" dx=5 dy=0 dh=10 dv=0
EndChar

StartChar: D
Encoding: 68 68 21
Width: 523
Flags: MW
HStem: 0 101<166 240 240 250> 506 100<166 240 166 166>
VStem: 53 113<101 506 101 606 101 606> 377 116<290 334 334 391>
LayerCount: 2
Fore
SplineSet
250 606 m 2
 401 606 493 507 493 312 c 0
 493 104 401 0 250 0 c 2
 53 0 l 1
 53 606 l 1
 250 606 l 2
240 101 m 2
 324 101 377 164 377 290 c 2
 377 334 l 2
 377 448 324 506 240 506 c 2
 166 506 l 1
 166 101 l 1
 240 101 l 2
EndSplineSet
Position2: "'cpsp' Capital Spacing lookup 0 subtable" dx=5 dy=0 dh=10 dv=0
EndChar

StartChar: Eth
Encoding: 208 208 22
Width: 523
Flags: MW
HStem: 0 101<166 240 240 250> 276 75<9 53 9 53 166 277> 506 100<166 240 166 166>
VStem: 53 113<101 276 101 276 101 276 351 506> 377 116<290 334 334 391>
LayerCount: 2
Fore
SplineSet
53 606 m 1
 250 606 l 2
 401 606 493 507 493 312 c 0
 493 104 401 0 250 0 c 2
 53 0 l 1
 53 276 l 1
 9 276 l 1
 9 351 l 1
 53 351 l 1
 53 606 l 1
277 351 m 1
 277 276 l 1
 166 276 l 1
 166 101 l 1
 240 101 l 2
 324 101 377 164 377 290 c 2
 377 334 l 2
 377 448 324 506 240 506 c 2
 166 506 l 1
 166 351 l 1
 277 351 l 1
EndSplineSet
Position2: "'cpsp' Capital Spacing lookup 0 subtable" dx=5 dy=0 dh=10 dv=0
EndChar

StartChar: Dcaron
Encoding: 270 270 23
Width: 523
Flags: MW
HStem: 0 101<166 240 240 250> 506 100<166 240 166 166> 661 120<181 185 263 268 181 181>
VStem: 53 113<101 506 101 606 101 606> 377 116<290 334 334 391>
LayerCount: 2
Fore
SplineSet
105 781 m 1
 185 781 l 1
 225 720 l 1
 263 781 l 1
 343 781 l 1
 268 661 l 1
 181 661 l 1
 105 781 l 1
250 606 m 2
 401 606 493 507 493 312 c 0
 493 104 401 0 250 0 c 2
 53 0 l 1
 53 606 l 1
 250 606 l 2
240 101 m 2
 324 101 377 164 377 290 c 2
 377 334 l 2
 377 448 324 506 240 506 c 2
 166 506 l 1
 166 101 l 1
 240 101 l 2
EndSplineSet
Position2: "'cpsp' Capital Spacing lookup 0 subtable" dx=5 dy=0 dh=10 dv=0
EndChar

StartChar: Dcroat
Encoding: 272 272 24
Width: 523
Flags: MW
HStem: 0 101<166 240 240 250> 276 75<9 53 9 53 166 277> 506 100<166 240 166 166>
VStem: 53 113<101 276 101 276 101 276 351 506> 377 116<290 334 334 391>
LayerCount: 2
Fore
SplineSet
53 606 m 1
 250 606 l 2
 401 606 493 507 493 312 c 0
 493 104 401 0 250 0 c 2
 53 0 l 1
 53 276 l 1
 9 276 l 1
 9 351 l 1
 53 351 l 1
 53 606 l 1
277 351 m 1
 277 276 l 1
 166 276 l 1
 166 101 l 1
 240 101 l 2
 324 101 377 164 377 290 c 2
 377 334 l 2
 377 448 324 506 240 506 c 2
 166 506 l 1
 166 351 l 1
 277 351 l 1
EndSplineSet
Position2: "'cpsp' Capital Spacing lookup 0 subtable" dx=5 dy=0 dh=10 dv=0
EndChar

StartChar: E
Encoding: 69 69 25
Width: 484
Flags: MW
HStem: 0 101<166 445 166 445> 260 101<166 400 166 400> 506 100<166 439 166 166>
VStem: 53 113<101 260 361 506>
LayerCount: 2
Fore
SplineSet
439 606 m 1
 439 506 l 1
 166 506 l 1
 166 361 l 1
 400 361 l 1
 400 260 l 1
 166 260 l 1
 166 101 l 1
 445 101 l 1
 445 0 l 1
 53 0 l 1
 53 606 l 1
 439 606 l 1
EndSplineSet
Position2: "'cpsp' Capital Spacing lookup 0 subtable" dx=5 dy=0 dh=10 dv=0
EndChar

StartChar: Eacute
Encoding: 201 201 26
Width: 484
Flags: MW
HStem: 0 101<166 445 166 445> 260 101<166 400 166 400> 506 100<166 166 166 439> 664 117<257 269 181 363>
VStem: 53 113<101 260 361 506>
LayerCount: 2
Fore
SplineSet
269 664 m 1
 181 664 l 1
 257 781 l 1
 363 781 l 1
 364 778 l 1
 269 664 l 1
166 506 m 1
 166 361 l 1
 400 361 l 1
 400 260 l 1
 166 260 l 1
 166 101 l 1
 445 101 l 1
 445 0 l 1
 53 0 l 1
 53 606 l 1
 439 606 l 1
 439 506 l 1
 166 506 l 1
EndSplineSet
Position2: "'cpsp' Capital Spacing lookup 0 subtable" dx=5 dy=0 dh=10 dv=0
EndChar

StartChar: Ebreve
Encoding: 276 276 27
Width: 484
Flags: MW
HStem: 0 101<166 445 166 445> 260 101<166 400 166 400> 506 100<166 439 166 166> 686 95<124 278>
VStem: 53 113<101 260 361 506>
LayerCount: 2
Fore
SplineSet
360 781 m 1
 360 736 315 686 241 686 c 0
 169 686 124 736 124 781 c 1
 189 781 l 1
 192 768 212 751 241 751 c 0
 271 751 293 768 294 781 c 1
 360 781 l 1
439 606 m 1
 439 506 l 1
 166 506 l 1
 166 361 l 1
 400 361 l 1
 400 260 l 1
 166 260 l 1
 166 101 l 1
 445 101 l 1
 445 0 l 1
 53 0 l 1
 53 606 l 1
 439 606 l 1
EndSplineSet
Position2: "'cpsp' Capital Spacing lookup 0 subtable" dx=5 dy=0 dh=10 dv=0
EndChar

StartChar: Ecaron
Encoding: 282 282 28
Width: 484
Flags: MW
HStem: 0 101<166 445 166 445> 260 101<166 400 166 400> 506 100<166 439 166 166> 661 120<199 202 281 286 199 199>
VStem: 53 113<101 260 361 506>
LayerCount: 2
Fore
SplineSet
123 781 m 1
 202 781 l 1
 242 720 l 1
 281 781 l 1
 361 781 l 1
 286 661 l 1
 199 661 l 1
 123 781 l 1
439 606 m 1
 439 506 l 1
 166 506 l 1
 166 361 l 1
 400 361 l 1
 400 260 l 1
 166 260 l 1
 166 101 l 1
 445 101 l 1
 445 0 l 1
 53 0 l 1
 53 606 l 1
 439 606 l 1
EndSplineSet
Position2: "'cpsp' Capital Spacing lookup 0 subtable" dx=5 dy=0 dh=10 dv=0
EndChar

StartChar: Ecircumflex
Encoding: 202 202 29
Width: 484
Flags: MW
HStem: 0 101<166 445 166 445> 260 101<166 400 166 400> 506 100<166 439 166 166> 661 120<199 202 123 286 281 281 281 286 199 361>
VStem: 53 113<101 260 361 506>
LayerCount: 2
Fore
SplineSet
242 722 m 1
 202 661 l 1
 123 661 l 1
 199 781 l 1
 286 781 l 1
 361 661 l 1
 281 661 l 1
 242 722 l 1
439 606 m 1
 439 506 l 1
 166 506 l 1
 166 361 l 1
 400 361 l 1
 400 260 l 1
 166 260 l 1
 166 101 l 1
 445 101 l 1
 445 0 l 1
 53 0 l 1
 53 606 l 1
 439 606 l 1
EndSplineSet
Position2: "'cpsp' Capital Spacing lookup 0 subtable" dx=5 dy=0 dh=10 dv=0
EndChar

StartChar: Edieresis
Encoding: 203 203 30
Width: 484
Flags: MW
HStem: 0 101<166 445 166 445> 260 101<166 400 166 400> 506 100<166 166 166 439> 684 97<120 209 120 209 275 363 120 275>
VStem: 53 113<101 260 361 506> 120 89<684 781 684 781> 275 88<684 781 684 781>
LayerCount: 2
Fore
SplineSet
120 684 m 1xf6
 120 781 l 1
 209 781 l 1
 209 684 l 1
 120 684 l 1xf6
275 684 m 1
 275 781 l 1
 363 781 l 1
 363 684 l 1
 275 684 l 1
166 506 m 1xfa
 166 361 l 1
 400 361 l 1
 400 260 l 1
 166 260 l 1
 166 101 l 1
 445 101 l 1
 445 0 l 1
 53 0 l 1
 53 606 l 1
 439 606 l 1
 439 506 l 1
 166 506 l 1xfa
EndSplineSet
Position2: "'cpsp' Capital Spacing lookup 0 subtable" dx=5 dy=0 dh=10 dv=0
EndChar

StartChar: Edotaccent
Encoding: 278 278 31
Width: 484
Flags: MW
HStem: 0 101<166 445 166 445> 260 101<166 400 166 400> 506 100<166 439 166 166> 679 102<194 289 194 289>
VStem: 53 113<101 260 361 506> 194 95<679 781 679 781>
LayerCount: 2
Fore
SplineSet
194 781 m 1
 289 781 l 1
 289 679 l 1
 194 679 l 1
 194 781 l 1
439 606 m 1
 439 506 l 1
 166 506 l 1
 166 361 l 1
 400 361 l 1
 400 260 l 1
 166 260 l 1
 166 101 l 1
 445 101 l 1
 445 0 l 1
 53 0 l 1
 53 606 l 1xf8
 439 606 l 1
EndSplineSet
Position2: "'cpsp' Capital Spacing lookup 0 subtable" dx=5 dy=0 dh=10 dv=0
EndChar

StartChar: Egrave
Encoding: 200 200 32
Width: 484
Flags: MW
HStem: 0 101<166 445 166 445> 260 101<166 400 166 400> 506 100<166 166 166 439> 664 117<215 215 215 226 120 302>
VStem: 53 113<101 260 361 506>
LayerCount: 2
Fore
SplineSet
215 664 m 1
 119 778 l 1
 120 781 l 1
 226 781 l 1
 302 664 l 1
 215 664 l 1
166 506 m 1
 166 361 l 1
 400 361 l 1
 400 260 l 1
 166 260 l 1
 166 101 l 1
 445 101 l 1
 445 0 l 1
 53 0 l 1
 53 606 l 1
 439 606 l 1
 439 506 l 1
 166 506 l 1
EndSplineSet
Position2: "'cpsp' Capital Spacing lookup 0 subtable" dx=5 dy=0 dh=10 dv=0
EndChar

StartChar: Emacron
Encoding: 274 274 33
Width: 484
Flags: MW
HStem: 0 101<166 445 166 445> 260 101<166 400 166 400> 506 100<166 439 166 166> 671 77<129 354 129 354>
VStem: 53 113<101 260 361 506> 129 225<671 748 671 748>
LayerCount: 2
Fore
SplineSet
129 748 m 1xf4
 354 748 l 1
 354 671 l 1
 129 671 l 1
 129 748 l 1xf4
439 606 m 1
 439 506 l 1
 166 506 l 1
 166 361 l 1
 400 361 l 1
 400 260 l 1
 166 260 l 1
 166 101 l 1
 445 101 l 1
 445 0 l 1
 53 0 l 1
 53 606 l 1xf8
 439 606 l 1
EndSplineSet
Position2: "'cpsp' Capital Spacing lookup 0 subtable" dx=5 dy=0 dh=10 dv=0
EndChar

StartChar: Eogonek
Encoding: 280 280 34
Width: 484
Flags: MW
HStem: -168 61<398.5 477> -156 21G<477 477> -156 49<458 477> 0 101<166 370 166 445> 260 101<166 400 166 400> 506 100<166 439 166 166>
VStem: 53 113<101 260 361 506> 331 146<-118.5 -107 -156 -67.5>
LayerCount: 2
Fore
SplineSet
166 361 m 1x5f
 400 361 l 1
 400 260 l 1
 166 260 l 1
 166 101 l 1
 445 101 l 1
 445 0 l 1
 434 -12 418 -37 418 -62 c 0
 418 -85 429 -107 458 -107 c 2
 477 -107 l 1x3f
 477 -156 l 1x5f
 457 -164 438 -168 419 -168 c 0
 378 -168 331 -149 331 -88 c 0x9f
 331 -47 349 -22 370 0 c 1
 53 0 l 1
 53 606 l 1
 439 606 l 1
 439 506 l 1
 166 506 l 1
 166 361 l 1x5f
EndSplineSet
Position2: "'cpsp' Capital Spacing lookup 0 subtable" dx=5 dy=0 dh=10 dv=0
EndChar

StartChar: F
Encoding: 70 70 35
Width: 443
Flags: MW
HStem: 0 21G<53 166 53 53> 252 101<166 374 166 374> 506 100<166 409 166 166>
VStem: 53 113<0 252 353 506>
LayerCount: 2
Fore
SplineSet
409 606 m 1
 409 506 l 1
 166 506 l 1
 166 353 l 1
 374 353 l 1
 374 252 l 1
 166 252 l 1
 166 0 l 1
 53 0 l 1
 53 606 l 1
 409 606 l 1
EndSplineSet
Position2: "'cpsp' Capital Spacing lookup 0 subtable" dx=5 dy=0 dh=10 dv=0
EndChar

StartChar: G
Encoding: 71 71 36
Width: 564
Flags: MW
HStem: -11 98<237.5 296> 0 21G<446 519 446 446> 232 98<267 403 267 519> 520 97<236.5 316.5>
VStem: 30 117<219 281 281 325 219 410> 403 116<187.5 232 394 435>
LayerCount: 2
Fore
SplineSet
267 330 m 1xbc
 519 330 l 1
 519 0 l 1
 446 0 l 1x7c
 426 67 l 1
 387 16 328 -11 264 -11 c 0
 116 -11 30 88 30 303 c 0
 30 517 124 617 287 617 c 0
 409 617 519 539 519 394 c 1
 403 394 l 1
 403 476 349 520 284 520 c 0
 189 520 147 446 147 325 c 2
 147 281 l 2
 147 157 190 87 285 87 c 0
 354 87 403 143 403 232 c 1
 267 232 l 1
 267 330 l 1xbc
EndSplineSet
Position2: "'cpsp' Capital Spacing lookup 0 subtable" dx=5 dy=0 dh=10 dv=0
EndChar

StartChar: Gbreve
Encoding: 286 286 37
Width: 564
Flags: MW
HStem: -11 98<237.5 296> 0 21G<446 519 446 446> 232 98<267 403 267 519> 520 97<236.5 316.5> 686 95<164 318.5>
VStem: 30 117<219 281 281 325 219 410> 403 116<187.5 232 394 435>
LayerCount: 2
Fore
SplineSet
400 781 m 1xbe
 400 736 355 686 282 686 c 0
 210 686 164 736 164 781 c 1
 230 781 l 1
 232 768 253 751 282 751 c 0
 312 751 333 768 335 781 c 1
 400 781 l 1xbe
267 330 m 1
 519 330 l 1
 519 0 l 1
 446 0 l 1x7e
 426 67 l 1
 387 16 328 -11 264 -11 c 0
 116 -11 30 88 30 303 c 0
 30 517 124 617 287 617 c 0
 409 617 519 539 519 394 c 1
 403 394 l 1
 403 476 349 520 284 520 c 0
 189 520 147 446 147 325 c 2
 147 281 l 2
 147 157 190 87 285 87 c 0
 354 87 403 143 403 232 c 1
 267 232 l 1
 267 330 l 1
EndSplineSet
Position2: "'cpsp' Capital Spacing lookup 0 subtable" dx=5 dy=0 dh=10 dv=0
EndChar

StartChar: Gcircumflex
Encoding: 284 284 38
Width: 564
Flags: MW
HStem: -11 98<237.5 296> 0 21G<446 519 446 446> 232 98<267 403 267 519> 520 97<236.5 316.5> 661 120<240 243 164 326 322 322 322 326 240 401>
VStem: 30 117<219 281 281 325 219 410> 403 116<187.5 232 394 435>
LayerCount: 2
Fore
SplineSet
243 661 m 1xbe
 164 661 l 1
 240 781 l 1
 326 781 l 1
 401 661 l 1
 322 661 l 1
 283 722 l 1
 243 661 l 1xbe
267 330 m 1
 519 330 l 1
 519 0 l 1
 446 0 l 1x7e
 426 67 l 1
 387 16 328 -11 264 -11 c 0
 116 -11 30 88 30 303 c 0
 30 517 124 617 287 617 c 0
 409 617 519 539 519 394 c 1
 403 394 l 1
 403 476 349 520 284 520 c 0
 189 520 147 446 147 325 c 2
 147 281 l 2
 147 157 190 87 285 87 c 0
 354 87 403 143 403 232 c 1
 267 232 l 1
 267 330 l 1
EndSplineSet
Position2: "'cpsp' Capital Spacing lookup 0 subtable" dx=5 dy=0 dh=10 dv=0
EndChar

StartChar: Gcommaaccent
Encoding: 290 290 39
Width: 564
Flags: MW
HStem: -157 108<214 257 214 323> -11 98<237.5 296> 0 21G<446 519 446 446> 232 98<267 403 267 519> 520 97<236.5 316.5>
VStem: 30 117<219 281 281 325 219 410> 214 109<-148 -49 -148 -49 -148 -49> 403 116<187.5 232 394 435>
LayerCount: 2
Fore
SplineSet
267 330 m 1xdf
 519 330 l 1
 519 0 l 1
 446 0 l 1xbf
 426 67 l 1
 387 16 328 -11 264 -11 c 0
 116 -11 30 88 30 303 c 0
 30 517 124 617 287 617 c 0
 409 617 519 539 519 394 c 1
 403 394 l 1
 403 476 349 520 284 520 c 0
 189 520 147 446 147 325 c 2
 147 281 l 2
 147 157 190 87 285 87 c 0
 354 87 403 143 403 232 c 1
 267 232 l 1
 267 330 l 1xdf
214 -49 m 1
 323 -49 l 1
 323 -148 l 1
 283 -232 l 1
 225 -232 l 1
 257 -157 l 1
 214 -157 l 1
 214 -49 l 1
EndSplineSet
Position2: "'cpsp' Capital Spacing lookup 0 subtable" dx=5 dy=0 dh=10 dv=0
EndChar

StartChar: Gdotaccent
Encoding: 288 288 40
Width: 564
Flags: MW
HStem: -11 98<237.5 296> 0 21G<446 519 446 446> 232 98<267 403 267 519> 520 97<236.5 316.5> 679 102<235 330 235 330>
VStem: 30 117<219 281 281 325 219 410> 235 95<679 781> 403 116<187.5 232 394 435>
LayerCount: 2
Fore
SplineSet
330 679 m 1xbf
 235 679 l 1
 235 781 l 1
 330 781 l 1
 330 679 l 1xbf
267 330 m 1
 519 330 l 1
 519 0 l 1
 446 0 l 1x7f
 426 67 l 1
 387 16 328 -11 264 -11 c 0
 116 -11 30 88 30 303 c 0
 30 517 124 617 287 617 c 0
 409 617 519 539 519 394 c 1
 403 394 l 1
 403 476 349 520 284 520 c 0
 189 520 147 446 147 325 c 2
 147 281 l 2
 147 157 190 87 285 87 c 0
 354 87 403 143 403 232 c 1
 267 232 l 1
 267 330 l 1
EndSplineSet
Position2: "'cpsp' Capital Spacing lookup 0 subtable" dx=5 dy=0 dh=10 dv=0
EndChar

StartChar: H
Encoding: 72 72 41
Width: 523
Flags: MW
HStem: 0 21G<53 166 53 53 357 470 357 357> 260 101<166 357 166 357> 586 20G<53 166 166 166 357 470 470 470>
VStem: 53 113<0 260 0 361 361 606> 357 113<0 260 260 260 361 606 0 606>
LayerCount: 2
Fore
SplineSet
357 0 m 1
 357 260 l 1
 166 260 l 1
 166 0 l 1
 53 0 l 1
 53 606 l 1
 166 606 l 1
 166 361 l 1
 357 361 l 1
 357 606 l 1
 470 606 l 1
 470 0 l 1
 357 0 l 1
EndSplineSet
Position2: "'cpsp' Capital Spacing lookup 0 subtable" dx=5 dy=0 dh=10 dv=0
EndChar

StartChar: Hbar
Encoding: 294 294 42
Width: 523
Flags: MW
HStem: 0 21G<53 166 53 53 357 470 357 357> 254 100<166 357 166 357> 433 77<9 53 9 53 166 357 470 514> 433 173<9 166 9 166 53 357 53 166>
VStem: 53 113<0 254 0 354 354 433 510 606> 357 113<0 254 254 254 354 433 510 606>
LayerCount: 2
Fore
SplineSet
470 0 m 1xdc
 357 0 l 1
 357 254 l 1
 166 254 l 1
 166 0 l 1
 53 0 l 1
 53 433 l 1
 9 433 l 1xdc
 9 510 l 1
 53 510 l 1xec
 53 606 l 1
 166 606 l 1xdc
 166 510 l 1
 357 510 l 1xec
 357 606 l 1
 470 606 l 1xdc
 470 510 l 1
 514 510 l 1xec
 514 433 l 1
 470 433 l 1
 470 0 l 1xdc
166 433 m 1
 166 354 l 1
 357 354 l 1
 357 433 l 1
 166 433 l 1
EndSplineSet
Position2: "'cpsp' Capital Spacing lookup 0 subtable" dx=5 dy=0 dh=10 dv=0
EndChar

StartChar: Hcircumflex
Encoding: 292 292 43
Width: 523
Flags: MW
HStem: 0 21G<53 166 53 53 357 470 357 357> 260 101<166 357 166 357> 586 20G<53 166 166 166 357 470 470 470> 661 120<219 222 143 306 301 306 219 381 301 301>
VStem: 53 113<0 260 0 361 361 606> 357 113<0 260 260 260 361 606 0 606>
LayerCount: 2
Fore
SplineSet
301 661 m 1
 262 722 l 1
 222 661 l 1
 143 661 l 1
 219 781 l 1
 306 781 l 1
 381 661 l 1
 301 661 l 1
357 0 m 1
 357 260 l 1
 166 260 l 1
 166 0 l 1
 53 0 l 1
 53 606 l 1
 166 606 l 1
 166 361 l 1
 357 361 l 1
 357 606 l 1
 470 606 l 1
 470 0 l 1
 357 0 l 1
EndSplineSet
Position2: "'cpsp' Capital Spacing lookup 0 subtable" dx=5 dy=0 dh=10 dv=0
EndChar

StartChar: I
Encoding: 73 73 44
Width: 202
Flags: MW
HStem: 0 21G<44 157 44 44> 586 20G<44 157 157 157>
VStem: 44 113<0 606 0 606>
LayerCount: 2
Fore
SplineSet
44 606 m 1
 157 606 l 1
 157 0 l 1
 44 0 l 1
 44 606 l 1
EndSplineSet
Position2: "'cpsp' Capital Spacing lookup 0 subtable" dx=5 dy=0 dh=10 dv=0
EndChar

StartChar: IJ
Encoding: 306 306 45
Width: 605
Flags: MW
HStem: -11 98<361.5 400 361.5 436> 0 191<44 322 44 322> 586 20G<44 157 157 157 438 552 552 552>
VStem: 44 113<0 606 0 606> 210 112<144 153 153 191 131.5 191> 438 114<153 606>
LayerCount: 2
Fore
SplineSet
44 0 m 1x7c
 44 606 l 1
 157 606 l 1
 157 0 l 1
 44 0 l 1x7c
552 144 m 2xbc
 552 43 491 -11 381 -11 c 0xbc
 271 -11 210 43 210 144 c 2
 210 191 l 1
 322 191 l 1x7c
 322 153 l 2
 322 110 342 87 381 87 c 0
 419 87 438 110 438 153 c 2
 438 606 l 1
 552 606 l 1
 552 144 l 2xbc
EndSplineSet
Position2: "'cpsp' Capital Spacing lookup 0 subtable" dx=5 dy=0 dh=10 dv=0
EndChar

StartChar: Iacute
Encoding: 205 205 46
Width: 202
Flags: MW
HStem: 0 21G<44 44 44 157> 586 20G<44 157 157 157> 664 117<116 128 40 222>
VStem: 44 113<0 606 0 606>
LayerCount: 2
Fore
SplineSet
128 664 m 1
 40 664 l 1
 116 781 l 1
 222 781 l 1
 223 778 l 1
 128 664 l 1
44 0 m 1
 44 606 l 1
 157 606 l 1
 157 0 l 1
 44 0 l 1
EndSplineSet
Position2: "'cpsp' Capital Spacing lookup 0 subtable" dx=5 dy=0 dh=10 dv=0
EndChar

StartChar: Ibreve
Encoding: 300 300 47
Width: 202
Flags: MW
HStem: 0 21G<44 157 44 44> 586 20G<44 157 157 157> 686 95<-18 137.5>
VStem: 44 113<0 606 0 606>
LayerCount: 2
Fore
SplineSet
219 781 m 1
 219 736 174 686 101 686 c 0
 28 686 -18 736 -18 781 c 1
 49 781 l 1
 51 768 72 751 101 751 c 0
 131 751 152 768 154 781 c 1
 219 781 l 1
44 606 m 1
 157 606 l 1
 157 0 l 1
 44 0 l 1
 44 606 l 1
EndSplineSet
Position2: "'cpsp' Capital Spacing lookup 0 subtable" dx=5 dy=0 dh=10 dv=0
EndChar

StartChar: Icircumflex
Encoding: 206 206 48
Width: 202
Flags: MW
HStem: 0 21G<44 157 44 44> 586 20G<44 157 157 157> 661 120<58 62 -19 145 141 141 141 145 58 220>
VStem: 44 113<0 606 0 606>
LayerCount: 2
Fore
SplineSet
102 722 m 1
 62 661 l 1
 -19 661 l 1
 58 781 l 1
 145 781 l 1
 220 661 l 1
 141 661 l 1
 102 722 l 1
44 606 m 1
 157 606 l 1
 157 0 l 1
 44 0 l 1
 44 606 l 1
EndSplineSet
Position2: "'cpsp' Capital Spacing lookup 0 subtable" dx=5 dy=0 dh=10 dv=0
EndChar

StartChar: Idieresis
Encoding: 207 207 49
Width: 202
Flags: MW
HStem: 0 21G<44 44 44 157> 586 20G<44 157 157 157> 684 97<-20 68 -20 68 134 223 -20 134>
VStem: -20 88<684 781 684 781> 44 113<0 606 0 606> 134 89<684 781 684 781>
LayerCount: 2
Fore
SplineSet
-20 684 m 1xf4
 -20 781 l 1
 68 781 l 1
 68 684 l 1
 -20 684 l 1xf4
134 684 m 1
 134 781 l 1
 223 781 l 1
 223 684 l 1
 134 684 l 1
44 0 m 1xe8
 44 606 l 1
 157 606 l 1
 157 0 l 1
 44 0 l 1xe8
EndSplineSet
Position2: "'cpsp' Capital Spacing lookup 0 subtable" dx=5 dy=0 dh=10 dv=0
EndChar

StartChar: Idotaccent
Encoding: 304 304 50
Width: 202
Flags: MW
HStem: 0 21G<44 157 44 44> 586 20G<44 157 157 157> 679 102<54 149 54 149>
VStem: 44 113<0 606 0 606> 54 95<679 781 679 781>
LayerCount: 2
Fore
SplineSet
54 781 m 1xe8
 149 781 l 1
 149 679 l 1
 54 679 l 1
 54 781 l 1xe8
44 606 m 1xf0
 157 606 l 1
 157 0 l 1
 44 0 l 1
 44 606 l 1xf0
EndSplineSet
Position2: "'cpsp' Capital Spacing lookup 0 subtable" dx=5 dy=0 dh=10 dv=0
EndChar

StartChar: Igrave
Encoding: 204 204 51
Width: 202
Flags: MW
HStem: 0 21G<44 44 44 157> 586 20G<44 157 157 157> 664 117<74 74 74 86 -20 162>
VStem: 44 113<0 606 0 606>
LayerCount: 2
Fore
SplineSet
74 664 m 1
 -21 778 l 1
 -20 781 l 1
 86 781 l 1
 162 664 l 1
 74 664 l 1
44 0 m 1
 44 606 l 1
 157 606 l 1
 157 0 l 1
 44 0 l 1
EndSplineSet
Position2: "'cpsp' Capital Spacing lookup 0 subtable" dx=5 dy=0 dh=10 dv=0
EndChar

StartChar: Imacron
Encoding: 298 298 52
Width: 202
Flags: MW
HStem: 0 21G<44 157 44 44> 586 20G<44 157 157 157> 671 77<-12 214 -12 214>
VStem: 44 113<0 606 0 606>
LayerCount: 2
Fore
SplineSet
-12 748 m 1
 214 748 l 1
 214 671 l 1
 -12 671 l 1
 -12 748 l 1
44 606 m 1
 157 606 l 1
 157 0 l 1
 44 0 l 1
 44 606 l 1
EndSplineSet
Position2: "'cpsp' Capital Spacing lookup 0 subtable" dx=5 dy=0 dh=10 dv=0
EndChar

StartChar: Iogonek
Encoding: 302 302 53
Width: 202
Flags: MW
HStem: -168 61<112 190> -156 21G<190 190> -156 49<171 190> 0 21G<44 83 44 44 157 157> 586 20G<44 157 157 157>
VStem: 44 113<-118.5 0 0 606>
LayerCount: 2
Fore
SplineSet
157 0 m 1x5c
 148 -12 131 -37 131 -62 c 0
 131 -85 141 -107 171 -107 c 2
 190 -107 l 1x3c
 190 -156 l 1x5c
 170 -164 151 -168 132 -168 c 0
 92 -168 44 -149 44 -88 c 0x9c
 44 -47 62 -22 83 0 c 1
 44 0 l 1
 44 606 l 1
 157 606 l 1
 157 0 l 1x5c
EndSplineSet
Position2: "'cpsp' Capital Spacing lookup 0 subtable" dx=5 dy=0 dh=10 dv=0
EndChar

StartChar: Itilde
Encoding: 296 296 54
Width: 202
Flags: MW
HStem: 0 21G<44 157 44 44> 586 20G<44 157 157 157> 673 75<141.5 166.5 137 194> 705 76<36.5 61 8 66>
VStem: 44 113<0 606 0 606>
LayerCount: 2
Fore
SplineSet
250 781 m 1xd8
 250 732 225 673 163 673 c 0xe8
 120 673 86 705 46 705 c 0xd8
 27 705 15 697 11 673 c 1
 -48 673 l 1xe8
 -48 721 -23 781 39 781 c 0xd8
 83 781 117 748 157 748 c 0xe8
 176 748 187 756 191 781 c 1
 250 781 l 1xd8
44 606 m 1xe8
 157 606 l 1
 157 0 l 1
 44 0 l 1
 44 606 l 1xe8
EndSplineSet
Position2: "'cpsp' Capital Spacing lookup 0 subtable" dx=5 dy=0 dh=10 dv=0
EndChar

StartChar: J
Encoding: 74 74 55
Width: 403
Flags: MW
HStem: -11 98<160 198 160 234> -11 202<8 234> 586 20G<237 350 350 350>
VStem: 8 112<144 153 153 191 131.5 191> 237 113<153 606>
LayerCount: 2
Fore
SplineSet
350 144 m 2xb8
 350 43 289 -11 179 -11 c 0xb8
 70 -11 8 43 8 144 c 2
 8 191 l 1
 120 191 l 1x78
 120 153 l 2
 120 110 141 87 179 87 c 0
 217 87 237 110 237 153 c 2
 237 606 l 1
 350 606 l 1
 350 144 l 2xb8
EndSplineSet
Position2: "'cpsp' Capital Spacing lookup 0 subtable" dx=5 dy=0 dh=10 dv=0
EndChar

StartChar: Jcircumflex
Encoding: 308 308 56
Width: 403
Flags: MW
HStem: -11 98<160 198 160 234> -11 202<8 234> 586 20G<237 350 350 350> 661 120<262 265 186 349 345 349 262 423 345 345>
VStem: 8 112<144 153 153 191 131.5 191> 237 113<153 606>
LayerCount: 2
Fore
SplineSet
345 661 m 1xbc
 305 722 l 1
 265 661 l 1
 186 661 l 1
 262 781 l 1
 349 781 l 1
 423 661 l 1
 345 661 l 1xbc
350 144 m 2
 350 43 289 -11 179 -11 c 0xbc
 70 -11 8 43 8 144 c 2
 8 191 l 1
 120 191 l 1x7c
 120 153 l 2
 120 110 141 87 179 87 c 0
 217 87 237 110 237 153 c 2
 237 606 l 1
 350 606 l 1
 350 144 l 2
EndSplineSet
Position2: "'cpsp' Capital Spacing lookup 0 subtable" dx=5 dy=0 dh=10 dv=0
EndChar

StartChar: K
Encoding: 75 75 57
Width: 523
Flags: MW
HStem: 0 21G<53 167 53 53 393 521 393 393> 586 20G<53 167 167 167 389 515 515 515>
VStem: 53 114<0 155 296 606>
LayerCount: 2
Fore
SplineSet
515 606 m 1
 336 360 l 1
 521 0 l 1
 393 0 l 1
 262 271 l 1
 167 155 l 1
 167 0 l 1
 53 0 l 1
 53 606 l 1
 167 606 l 1
 167 296 l 1
 389 606 l 1
 515 606 l 1
EndSplineSet
Position2: "'cpsp' Capital Spacing lookup 0 subtable" dx=5 dy=0 dh=10 dv=0
EndChar

StartChar: Kcommaaccent
Encoding: 310 310 58
Width: 523
Flags: MW
HStem: -157 108<207 250 207 316> 0 21G<53 167 53 53 393 521 393 393> 586 20G<53 167 167 167 389 515 515 515>
VStem: 53 114<0 155 296 606> 207 109<-148 -49 -148 -49 -148 -49>
LayerCount: 2
Fore
SplineSet
515 606 m 1
 336 360 l 1
 521 0 l 1
 393 0 l 1
 262 271 l 1
 167 155 l 1
 167 0 l 1
 53 0 l 1
 53 606 l 1
 167 606 l 1
 167 296 l 1
 389 606 l 1
 515 606 l 1
219 -232 m 1
 250 -157 l 1
 207 -157 l 1
 207 -49 l 1
 316 -49 l 1
 316 -148 l 1
 276 -232 l 1
 219 -232 l 1
EndSplineSet
Position2: "'cpsp' Capital Spacing lookup 0 subtable" dx=5 dy=0 dh=10 dv=0
EndChar

StartChar: L
Encoding: 76 76 59
Width: 443
Flags: MW
HStem: 0 106<166 423 166 423> 586 20G<53 166 166 166>
VStem: 53 113<106 606 106 606 106 606>
LayerCount: 2
Fore
SplineSet
423 106 m 1
 423 0 l 1
 53 0 l 1
 53 606 l 1
 166 606 l 1
 166 106 l 1
 423 106 l 1
EndSplineSet
Position2: "'cpsp' Capital Spacing lookup 0 subtable" dx=5 dy=0 dh=10 dv=0
EndChar

StartChar: Lacute
Encoding: 313 313 60
Width: 443
Flags: MW
HStem: 0 106<166 423 166 423> 586 20G<53 166 166 166> 664 117<127 139 51 233>
VStem: 53 113<106 606 106 606 106 606>
LayerCount: 2
Fore
SplineSet
139 664 m 1
 51 664 l 1
 127 781 l 1
 233 781 l 1
 234 778 l 1
 139 664 l 1
423 106 m 1
 423 0 l 1
 53 0 l 1
 53 606 l 1
 166 606 l 1
 166 106 l 1
 423 106 l 1
EndSplineSet
Position2: "'cpsp' Capital Spacing lookup 0 subtable" dx=5 dy=0 dh=10 dv=0
EndChar

StartChar: Lcaron
Encoding: 317 317 61
Width: 443
Flags: MW
HStem: 0 106<166 423 166 423> 485 121<301 349>
VStem: 53 113<106 606 106 606 106 606> 301 122<496 606>
LayerCount: 2
Fore
SplineSet
423 106 m 1
 423 0 l 1
 53 0 l 1
 53 606 l 1
 166 606 l 1
 166 106 l 1
 423 106 l 1
364 347 m 1
 301 347 l 1
 349 485 l 1
 301 485 l 1
 301 606 l 1
 423 606 l 1
 423 496 l 1
 364 347 l 1
EndSplineSet
Position2: "'cpsp' Capital Spacing lookup 0 subtable" dx=5 dy=0 dh=10 dv=0
EndChar

StartChar: Lcommaaccent
Encoding: 315 315 62
Width: 443
Flags: MW
HStem: -157 108<167 210 167 276> 0 106<166 423 166 423> 586 20G<53 166 166 166>
VStem: 53 113<106 606 106 606 106 606> 167 109<-148 -49 -148 -49 -148 -49>
LayerCount: 2
Fore
SplineSet
423 106 m 1
 423 0 l 1
 53 0 l 1
 53 606 l 1
 166 606 l 1
 166 106 l 1
 423 106 l 1
236 -232 m 1xe8
 179 -232 l 1
 210 -157 l 1
 167 -157 l 1
 167 -49 l 1
 276 -49 l 1
 276 -148 l 1
 236 -232 l 1xe8
EndSplineSet
Position2: "'cpsp' Capital Spacing lookup 0 subtable" dx=5 dy=0 dh=10 dv=0
EndChar

StartChar: Ldot
Encoding: 319 319 63
Width: 443
Flags: MW
HStem: 0 106<166 423 166 423> 362 101<277 371 277 371> 586 20G<53 166 166 166>
VStem: 53 113<106 606 106 606 106 606> 277 94<362 463 362 463>
LayerCount: 2
Fore
SplineSet
423 106 m 1
 423 0 l 1
 53 0 l 1
 53 606 l 1
 166 606 l 1
 166 106 l 1
 423 106 l 1
277 362 m 1
 277 463 l 1
 371 463 l 1
 371 362 l 1
 277 362 l 1
EndSplineSet
Ligature2: "Ligature Substitution lookup 13 subtable" L periodcentered
Position2: "'cpsp' Capital Spacing lookup 0 subtable" dx=5 dy=0 dh=10 dv=0
EndChar

StartChar: Lslash
Encoding: 321 321 64
Width: 443
Flags: MW
HStem: 0 106<166 423 166 423> 586 20G<53 166 166 166>
VStem: 53 113<106 210 210 210 293 309 106 394 394 606>
LayerCount: 2
Fore
SplineSet
269 486 m 1
 269 400 l 1
 166 309 l 1
 166 106 l 1
 423 106 l 1
 423 0 l 1
 53 0 l 1
 53 210 l 1
 0 163 l 1
 0 247 l 1
 53 293 l 1
 53 606 l 1
 166 606 l 1
 166 394 l 1
 269 486 l 1
EndSplineSet
Position2: "'cpsp' Capital Spacing lookup 0 subtable" dx=5 dy=0 dh=10 dv=0
EndChar

StartChar: M
Encoding: 77 77 65
Width: 604
Flags: MW
HStem: 0 21G<47 143 47 47 249 347 249 249 453 557 453 453> 0 135<305 309 305 347 249 309> 484 122<139 142 139 139 453 457 453 453>
VStem: 47 96<0 386 0 606> 453 104<0 386 386 400 484 484>
LayerCount: 2
Fore
SplineSet
453 0 m 1xb8
 453 386 l 2
 453 414 457 484 457 484 c 1
 453 484 l 1
 448 461 444 438 438 415 c 2
 347 0 l 1
 249 0 l 1
 164 389 l 2
 156 421 149 452 142 484 c 1
 139 484 l 1
 139 484 143 410 143 386 c 2
 143 0 l 1
 47 0 l 1
 47 606 l 1
 206 606 l 1
 281 272 l 2
 290 232 305 135 305 135 c 1
 309 135 l 1x78
 309 135 321 237 329 272 c 2
 403 606 l 1
 557 606 l 1
 557 0 l 1
 453 0 l 1xb8
EndSplineSet
Position2: "'cpsp' Capital Spacing lookup 0 subtable" dx=5 dy=0 dh=10 dv=0
EndChar

StartChar: N
Encoding: 78 78 66
Width: 523
Flags: MW
HStem: 0 21G<53 153 53 53 370 470 370 370> 586 20G<53 153 153 153 370 470 470 470>
VStem: 53 100<0 338 0 606> 370 100<0 606 218 269 269 606 0 606>
LayerCount: 2
Fore
SplineSet
370 0 m 1
 182 334 l 2
 175 347 155 391 155 391 c 1
 151 388 l 1
 151 388 153 354 153 338 c 2
 153 0 l 1
 53 0 l 1
 53 606 l 1
 153 606 l 1
 340 272 l 2
 350 257 368 216 368 216 c 1
 370 218 l 1
 370 269 l 1
 370 606 l 1
 470 606 l 1
 470 0 l 1
 370 0 l 1
EndSplineSet
Position2: "'cpsp' Capital Spacing lookup 0 subtable" dx=5 dy=0 dh=10 dv=0
EndChar

StartChar: Nacute
Encoding: 323 323 67
Width: 523
Flags: MW
HStem: 0 21G<53 153 53 53 370 470 370 370> 586 20G<53 153 153 153 370 470 470 470> 664 117<277 288 201 383>
VStem: 53 100<0 338 0 606> 370 100<0 606 218 269 269 606 0 606>
LayerCount: 2
Fore
SplineSet
288 664 m 1
 201 664 l 1
 277 781 l 1
 383 781 l 1
 384 778 l 1
 288 664 l 1
370 0 m 1
 182 334 l 2
 175 347 155 391 155 391 c 1
 151 388 l 1
 151 388 153 354 153 338 c 2
 153 0 l 1
 53 0 l 1
 53 606 l 1
 153 606 l 1
 340 272 l 2
 350 257 368 216 368 216 c 1
 370 218 l 1
 370 269 l 1
 370 606 l 1
 470 606 l 1
 470 0 l 1
 370 0 l 1
EndSplineSet
Position2: "'cpsp' Capital Spacing lookup 0 subtable" dx=5 dy=0 dh=10 dv=0
EndChar

StartChar: Ncaron
Encoding: 327 327 68
Width: 523
Flags: MW
HStem: 0 21G<53 153 53 53 370 470 370 370> 586 20G<53 153 153 153 370 470 470 470> 661 120<219 219 219 222 301 306>
VStem: 53 100<0 338 0 606> 370 100<0 606 218 269 269 606 0 606>
LayerCount: 2
Fore
SplineSet
219 661 m 1
 143 781 l 1
 222 781 l 1
 262 720 l 1
 301 781 l 1
 381 781 l 1
 306 661 l 1
 219 661 l 1
370 0 m 1
 182 334 l 2
 175 347 155 391 155 391 c 1
 151 388 l 1
 151 388 153 354 153 338 c 2
 153 0 l 1
 53 0 l 1
 53 606 l 1
 153 606 l 1
 340 272 l 2
 350 257 368 216 368 216 c 1
 370 218 l 1
 370 269 l 1
 370 606 l 1
 470 606 l 1
 470 0 l 1
 370 0 l 1
EndSplineSet
Position2: "'cpsp' Capital Spacing lookup 0 subtable" dx=5 dy=0 dh=10 dv=0
EndChar

StartChar: Ncommaaccent
Encoding: 325 325 69
Width: 523
Flags: MW
HStem: -157 108<207 250 207 316> 0 21G<53 153 53 53 370 470 370 370> 586 20G<53 153 153 153 370 470 470 470>
VStem: 53 100<0 338 0 606> 207 109<-148 -49 -148 -49 -148 -49> 370 100<0 606 218 269 269 606 0 606>
LayerCount: 2
Fore
SplineSet
370 0 m 1
 182 334 l 2
 175 347 155 391 155 391 c 1
 151 388 l 1
 151 388 153 354 153 338 c 2
 153 0 l 1
 53 0 l 1
 53 606 l 1
 153 606 l 1
 340 272 l 2
 350 257 368 216 368 216 c 1
 370 218 l 1
 370 269 l 1
 370 606 l 1
 470 606 l 1
 470 0 l 1
 370 0 l 1
276 -232 m 1
 219 -232 l 1
 250 -157 l 1
 207 -157 l 1
 207 -49 l 1
 316 -49 l 1
 316 -148 l 1
 276 -232 l 1
EndSplineSet
Position2: "'cpsp' Capital Spacing lookup 0 subtable" dx=5 dy=0 dh=10 dv=0
EndChar

StartChar: Eng
Encoding: 330 330 70
Width: 524
Flags: MW
HStem: -161 89<286 404.5> 0 21G<53 153 53 53 367 367> 586 20G<53 153 153 153 370 470 470 470>
VStem: 53 100<0 338 0 606> 370 100<218 269 269 606>
LayerCount: 2
Fore
SplineSet
470 -36 m 2
 470 -98 447 -161 362 -161 c 0
 336 -161 304 -156 286 -150 c 1
 286 -72 l 1
 325 -72 l 2
 353 -72 367 -57 367 -29 c 2
 367 0 l 1
 182 334 l 2
 175 347 155 391 155 391 c 1
 151 388 l 1
 151 388 153 354 153 338 c 2
 153 0 l 1
 53 0 l 1
 53 606 l 1
 153 606 l 1
 340 272 l 2
 350 257 368 216 368 216 c 1
 370 218 l 1
 370 269 l 1
 370 606 l 1
 470 606 l 1
 470 -36 l 2
EndSplineSet
Position2: "'cpsp' Capital Spacing lookup 0 subtable" dx=5 dy=0 dh=10 dv=0
EndChar

StartChar: Ntilde
Encoding: 209 209 71
Width: 523
Flags: MW
HStem: 0 21G<53 153 53 53 370 470 370 370> 586 20G<53 153 153 153 370 470 470 470> 673 75<301.5 326.5 297.5 354> 705 76<196.5 221.5 169 226>
VStem: 53 100<0 338 0 606> 370 100<0 606 218 269 269 606 0 606>
LayerCount: 2
Fore
SplineSet
410 781 m 1xdc
 410 732 385 673 323 673 c 0xec
 280 673 246 705 206 705 c 0xdc
 187 705 175 697 171 673 c 1
 113 673 l 1xec
 113 721 138 781 200 781 c 0xdc
 243 781 278 748 317 748 c 0xec
 336 748 348 756 352 781 c 1
 410 781 l 1xdc
370 0 m 1xec
 182 334 l 2
 175 347 155 391 155 391 c 1
 151 388 l 1
 151 388 153 354 153 338 c 2
 153 0 l 1
 53 0 l 1
 53 606 l 1
 153 606 l 1
 340 272 l 2
 350 257 368 216 368 216 c 1
 370 218 l 1
 370 269 l 1
 370 606 l 1
 470 606 l 1
 470 0 l 1
 370 0 l 1xec
EndSplineSet
Position2: "'cpsp' Capital Spacing lookup 0 subtable" dx=5 dy=0 dh=10 dv=0
EndChar

StartChar: O
Encoding: 79 79 72
Width: 564
Flags: MW
HStem: -11 98<237 327 237 360> 520 97<237 327>
VStem: 30 117<220.5 281 281 325 220.5 410> 417 117<281 325 325 385.5>
LayerCount: 2
Fore
SplineSet
282 617 m 0
 438 617 534 517 534 303 c 0
 534 89 438 -11 282 -11 c 0
 126 -11 30 89 30 303 c 0
 30 517 126 617 282 617 c 0
417 325 m 2
 417 446 372 520 282 520 c 0
 192 520 147 446 147 325 c 2
 147 281 l 2
 147 160 192 87 282 87 c 0
 372 87 417 160 417 281 c 2
 417 325 l 2
EndSplineSet
Substitution2: "Single Substitution lookup 14 subtable" ordmasculine
Substitution2: "'aalt' Access All Alternates lookup 0 subtable" ordmasculine
Position2: "'cpsp' Capital Spacing lookup 0 subtable" dx=5 dy=0 dh=10 dv=0
EndChar

StartChar: Oacute
Encoding: 211 211 73
Width: 564
Flags: MW
HStem: -11 98<237 327 237 360> 520 97<237 327> 664 117<297 309 221 404>
VStem: 30 117<220.5 281 281 325 220.5 410> 417 117<281 325 325 385.5>
LayerCount: 2
Fore
SplineSet
309 664 m 1
 221 664 l 1
 297 781 l 1
 404 781 l 1
 405 778 l 1
 309 664 l 1
282 617 m 0
 438 617 534 517 534 303 c 0
 534 89 438 -11 282 -11 c 0
 126 -11 30 89 30 303 c 0
 30 517 126 617 282 617 c 0
417 325 m 2
 417 446 372 520 282 520 c 0
 192 520 147 446 147 325 c 2
 147 281 l 2
 147 160 192 87 282 87 c 0
 372 87 417 160 417 281 c 2
 417 325 l 2
EndSplineSet
Position2: "'cpsp' Capital Spacing lookup 0 subtable" dx=5 dy=0 dh=10 dv=0
EndChar

StartChar: Obreve
Encoding: 334 334 74
Width: 564
Flags: MW
HStem: -11 98<237 327 237 360> 520 97<237 327> 686 95<164 318.5>
VStem: 30 117<220.5 281 281 325 220.5 410> 417 117<281 325 325 385.5>
LayerCount: 2
Fore
SplineSet
400 781 m 1
 400 736 355 686 282 686 c 0
 210 686 164 736 164 781 c 1
 230 781 l 1
 232 768 253 751 282 751 c 0
 312 751 333 768 335 781 c 1
 400 781 l 1
282 617 m 0
 438 617 534 517 534 303 c 0
 534 89 438 -11 282 -11 c 0
 126 -11 30 89 30 303 c 0
 30 517 126 617 282 617 c 0
417 325 m 2
 417 446 372 520 282 520 c 0
 192 520 147 446 147 325 c 2
 147 281 l 2
 147 160 192 87 282 87 c 0
 372 87 417 160 417 281 c 2
 417 325 l 2
EndSplineSet
Position2: "'cpsp' Capital Spacing lookup 0 subtable" dx=5 dy=0 dh=10 dv=0
EndChar

StartChar: Ocircumflex
Encoding: 212 212 75
Width: 564
Flags: MW
HStem: -11 98<237 327 237 360> 520 97<237 327> 661 120<240 243 164 326 322 322 322 326 240 401>
VStem: 30 117<220.5 281 281 325 220.5 410> 417 117<281 325 325 385.5>
LayerCount: 2
Fore
SplineSet
283 722 m 1
 243 661 l 1
 164 661 l 1
 240 781 l 1
 326 781 l 1
 401 661 l 1
 322 661 l 1
 283 722 l 1
282 617 m 0
 438 617 534 517 534 303 c 0
 534 89 438 -11 282 -11 c 0
 126 -11 30 89 30 303 c 0
 30 517 126 617 282 617 c 0
417 325 m 2
 417 446 372 520 282 520 c 0
 192 520 147 446 147 325 c 2
 147 281 l 2
 147 160 192 87 282 87 c 0
 372 87 417 160 417 281 c 2
 417 325 l 2
EndSplineSet
Position2: "'cpsp' Capital Spacing lookup 0 subtable" dx=5 dy=0 dh=10 dv=0
EndChar

StartChar: Odieresis
Encoding: 214 214 76
Width: 564
Flags: MW
HStem: -11 98<237 327 237 360> 520 97<237 327> 684 97<161 249 161 249 316 404 161 316>
VStem: 30 117<220.5 281 281 325 220.5 410> 161 88<684 781 684 781> 316 88<684 781 684 781> 417 117<281 325 325 385.5>
LayerCount: 2
Fore
SplineSet
161 684 m 1
 161 781 l 1
 249 781 l 1
 249 684 l 1
 161 684 l 1
316 684 m 1
 316 781 l 1
 404 781 l 1
 404 684 l 1
 316 684 l 1
282 617 m 0xf2
 438 617 534 517 534 303 c 0
 534 89 438 -11 282 -11 c 0
 126 -11 30 89 30 303 c 0
 30 517 126 617 282 617 c 0xf2
417 325 m 2
 417 446 372 520 282 520 c 0
 192 520 147 446 147 325 c 2
 147 281 l 2
 147 160 192 87 282 87 c 0
 372 87 417 160 417 281 c 2
 417 325 l 2
EndSplineSet
Position2: "'cpsp' Capital Spacing lookup 0 subtable" dx=5 dy=0 dh=10 dv=0
EndChar

StartChar: Ograve
Encoding: 210 210 77
Width: 564
Flags: MW
HStem: -11 98<237 327 237 360> 520 97<237 327> 664 117<255 255 255 267 161 343>
VStem: 30 117<220.5 281 281 325 220.5 410> 417 117<281 325 325 385.5>
LayerCount: 2
Fore
SplineSet
255 664 m 1
 160 778 l 1
 161 781 l 1
 267 781 l 1
 343 664 l 1
 255 664 l 1
282 617 m 0
 438 617 534 517 534 303 c 0
 534 89 438 -11 282 -11 c 0
 126 -11 30 89 30 303 c 0
 30 517 126 617 282 617 c 0
417 325 m 2
 417 446 372 520 282 520 c 0
 192 520 147 446 147 325 c 2
 147 281 l 2
 147 160 192 87 282 87 c 0
 372 87 417 160 417 281 c 2
 417 325 l 2
EndSplineSet
Position2: "'cpsp' Capital Spacing lookup 0 subtable" dx=5 dy=0 dh=10 dv=0
EndChar

StartChar: Ohungarumlaut
Encoding: 336 336 78
Width: 564
Flags: MW
HStem: -11 98<237 327 237 360> 520 97<237 327> 664 117<238 253 183 326 307 307 307 326 362 377>
VStem: 30 117<220.5 281 281 325 220.5 410> 417 117<281 325 325 385.5>
LayerCount: 2
Fore
SplineSet
253 664 m 1
 183 664 l 1
 238 781 l 1
 326 781 l 1
 327 778 l 1
 253 664 l 1
377 664 m 1
 307 664 l 1
 362 781 l 1
 450 781 l 1
 451 778 l 1
 377 664 l 1
282 617 m 0
 438 617 534 517 534 303 c 0
 534 89 438 -11 282 -11 c 0
 126 -11 30 89 30 303 c 0
 30 517 126 617 282 617 c 0
417 325 m 2
 417 446 372 520 282 520 c 0
 192 520 147 446 147 325 c 2
 147 281 l 2
 147 160 192 87 282 87 c 0
 372 87 417 160 417 281 c 2
 417 325 l 2
EndSplineSet
Position2: "'cpsp' Capital Spacing lookup 0 subtable" dx=5 dy=0 dh=10 dv=0
EndChar

StartChar: Omacron
Encoding: 332 332 79
Width: 564
Flags: MW
HStem: -11 98<237 327 237 360> 520 97<237 327> 671 77<170 395 170 395>
VStem: 30 117<220.5 281 281 325 220.5 410> 170 225<671 748 671 748> 417 117<281 325 325 385.5>
LayerCount: 2
Fore
SplineSet
170 748 m 1
 395 748 l 1
 395 671 l 1
 170 671 l 1
 170 748 l 1
282 617 m 0xf4
 438 617 534 517 534 303 c 0
 534 89 438 -11 282 -11 c 0
 126 -11 30 89 30 303 c 0
 30 517 126 617 282 617 c 0xf4
417 325 m 2
 417 446 372 520 282 520 c 0
 192 520 147 446 147 325 c 2
 147 281 l 2
 147 160 192 87 282 87 c 0
 372 87 417 160 417 281 c 2
 417 325 l 2
EndSplineSet
Position2: "'cpsp' Capital Spacing lookup 0 subtable" dx=5 dy=0 dh=10 dv=0
EndChar

StartChar: Oslash
Encoding: 216 216 80
Width: 564
Flags: MW
HStem: -11 98<265.5 327 265.5 360> 520 97<237 298.5> 539 100<467 467>
VStem: 30 117<260 281 281 325 260 410> 417 117<281 325 325 346>
LayerCount: 2
Fore
SplineSet
467 539 m 1xb8
 510 488 534 409 534 303 c 0
 534 89 438 -11 282 -11 c 0
 229 -11 183 1 145 24 c 1
 110 -33 l 1
 35 -33 l 1
 97 66 l 1
 54 118 30 196 30 303 c 0
 30 517 126 617 282 617 c 0
 335 617 381 606 419 582 c 1xd8
 455 639 l 1
 530 639 l 1
 467 539 l 1xb8
362 492 m 1xd8
 342 510 315 520 282 520 c 0
 192 520 147 446 147 325 c 2
 147 281 l 2
 147 239 152 202 163 171 c 1
 362 492 l 1xd8
202 114 m 1
 222 96 249 87 282 87 c 0
 372 87 417 160 417 281 c 2
 417 325 l 2
 417 367 412 404 400 433 c 1
 202 114 l 1
EndSplineSet
Position2: "'cpsp' Capital Spacing lookup 0 subtable" dx=5 dy=0 dh=10 dv=0
EndChar

StartChar: Oslashacute
Encoding: 510 510 81
Width: 564
Flags: MW
HStem: -11 98<265.5 327 265.5 360> 520 97<237 298.5> 539 100<467 467> 664 117<297 309 221 404>
VStem: 30 117<260 281 281 325 260 410> 417 117<281 325 325 346>
LayerCount: 2
Fore
SplineSet
309 664 m 1xdc
 221 664 l 1
 297 781 l 1
 404 781 l 1
 405 778 l 1
 309 664 l 1xdc
467 539 m 1xbc
 510 488 534 409 534 303 c 0
 534 89 438 -11 282 -11 c 0
 229 -11 183 1 145 24 c 1
 110 -33 l 1
 35 -33 l 1
 97 66 l 1
 54 118 30 196 30 303 c 0
 30 517 126 617 282 617 c 0
 335 617 381 606 419 582 c 1xdc
 455 639 l 1
 530 639 l 1
 467 539 l 1xbc
362 492 m 1xdc
 342 510 315 520 282 520 c 0
 192 520 147 446 147 325 c 2
 147 281 l 2
 147 239 152 202 163 171 c 1
 362 492 l 1xdc
202 114 m 1
 222 96 249 87 282 87 c 0
 372 87 417 160 417 281 c 2
 417 325 l 2
 417 367 412 404 400 433 c 1
 202 114 l 1
EndSplineSet
Position2: "'cpsp' Capital Spacing lookup 0 subtable" dx=5 dy=0 dh=10 dv=0
EndChar

StartChar: Otilde
Encoding: 213 213 82
Width: 564
Flags: MW
HStem: -11 98<237 327 237 360> 520 97<237 327> 673 75<322.5 348 318.5 375> 705 76<217.5 242.5 190 247>
VStem: 30 117<220.5 281 281 325 220.5 410> 372 59<756.5 781> 417 117<281 325 325 385.5>
LayerCount: 2
Fore
SplineSet
431 781 m 1xdc
 431 732 406 673 344 673 c 0xec
 301 673 267 705 227 705 c 0xda
 208 705 196 697 193 673 c 1
 133 673 l 1xea
 133 721 159 781 221 781 c 0xda
 264 781 298 748 339 748 c 0xec
 357 748 369 756 372 781 c 1
 431 781 l 1xdc
282 617 m 0xea
 438 617 534 517 534 303 c 0
 534 89 438 -11 282 -11 c 0
 126 -11 30 89 30 303 c 0
 30 517 126 617 282 617 c 0xea
417 325 m 2
 417 446 372 520 282 520 c 0
 192 520 147 446 147 325 c 2
 147 281 l 2
 147 160 192 87 282 87 c 0
 372 87 417 160 417 281 c 2
 417 325 l 2
EndSplineSet
Position2: "'cpsp' Capital Spacing lookup 0 subtable" dx=5 dy=0 dh=10 dv=0
EndChar

StartChar: OE
Encoding: 338 338 83
Width: 725
Flags: MW
HStem: -11 98<215 255> 0 101<474 700 474 700> 260 101<474 656 474 656> 506 100<474 694 474 474> 520 97<215 255 165.5 287.5>
VStem: 27 116<211.5 281 281 325 211.5 410> 360 114<101 325 361 394.5>
LayerCount: 2
Fore
SplineSet
361 54 m 1x76
 327 10 282 -11 228 -11 c 0
 103 -11 27 89 27 303 c 0
 27 517 103 617 228 617 c 0
 282 617 327 596 361 552 c 1xae
 361 606 l 1
 694 606 l 1
 694 506 l 1
 474 506 l 1
 474 361 l 1
 656 361 l 1
 656 260 l 1
 474 260 l 1
 474 101 l 1
 700 101 l 1
 700 0 l 1
 361 0 l 1
 361 54 l 1x76
360 325 m 2xae
 360 464 324 520 251 520 c 0
 179 520 143 464 143 325 c 2
 143 281 l 2
 143 142 179 87 251 87 c 0
 324 87 360 142 360 281 c 2
 360 325 l 2xae
EndSplineSet
Position2: "'cpsp' Capital Spacing lookup 0 subtable" dx=5 dy=0 dh=10 dv=0
EndChar

StartChar: P
Encoding: 80 80 84
Width: 484
Flags: MW
HStem: 0 21G<53 53 53 166> 235 100<166 258 258 270 166 258> 506 100<166 258 166 166>
VStem: 53 113<0 235 0 335 335 506> 343 117<396.5 449>
LayerCount: 2
Fore
SplineSet
53 0 m 1
 53 606 l 1
 270 606 l 2
 395 606 460 530 460 424 c 0
 460 310 384 235 270 235 c 2
 166 235 l 1
 166 0 l 1
 53 0 l 1
258 335 m 2
 313 335 343 369 343 424 c 0
 343 474 312 506 258 506 c 2
 166 506 l 1
 166 335 l 1
 258 335 l 2
EndSplineSet
Position2: "'cpsp' Capital Spacing lookup 0 subtable" dx=5 dy=0 dh=10 dv=0
EndChar

StartChar: Thorn
Encoding: 222 222 85
Width: 484
Flags: MW
HStem: 0 21G<53 166 53 53> 127 100<166 258 258 270 166 258> 398 101<166 258 166 270> 586 20G<53 166 166 166>
VStem: 53 113<0 127 227 398 499 606> 343 117<288.5 341>
LayerCount: 2
Fore
SplineSet
270 499 m 2
 395 499 460 422 460 316 c 0
 460 202 384 127 270 127 c 2
 166 127 l 1
 166 0 l 1
 53 0 l 1
 53 606 l 1
 166 606 l 1
 166 499 l 1
 270 499 l 2
166 227 m 1
 258 227 l 2
 313 227 343 261 343 316 c 0
 343 366 312 398 258 398 c 2
 166 398 l 1
 166 227 l 1
EndSplineSet
Position2: "'cpsp' Capital Spacing lookup 0 subtable" dx=5 dy=0 dh=10 dv=0
EndChar

StartChar: Q
Encoding: 81 81 86
Width: 564
Flags: MW
HStem: -11 98<237 282 282 293> 520 97<237 327>
VStem: 30 117<220.5 281 281 325 220.5 410> 417 117<281 325 325 385.5>
LayerCount: 2
Fore
SplineSet
282 -11 m 2
 126 -11 30 89 30 303 c 0
 30 517 126 617 282 617 c 0
 438 617 534 517 534 303 c 0
 534 151 485 57 402 15 c 1
 519 -110 l 1
 380 -110 l 1
 293 -11 l 1
 282 -11 l 2
147 281 m 2
 147 160 192 87 282 87 c 0
 372 87 417 160 417 281 c 2
 417 325 l 2
 417 446 372 520 282 520 c 0
 192 520 147 446 147 325 c 2
 147 281 l 2
EndSplineSet
Position2: "'cpsp' Capital Spacing lookup 0 subtable" dx=5 dy=0 dh=10 dv=0
EndChar

StartChar: R
Encoding: 82 82 87
Width: 523
Flags: MW
HStem: 0 21G<53 166 53 53 385 507 385 385> 253 100<166 284 166 291> 506 100<166 295 166 166>
VStem: 53 113<0 253 353 506> 370 122<408 455>
LayerCount: 2
Fore
SplineSet
307 606 m 2
 430 606 492 533 492 433 c 0
 492 360 453 303 391 278 c 1
 507 0 l 1
 385 0 l 1
 284 253 l 1
 166 253 l 1
 166 0 l 1
 53 0 l 1
 53 606 l 1
 307 606 l 2
166 353 m 1
 291 353 l 2
 346 353 370 383 370 433 c 0
 370 477 347 506 295 506 c 2
 166 506 l 1
 166 353 l 1
EndSplineSet
Position2: "'cpsp' Capital Spacing lookup 0 subtable" dx=5 dy=0 dh=10 dv=0
EndChar

StartChar: Racute
Encoding: 340 340 88
Width: 523
Flags: MW
HStem: 0 21G<53 166 53 53 385 507 385 385> 253 100<166 284 166 291> 506 100<166 295 166 166> 664 117<277 288 201 383>
VStem: 53 113<0 253 353 506> 370 122<408 455>
LayerCount: 2
Fore
SplineSet
288 664 m 1
 201 664 l 1
 277 781 l 1
 383 781 l 1
 384 778 l 1
 288 664 l 1
307 606 m 2
 430 606 492 533 492 433 c 0
 492 360 453 303 391 278 c 1
 507 0 l 1
 385 0 l 1
 284 253 l 1
 166 253 l 1
 166 0 l 1
 53 0 l 1
 53 606 l 1
 307 606 l 2
166 353 m 1
 291 353 l 2
 346 353 370 383 370 433 c 0
 370 477 347 506 295 506 c 2
 166 506 l 1
 166 353 l 1
EndSplineSet
Position2: "'cpsp' Capital Spacing lookup 0 subtable" dx=5 dy=0 dh=10 dv=0
EndChar

StartChar: Rcaron
Encoding: 344 344 89
Width: 523
Flags: MW
HStem: 0 21G<53 166 53 53 385 507 385 385> 253 100<166 284 166 291> 506 100<166 295 166 166> 661 120<219 219 219 222 301 306>
VStem: 53 113<0 253 353 506> 370 122<408 455>
LayerCount: 2
Fore
SplineSet
219 661 m 1
 143 781 l 1
 222 781 l 1
 262 720 l 1
 301 781 l 1
 381 781 l 1
 306 661 l 1
 219 661 l 1
307 606 m 2
 430 606 492 533 492 433 c 0
 492 360 453 303 391 278 c 1
 507 0 l 1
 385 0 l 1
 284 253 l 1
 166 253 l 1
 166 0 l 1
 53 0 l 1
 53 606 l 1
 307 606 l 2
166 353 m 1
 291 353 l 2
 346 353 370 383 370 433 c 0
 370 477 347 506 295 506 c 2
 166 506 l 1
 166 353 l 1
EndSplineSet
Position2: "'cpsp' Capital Spacing lookup 0 subtable" dx=5 dy=0 dh=10 dv=0
EndChar

StartChar: Rcommaaccent
Encoding: 342 342 90
Width: 523
Flags: MW
HStem: -157 108<207 250 207 316> 0 21G<53 166 53 53 385 507 385 385> 253 100<166 284 166 291> 506 100<166 295 166 166>
VStem: 53 113<0 253 353 506> 207 109<-148 -49 -148 -49 -148 -49> 370 122<408 455>
LayerCount: 2
Fore
SplineSet
307 606 m 2
 430 606 492 533 492 433 c 0
 492 360 453 303 391 278 c 1
 507 0 l 1
 385 0 l 1
 284 253 l 1
 166 253 l 1
 166 0 l 1
 53 0 l 1
 53 606 l 1
 307 606 l 2
166 353 m 1
 291 353 l 2
 346 353 370 383 370 433 c 0
 370 477 347 506 295 506 c 2
 166 506 l 1
 166 353 l 1
276 -232 m 1
 219 -232 l 1
 250 -157 l 1
 207 -157 l 1
 207 -49 l 1
 316 -49 l 1
 316 -148 l 1
 276 -232 l 1
EndSplineSet
Position2: "'cpsp' Capital Spacing lookup 0 subtable" dx=5 dy=0 dh=10 dv=0
EndChar

StartChar: S
Encoding: 83 83 91
Width: 484
Flags: MW
HStem: -11 98<210 275 210 299> 520 97<213 266>
VStem: 27 117<178 183 154.5 197 154.5 197> 39 117<393.5 473.5 393.5 504.5> 323 115<428 436 436 438 428 461.5> 333 117<140.5 230>
LayerCount: 2
Fore
SplineSet
145 197 m 1xe4
 144 183 l 1xe4
 144 126 179 87 241 87 c 0
 309 87 333 123 333 158 c 0xd4
 333 302 39 217 39 447 c 0
 39 562 134 617 241 617 c 0
 349 617 438 563 438 438 c 2
 438 428 l 1
 323 428 l 1
 323 436 l 2xd8
 323 487 292 520 240 520 c 0
 186 520 156 492 156 455 c 0xd4
 156 332 450 405 450 182 c 0
 450 43 362 -11 236 -11 c 0
 125 -11 27 53 27 178 c 2
 27 197 l 1
 145 197 l 1xe4
EndSplineSet
Position2: "'cpsp' Capital Spacing lookup 0 subtable" dx=5 dy=0 dh=10 dv=0
EndChar

StartChar: Sacute
Encoding: 346 346 92
Width: 484
Flags: MW
HStem: -11 98<210 275 210 299> 520 97<213 266> 664 117<257 269 181 363>
VStem: 27 117<178 183 154.5 197 154.5 197> 39 117<393.5 473.5 393.5 504.5> 323 115<428 436 436 438 428 461.5> 333 117<140.5 230>
LayerCount: 2
Fore
SplineSet
269 664 m 1xea
 181 664 l 1
 257 781 l 1
 363 781 l 1
 364 778 l 1
 269 664 l 1xea
145 197 m 1xf2
 144 183 l 1xf2
 144 126 179 87 241 87 c 0
 309 87 333 123 333 158 c 0xea
 333 302 39 217 39 447 c 0
 39 562 134 617 241 617 c 0
 349 617 438 563 438 438 c 2
 438 428 l 1
 323 428 l 1
 323 436 l 2xec
 323 487 292 520 240 520 c 0
 186 520 156 492 156 455 c 0xea
 156 332 450 405 450 182 c 0
 450 43 362 -11 236 -11 c 0
 125 -11 27 53 27 178 c 2
 27 197 l 1
 145 197 l 1xf2
EndSplineSet
Position2: "'cpsp' Capital Spacing lookup 0 subtable" dx=5 dy=0 dh=10 dv=0
EndChar

StartChar: Scaron
Encoding: 352 352 93
Width: 484
Flags: MW
HStem: -11 98<210 275 210 299> 520 97<213 266> 661 120<199 202 281 286 199 199>
VStem: 27 117<178 183 154.5 197 154.5 197> 39 117<393.5 473.5 393.5 504.5> 323 115<428 436 436 438 428 461.5> 333 117<140.5 230>
LayerCount: 2
Fore
SplineSet
123 781 m 1xea
 202 781 l 1
 242 720 l 1
 281 781 l 1
 361 781 l 1
 286 661 l 1
 199 661 l 1
 123 781 l 1xea
145 197 m 1xf2
 144 183 l 1xf2
 144 126 179 87 241 87 c 0
 309 87 333 123 333 158 c 0xea
 333 302 39 217 39 447 c 0
 39 562 134 617 241 617 c 0
 349 617 438 563 438 438 c 2
 438 428 l 1
 323 428 l 1
 323 436 l 2xec
 323 487 292 520 240 520 c 0
 186 520 156 492 156 455 c 0xea
 156 332 450 405 450 182 c 0
 450 43 362 -11 236 -11 c 0
 125 -11 27 53 27 178 c 2
 27 197 l 1
 145 197 l 1xf2
EndSplineSet
Position2: "'cpsp' Capital Spacing lookup 0 subtable" dx=5 dy=0 dh=10 dv=0
EndChar

StartChar: Scedilla
Encoding: 350 350 94
Width: 484
Flags: MW
HStem: -161 50<218.5 219 219 229 156 250> -154 21G<156 156> -68 39<192 257> -10 21G<259 259> -8 21G<199 199> 520 97<213 266>
VStem: 27 117<178 183 154.5 197 154.5 197> 39 117<393.5 473.5> 195.5 62.5 251 76<-97.5 -82> 323 115<428 436 436 438 428 461.5> 333 117<140.5 230>
LayerCount: 2
Fore
SplineSet
145 197 m 1x8e10
 144 183 l 1xae10
 144 126 179 87 241 87 c 0
 309 87 333 123 333 158 c 0xad10
 333 302 39 217 39 447 c 0
 39 562 134 617 241 617 c 0
 349 617 438 563 438 438 c 2
 438 428 l 1
 323 428 l 1
 323 436 l 2x8d20
 323 487 292 520 240 520 c 0
 186 520 156 492 156 455 c 0
 156 332 450 405 450 182 c 0
 450 52 372 -3 259 -10 c 1x9590
 257 -29 l 1
 295 -32 327 -49 327 -89 c 0
 327 -149 269 -161 231 -161 c 0xad40
 206 -161 178 -158 156 -154 c 1x4d10
 156 -111 l 1
 219 -111 l 2
 239 -111 251 -106 251 -89 c 0
 251 -75 244 -68 221 -68 c 2xad40
 192 -68 l 1xad90
 199 -8 l 1
 103 4 27 66 27 178 c 2
 27 197 l 1
 145 197 l 1x8e10
EndSplineSet
Substitution2: "'locl' Localized Forms in Latin lookup 2 subtable" Scommaaccent
Substitution2: "'locl' Localized Forms in Latin lookup 1 subtable" Scommaaccent
Substitution2: "'aalt' Access All Alternates lookup 0 subtable" Scommaaccent
Position2: "'cpsp' Capital Spacing lookup 0 subtable" dx=5 dy=0 dh=10 dv=0
EndChar

StartChar: Scircumflex
Encoding: 348 348 95
Width: 484
Flags: MW
HStem: -11 98<210 275 210 299> 520 97<213 266> 661 120<199 202 123 286 281 281 281 286 199 361>
VStem: 27 117<178 183 154.5 197 154.5 197> 39 117<393.5 473.5 393.5 504.5> 323 115<428 436 436 438 428 461.5> 333 117<140.5 230>
LayerCount: 2
Fore
SplineSet
242 722 m 1xea
 202 661 l 1
 123 661 l 1
 199 781 l 1
 286 781 l 1
 361 661 l 1
 281 661 l 1
 242 722 l 1xea
145 197 m 1xf2
 144 183 l 1xf2
 144 126 179 87 241 87 c 0
 309 87 333 123 333 158 c 0xea
 333 302 39 217 39 447 c 0
 39 562 134 617 241 617 c 0
 349 617 438 563 438 438 c 2
 438 428 l 1
 323 428 l 1
 323 436 l 2xec
 323 487 292 520 240 520 c 0
 186 520 156 492 156 455 c 0xea
 156 332 450 405 450 182 c 0
 450 43 362 -11 236 -11 c 0
 125 -11 27 53 27 178 c 2
 27 197 l 1
 145 197 l 1xf2
EndSplineSet
Position2: "'cpsp' Capital Spacing lookup 0 subtable" dx=5 dy=0 dh=10 dv=0
EndChar

StartChar: Scommaaccent
Encoding: 536 536 96
Width: 484
Flags: MW
HStem: -157 108<187 231 187 297> -11 98<210 275 210 299> 520 97<213 266>
VStem: 27 117<178 183 154.5 197 154.5 197> 39 117<393.5 473.5 393.5 504.5> 187 110<-148 -49 -148 -49 -148 -49> 323 115<428 436 436 438 428 461.5> 333 117<140.5 230>
LayerCount: 2
Fore
SplineSet
144 183 m 1xf5
 144 126 179 87 241 87 c 0
 309 87 333 123 333 158 c 0xed
 333 302 39 217 39 447 c 0
 39 562 134 617 241 617 c 0
 349 617 438 563 438 438 c 2
 438 428 l 1
 323 428 l 1
 323 436 l 2xee
 323 487 292 520 240 520 c 0
 186 520 156 492 156 455 c 0xed
 156 332 450 405 450 182 c 0
 450 43 362 -11 236 -11 c 0
 125 -11 27 53 27 178 c 2
 27 197 l 1
 145 197 l 1
 144 183 l 1xf5
199 -232 m 1xed
 231 -157 l 1
 187 -157 l 1
 187 -49 l 1
 297 -49 l 1
 297 -148 l 1
 256 -232 l 1
 199 -232 l 1xed
EndSplineSet
Position2: "'cpsp' Capital Spacing lookup 0 subtable" dx=5 dy=0 dh=10 dv=0
EndChar

StartChar: T
Encoding: 84 84 97
Width: 443
Flags: MW
HStem: 0 21G<165 278 165 165> 506 100<15 165 15 429 278 429 278 278>
VStem: 165 113<0 506 0 506>
LayerCount: 2
Fore
SplineSet
278 506 m 1
 278 0 l 1
 165 0 l 1
 165 506 l 1
 15 506 l 1
 15 606 l 1
 429 606 l 1
 429 506 l 1
 278 506 l 1
EndSplineSet
Position2: "'cpsp' Capital Spacing lookup 0 subtable" dx=5 dy=0 dh=10 dv=0
EndChar

StartChar: Tbar
Encoding: 358 358 98
Width: 443
Flags: MW
HStem: 0 21G<165 278 165 165> 271 76<65 165 65 165 278 377> 506 100<15 165 15 429 278 429 278 278>
VStem: 165 113<0 271 0 271 347 506>
LayerCount: 2
Fore
SplineSet
278 506 m 1
 278 347 l 1
 377 347 l 1
 377 271 l 1
 278 271 l 1
 278 0 l 1
 165 0 l 1
 165 271 l 1
 65 271 l 1
 65 347 l 1
 165 347 l 1
 165 506 l 1
 15 506 l 1
 15 606 l 1
 429 606 l 1
 429 506 l 1
 278 506 l 1
EndSplineSet
Position2: "'cpsp' Capital Spacing lookup 0 subtable" dx=5 dy=0 dh=10 dv=0
EndChar

StartChar: Tcaron
Encoding: 356 356 99
Width: 443
Flags: MW
HStem: 0 21G<165 278 165 165> 506 100<15 165 15 429 278 429 278 278> 661 120<179 179 179 182 261 265>
VStem: 165 113<0 506 0 506>
LayerCount: 2
Fore
SplineSet
179 661 m 1
 103 781 l 1
 182 781 l 1
 222 720 l 1
 261 781 l 1
 340 781 l 1
 265 661 l 1
 179 661 l 1
278 506 m 1
 278 0 l 1
 165 0 l 1
 165 506 l 1
 15 506 l 1
 15 606 l 1
 429 606 l 1
 429 506 l 1
 278 506 l 1
EndSplineSet
Position2: "'cpsp' Capital Spacing lookup 0 subtable" dx=5 dy=0 dh=10 dv=0
EndChar

StartChar: Tcedilla
Encoding: 354 354 100
Width: 443
Flags: MW
HStem: -161 50<197.5 199 199 208.5 136 229> -154 21G<136 136> -68 39<171 237> 0 21G<165 180 165 165 240 278 240 240> 506 100<15 165 15 429 278 278 278 429>
VStem: 165 113<0 506 0 506> 230 76<-97.5 -82>
LayerCount: 2
Fore
SplineSet
240 0 m 1x9c
 237 -29 l 1xbc
 275 -32 306 -49 306 -89 c 0
 306 -149 248 -161 210 -161 c 0x9a
 185 -161 157 -158 136 -154 c 1x5c
 136 -111 l 1
 199 -111 l 2
 218 -111 230 -106 230 -89 c 0
 230 -75 223 -68 200 -68 c 2
 171 -68 l 1xbc
 180 0 l 1
 165 0 l 1
 165 506 l 1
 15 506 l 1
 15 606 l 1
 429 606 l 1
 429 506 l 1
 278 506 l 1
 278 0 l 1
 240 0 l 1x9c
EndSplineSet
Substitution2: "'locl' Localized Forms in Latin lookup 2 subtable" uni021A
Substitution2: "'locl' Localized Forms in Latin lookup 1 subtable" uni021A
Substitution2: "'aalt' Access All Alternates lookup 0 subtable" uni021A
Position2: "'cpsp' Capital Spacing lookup 0 subtable" dx=5 dy=0 dh=10 dv=0
EndChar

StartChar: uni021A
Encoding: 538 538 101
Width: 443
Flags: MW
HStem: -157 108<167 210 167 276> 0 21G<165 278 165 165> 506 100<15 165 15 429 278 429 278 278>
VStem: 165 113<0 506 0 506>
LayerCount: 2
Fore
SplineSet
278 506 m 1
 278 0 l 1
 165 0 l 1
 165 506 l 1
 15 506 l 1
 15 606 l 1
 429 606 l 1
 429 506 l 1
 278 506 l 1
236 -232 m 1
 179 -232 l 1
 210 -157 l 1
 167 -157 l 1
 167 -49 l 1
 276 -49 l 1
 276 -148 l 1
 236 -232 l 1
EndSplineSet
Position2: "'cpsp' Capital Spacing lookup 0 subtable" dx=5 dy=0 dh=10 dv=0
EndChar

StartChar: U
Encoding: 85 85 102
Width: 523
Flags: MW
HStem: -11 98<232 292 232 327> 586 20G<54 167 167 167 357 470 470 470>
VStem: 54 113<190 194 194 606> 357 113<194 606>
LayerCount: 2
Fore
SplineSet
470 190 m 2
 470 58 392 -11 262 -11 c 0
 132 -11 54 58 54 190 c 2
 54 606 l 1
 167 606 l 1
 167 194 l 2
 167 124 202 87 262 87 c 0
 322 87 357 124 357 194 c 2
 357 606 l 1
 470 606 l 1
 470 190 l 2
EndSplineSet
Position2: "'cpsp' Capital Spacing lookup 0 subtable" dx=5 dy=0 dh=10 dv=0
EndChar

StartChar: Uacute
Encoding: 218 218 103
Width: 523
Flags: MW
HStem: -11 98<232 292 232 327> 586 20G<54 167 167 167 357 470 470 470> 664 117<277 288 201 383>
VStem: 54 113<190 194 194 606> 357 113<194 606>
LayerCount: 2
Fore
SplineSet
288 664 m 1
 201 664 l 1
 277 781 l 1
 383 781 l 1
 384 778 l 1
 288 664 l 1
470 190 m 2
 470 58 392 -11 262 -11 c 0
 132 -11 54 58 54 190 c 2
 54 606 l 1
 167 606 l 1
 167 194 l 2
 167 124 202 87 262 87 c 0
 322 87 357 124 357 194 c 2
 357 606 l 1
 470 606 l 1
 470 190 l 2
EndSplineSet
Position2: "'cpsp' Capital Spacing lookup 0 subtable" dx=5 dy=0 dh=10 dv=0
EndChar

StartChar: Ubreve
Encoding: 364 364 104
Width: 523
Flags: MW
HStem: -11 98<232 292 232 327> 586 20G<54 167 167 167 357 470 470 470> 686 95<144 297.5>
VStem: 54 113<190 194 194 606> 357 113<194 606>
LayerCount: 2
Fore
SplineSet
380 781 m 1
 380 736 334 686 261 686 c 0
 188 686 144 736 144 781 c 1
 210 781 l 1
 212 768 232 751 261 751 c 0
 292 751 313 768 314 781 c 1
 380 781 l 1
470 190 m 2
 470 58 392 -11 262 -11 c 0
 132 -11 54 58 54 190 c 2
 54 606 l 1
 167 606 l 1
 167 194 l 2
 167 124 202 87 262 87 c 0
 322 87 357 124 357 194 c 2
 357 606 l 1
 470 606 l 1
 470 190 l 2
EndSplineSet
Position2: "'cpsp' Capital Spacing lookup 0 subtable" dx=5 dy=0 dh=10 dv=0
EndChar

StartChar: Ucircumflex
Encoding: 219 219 105
Width: 523
Flags: MW
HStem: -11 98<232 292 232 327> 586 20G<54 167 167 167 357 470 470 470> 661 120<219 222 143 306 301 306 219 381 301 301>
VStem: 54 113<190 194 194 606> 357 113<194 606>
LayerCount: 2
Fore
SplineSet
301 661 m 1
 262 722 l 1
 222 661 l 1
 143 661 l 1
 219 781 l 1
 306 781 l 1
 381 661 l 1
 301 661 l 1
470 190 m 2
 470 58 392 -11 262 -11 c 0
 132 -11 54 58 54 190 c 2
 54 606 l 1
 167 606 l 1
 167 194 l 2
 167 124 202 87 262 87 c 0
 322 87 357 124 357 194 c 2
 357 606 l 1
 470 606 l 1
 470 190 l 2
EndSplineSet
Position2: "'cpsp' Capital Spacing lookup 0 subtable" dx=5 dy=0 dh=10 dv=0
EndChar

StartChar: Udieresis
Encoding: 220 220 106
Width: 523
Flags: MW
HStem: -11 98<232 292 232 327> 586 20G<54 167 167 167 357 470 470 470> 684 97<141 229 141 229 294 384 141 294>
VStem: 54 113<190 194 194 606> 141 88<684 781 684 781> 294 90<684 781 684 781> 357 113<194 606>
LayerCount: 2
Fore
SplineSet
141 684 m 1xec
 141 781 l 1
 229 781 l 1
 229 684 l 1
 141 684 l 1xec
294 684 m 1
 294 781 l 1
 384 781 l 1
 384 684 l 1
 294 684 l 1
470 190 m 2xf2
 470 58 392 -11 262 -11 c 0
 132 -11 54 58 54 190 c 2
 54 606 l 1
 167 606 l 1
 167 194 l 2
 167 124 202 87 262 87 c 0
 322 87 357 124 357 194 c 2
 357 606 l 1
 470 606 l 1
 470 190 l 2xf2
EndSplineSet
Position2: "'cpsp' Capital Spacing lookup 0 subtable" dx=5 dy=0 dh=10 dv=0
EndChar

StartChar: Ugrave
Encoding: 217 217 107
Width: 523
Flags: MW
HStem: -11 98<232 292 232 327> 586 20G<54 167 167 167 357 470 470 470> 664 117<235 235 235 247 141 323>
VStem: 54 113<190 194 194 606> 357 113<194 606>
LayerCount: 2
Fore
SplineSet
235 664 m 1
 140 778 l 1
 141 781 l 1
 247 781 l 1
 323 664 l 1
 235 664 l 1
470 190 m 2
 470 58 392 -11 262 -11 c 0
 132 -11 54 58 54 190 c 2
 54 606 l 1
 167 606 l 1
 167 194 l 2
 167 124 202 87 262 87 c 0
 322 87 357 124 357 194 c 2
 357 606 l 1
 470 606 l 1
 470 190 l 2
EndSplineSet
Position2: "'cpsp' Capital Spacing lookup 0 subtable" dx=5 dy=0 dh=10 dv=0
EndChar

StartChar: Uhungarumlaut
Encoding: 368 368 108
Width: 523
Flags: MW
HStem: -11 98<232 292 232 327> 586 20G<54 167 167 167 357 470 470 470> 664 117<217 232 162 305 286 286 286 305 340 355>
VStem: 54 113<190 194 194 606> 357 113<194 606>
LayerCount: 2
Fore
SplineSet
232 664 m 1
 162 664 l 1
 217 781 l 1
 305 781 l 1
 306 778 l 1
 232 664 l 1
355 664 m 1
 286 664 l 1
 340 781 l 1
 429 781 l 1
 430 778 l 1
 355 664 l 1
470 190 m 2
 470 58 392 -11 262 -11 c 0
 132 -11 54 58 54 190 c 2
 54 606 l 1
 167 606 l 1
 167 194 l 2
 167 124 202 87 262 87 c 0
 322 87 357 124 357 194 c 2
 357 606 l 1
 470 606 l 1
 470 190 l 2
EndSplineSet
Position2: "'cpsp' Capital Spacing lookup 0 subtable" dx=5 dy=0 dh=10 dv=0
EndChar

StartChar: Umacron
Encoding: 362 362 109
Width: 523
Flags: MW
HStem: -11 98<232 292 232 327> 586 20G<54 167 167 167 357 470 470 470> 671 77<149 375 149 375>
VStem: 54 113<190 194 194 606> 357 113<194 606>
LayerCount: 2
Fore
SplineSet
149 671 m 1
 149 748 l 1
 375 748 l 1
 375 671 l 1
 149 671 l 1
470 190 m 2
 470 58 392 -11 262 -11 c 0
 132 -11 54 58 54 190 c 2
 54 606 l 1
 167 606 l 1
 167 194 l 2
 167 124 202 87 262 87 c 0
 322 87 357 124 357 194 c 2
 357 606 l 1
 470 606 l 1
 470 190 l 2
EndSplineSet
Position2: "'cpsp' Capital Spacing lookup 0 subtable" dx=5 dy=0 dh=10 dv=0
EndChar

StartChar: Uogonek
Encoding: 370 370 110
Width: 523
Flags: MW
HStem: -164 61<312 391> -11 98<232 262 262 270> 586 20G<54 167 167 167 357 470 470 470>
VStem: 54 113<197 201 201 606> 245 146<-114.5 -103 -151 -68.5> 357 113<201 606>
LayerCount: 2
Fore
SplineSet
470 606 m 1xf4
 470 197 l 2xf4
 470 97 430 32 358 4 c 1
 347 -8 331 -33 331 -57 c 0
 331 -80 342 -103 371 -103 c 2
 391 -103 l 1
 391 -151 l 1
 370 -159 352 -164 332 -164 c 0
 292 -164 245 -145 245 -84 c 0xf8
 245 -53 256 -30 270 -11 c 1
 262 -11 l 2
 132 -11 54 61 54 197 c 2
 54 606 l 1
 167 606 l 1
 167 201 l 2
 167 126 202 87 262 87 c 0
 322 87 357 126 357 201 c 2
 357 606 l 1
 470 606 l 1xf4
EndSplineSet
Position2: "'cpsp' Capital Spacing lookup 0 subtable" dx=5 dy=0 dh=10 dv=0
EndChar

StartChar: Uring
Encoding: 366 366 111
Width: 523
Flags: MW
HStem: -11 98<232 292 232 327> 586 20G<54 167 167 167 357 470 470 470> 637 45<250.5 273 250.5 285.5> 763 44<250.5 273>
VStem: 54 113<190 194 194 606> 177 44<710.5 733.5 710.5 745.5> 302 45<710.5 733.5> 357 113<194 606>
LayerCount: 2
Fore
SplineSet
262 807 m 0
 309 807 347 768 347 722 c 0
 347 675 309 637 262 637 c 0
 216 637 177 674 177 722 c 0
 177 769 215 807 262 807 c 0
262 763 m 0
 239 763 221 745 221 722 c 0
 221 699 239 682 262 682 c 0
 284 682 302 699 302 722 c 0
 302 745 284 763 262 763 c 0
470 190 m 2xf9
 470 58 392 -11 262 -11 c 0
 132 -11 54 58 54 190 c 2
 54 606 l 1
 167 606 l 1
 167 194 l 2
 167 124 202 87 262 87 c 0
 322 87 357 124 357 194 c 2
 357 606 l 1
 470 606 l 1
 470 190 l 2xf9
EndSplineSet
Position2: "'cpsp' Capital Spacing lookup 0 subtable" dx=5 dy=0 dh=10 dv=0
EndChar

StartChar: Utilde
Encoding: 360 360 112
Width: 523
Flags: MW
HStem: -11 98<232 292 232 327> 586 20G<54 167 167 167 357 470 470 470> 673 75<301.5 326.5 297.5 354> 705 76<196.5 221.5 169 226>
VStem: 54 113<190 194 194 606> 357 113<194 606>
LayerCount: 2
Fore
SplineSet
410 781 m 1xdc
 410 732 385 673 323 673 c 0xec
 280 673 246 705 206 705 c 0xdc
 187 705 175 697 171 673 c 1
 113 673 l 1xec
 113 721 138 781 200 781 c 0xdc
 243 781 278 748 317 748 c 0xec
 336 748 348 756 352 781 c 1
 410 781 l 1xdc
470 190 m 2xec
 470 58 392 -11 262 -11 c 0
 132 -11 54 58 54 190 c 2
 54 606 l 1
 167 606 l 1
 167 194 l 2
 167 124 202 87 262 87 c 0
 322 87 357 124 357 194 c 2
 357 606 l 1
 470 606 l 1
 470 190 l 2xec
EndSplineSet
Position2: "'cpsp' Capital Spacing lookup 0 subtable" dx=5 dy=0 dh=10 dv=0
EndChar

StartChar: V
Encoding: 86 86 113
Width: 484
Flags: MW
HStem: 0 21G<185 299 185 185> 0 172<244 248 244 299 185 248> 586 20G<0 117 117 117 373 484 484 484>
VStem: 0 484<606 606>
LayerCount: 2
Fore
SplineSet
0 606 m 1xb0
 117 606 l 1
 244 172 l 1
 248 172 l 1x70
 373 606 l 1
 484 606 l 1
 299 0 l 1
 185 0 l 1
 0 606 l 1xb0
EndSplineSet
Position2: "'cpsp' Capital Spacing lookup 0 subtable" dx=5 dy=0 dh=10 dv=0
EndChar

StartChar: W
Encoding: 87 87 114
Width: 684
Flags: MW
HStem: 0 21G<132 246 132 132 438 438 438 552> 0 149<196 200 196 246 132 200 497 500> 472 134<339 343 339 339> 586 20G<0 112 112 112 285 413 413 413 586 683 683 683>
VStem: 0 683<606 606>
LayerCount: 2
Fore
SplineSet
355 386 m 2xa8
 348 417 343 472 343 472 c 1
 339 472 l 1
 339 472 332 412 327 386 c 2xa8
 246 0 l 1
 132 0 l 1
 0 606 l 1
 112 606 l 1
 185 233 l 2
 190 207 196 149 196 149 c 1
 200 149 l 1
 200 149 206 208 211 233 c 2
 285 606 l 1
 413 606 l 1
 485 233 l 2
 490 210 497 149 497 149 c 1
 500 149 l 1
 500 149 506 203 512 233 c 2x58
 586 606 l 1
 683 606 l 1
 552 0 l 1
 438 0 l 1
 355 386 l 2xa8
EndSplineSet
Position2: "'cpsp' Capital Spacing lookup 0 subtable" dx=5 dy=0 dh=10 dv=0
EndChar

StartChar: Wacute
Encoding: 7810 7810 115
Width: 684
Flags: MW
HStem: 0 21G<132 246 132 132 438 552 438 438> 0 149<196 200 196 246 132 200 497 500> 472 134<339 343 339 339> 586 20G<0 112 112 112 285 413 413 413 586 683 683 683> 664 117<357 369 281 463>
VStem: 0 683<606 606>
LayerCount: 2
Fore
SplineSet
369 664 m 1x9c
 281 664 l 1
 357 781 l 1
 463 781 l 1
 464 778 l 1
 369 664 l 1x9c
438 0 m 1
 355 386 l 2
 348 417 343 472 343 472 c 1
 339 472 l 1
 339 472 332 412 327 386 c 2xac
 246 0 l 1
 132 0 l 1
 0 606 l 1
 112 606 l 1
 185 233 l 2
 190 207 196 149 196 149 c 1
 200 149 l 1
 200 149 206 208 211 233 c 2
 285 606 l 1
 413 606 l 1
 485 233 l 2
 490 210 497 149 497 149 c 1
 500 149 l 1
 500 149 506 203 512 233 c 2x5c
 586 606 l 1
 683 606 l 1
 552 0 l 1
 438 0 l 1
EndSplineSet
Position2: "'cpsp' Capital Spacing lookup 0 subtable" dx=5 dy=0 dh=10 dv=0
EndChar

StartChar: Wcircumflex
Encoding: 372 372 116
Width: 684
Flags: MW
HStem: 0 21G<132 246 132 132 438 438 438 552> 0 149<196 200 196 246 132 200 497 500> 472 134<339 343 339 339> 586 20G<0 112 112 112 285 413 413 413 586 683 683 683> 661 120<300 303 224 386 382 382 382 386 300 461>
VStem: 0 683<606 606>
LayerCount: 2
Fore
SplineSet
343 722 m 1x9c
 303 661 l 1
 224 661 l 1
 300 781 l 1
 386 781 l 1
 461 661 l 1
 382 661 l 1
 343 722 l 1x9c
355 386 m 2xac
 348 417 343 472 343 472 c 1
 339 472 l 1
 339 472 332 412 327 386 c 2xac
 246 0 l 1
 132 0 l 1
 0 606 l 1
 112 606 l 1
 185 233 l 2
 190 207 196 149 196 149 c 1
 200 149 l 1
 200 149 206 208 211 233 c 2
 285 606 l 1
 413 606 l 1
 485 233 l 2
 490 210 497 149 497 149 c 1
 500 149 l 1
 500 149 506 203 512 233 c 2x5c
 586 606 l 1
 683 606 l 1
 552 0 l 1
 438 0 l 1
 355 386 l 2xac
EndSplineSet
Position2: "'cpsp' Capital Spacing lookup 0 subtable" dx=5 dy=0 dh=10 dv=0
EndChar

StartChar: Wdieresis
Encoding: 7812 7812 117
Width: 684
Flags: MW
HStem: 0 21G<132 246 132 132 438 552 438 438> 0 149<196 200 196 246 132 200 497 500> 472 134<339 343 339 339> 586 20G<0 112 112 112 285 413 413 413 586 683 683 683> 684 97<221 309 221 309 376 464 221 376>
VStem: 221 88<684 781 684 781> 376 88<684 781 684 781>
LayerCount: 2
Fore
SplineSet
221 684 m 1x9e
 221 781 l 1
 309 781 l 1
 309 684 l 1
 221 684 l 1x9e
376 684 m 1
 376 781 l 1
 464 781 l 1
 464 684 l 1
 376 684 l 1
438 0 m 1
 355 386 l 2
 348 417 343 472 343 472 c 1
 339 472 l 1
 339 472 332 412 327 386 c 2xae
 246 0 l 1
 132 0 l 1
 0 606 l 1
 112 606 l 1
 185 233 l 2
 190 207 196 149 196 149 c 1
 200 149 l 1
 200 149 206 208 211 233 c 2
 285 606 l 1
 413 606 l 1
 485 233 l 2
 490 210 497 149 497 149 c 1
 500 149 l 1
 500 149 506 203 512 233 c 2x5e
 586 606 l 1
 683 606 l 1
 552 0 l 1
 438 0 l 1
EndSplineSet
Position2: "'cpsp' Capital Spacing lookup 0 subtable" dx=5 dy=0 dh=10 dv=0
EndChar

StartChar: Wgrave
Encoding: 7808 7808 118
Width: 684
Flags: MW
HStem: 0 21G<132 246 132 132 438 552 438 438> 0 149<196 200 196 246 132 200 497 500> 472 134<339 343 339 339> 586 20G<0 112 112 112 285 413 413 413 586 683 683 683> 664 117<316 316 316 327 221 403>
VStem: 0 683<606 606>
LayerCount: 2
Fore
SplineSet
316 664 m 1x9c
 220 778 l 1
 221 781 l 1
 327 781 l 1
 403 664 l 1
 316 664 l 1x9c
438 0 m 1
 355 386 l 2
 348 417 343 472 343 472 c 1
 339 472 l 1
 339 472 332 412 327 386 c 2xac
 246 0 l 1
 132 0 l 1
 0 606 l 1
 112 606 l 1
 185 233 l 2
 190 207 196 149 196 149 c 1
 200 149 l 1
 200 149 206 208 211 233 c 2
 285 606 l 1
 413 606 l 1
 485 233 l 2
 490 210 497 149 497 149 c 1
 500 149 l 1
 500 149 506 203 512 233 c 2x5c
 586 606 l 1
 683 606 l 1
 552 0 l 1
 438 0 l 1
EndSplineSet
Position2: "'cpsp' Capital Spacing lookup 0 subtable" dx=5 dy=0 dh=10 dv=0
EndChar

StartChar: X
Encoding: 88 88 119
Width: 484
Flags: MW
HStem: 0 21G<0 118 0 0 357 483 357 357> 586 20G<16 142 142 142 349 467 467 467>
VStem: 0 483<0 0>
LayerCount: 2
Fore
SplineSet
483 0 m 1
 357 0 l 1
 239 229 l 1
 235 229 l 1
 118 0 l 1
 0 0 l 1
 171 318 l 1
 16 606 l 1
 142 606 l 1
 244 408 l 1
 248 408 l 1
 349 606 l 1
 467 606 l 1
 310 320 l 1
 483 0 l 1
EndSplineSet
Position2: "'cpsp' Capital Spacing lookup 0 subtable" dx=5 dy=0 dh=10 dv=0
EndChar

StartChar: Y
Encoding: 89 89 120
Width: 484
Flags: MW
HStem: 0 21G<186 186 186 299> 586 20G<0 119 119 119 370 484 484 484>
VStem: 186 113<0 229 0 229>
LayerCount: 2
Fore
SplineSet
186 0 m 1
 186 229 l 1
 0 606 l 1
 119 606 l 1
 243 340 l 1
 247 340 l 1
 370 606 l 1
 484 606 l 1
 299 229 l 1
 299 0 l 1
 186 0 l 1
EndSplineSet
Position2: "'cpsp' Capital Spacing lookup 0 subtable" dx=5 dy=0 dh=10 dv=0
EndChar

StartChar: Yacute
Encoding: 221 221 121
Width: 484
Flags: MW
HStem: 0 21G<186 299 186 186> 586 20G<0 119 119 119 370 484 484 484> 664 117<257 269 181 363>
VStem: 186 113<0 229>
LayerCount: 2
Fore
SplineSet
269 664 m 1
 181 664 l 1
 257 781 l 1
 363 781 l 1
 364 778 l 1
 269 664 l 1
299 0 m 1
 186 0 l 1
 186 229 l 1
 0 606 l 1
 119 606 l 1
 243 340 l 1
 247 340 l 1
 370 606 l 1
 484 606 l 1
 299 229 l 1
 299 0 l 1
EndSplineSet
Position2: "'cpsp' Capital Spacing lookup 0 subtable" dx=5 dy=0 dh=10 dv=0
EndChar

StartChar: Ycircumflex
Encoding: 374 374 122
Width: 484
Flags: MW
HStem: 0 21G<186 186 186 299> 586 20G<0 119 119 119 370 484 484 484> 661 120<199 202 123 286 281 281 281 286 199 361>
VStem: 186 113<0 229 0 229>
LayerCount: 2
Fore
SplineSet
242 722 m 1
 202 661 l 1
 123 661 l 1
 199 781 l 1
 286 781 l 1
 361 661 l 1
 281 661 l 1
 242 722 l 1
186 0 m 1
 186 229 l 1
 0 606 l 1
 119 606 l 1
 243 340 l 1
 247 340 l 1
 370 606 l 1
 484 606 l 1
 299 229 l 1
 299 0 l 1
 186 0 l 1
EndSplineSet
Position2: "'cpsp' Capital Spacing lookup 0 subtable" dx=5 dy=0 dh=10 dv=0
EndChar

StartChar: Ydieresis
Encoding: 376 376 123
Width: 484
Flags: MW
HStem: 0 21G<186 299 186 186> 586 20G<0 119 119 119 370 484 484 484> 684 97<120 209 120 209 275 363 120 275>
VStem: 120 89<684 781 684 781> 186 113<0 229> 275 88<684 781 684 781>
LayerCount: 2
Fore
SplineSet
120 684 m 1xf4
 120 781 l 1
 209 781 l 1
 209 684 l 1
 120 684 l 1xf4
275 684 m 1
 275 781 l 1
 363 781 l 1
 363 684 l 1
 275 684 l 1
299 0 m 1xe8
 186 0 l 1
 186 229 l 1
 0 606 l 1
 119 606 l 1
 243 340 l 1
 247 340 l 1
 370 606 l 1
 484 606 l 1
 299 229 l 1
 299 0 l 1xe8
EndSplineSet
Position2: "'cpsp' Capital Spacing lookup 0 subtable" dx=5 dy=0 dh=10 dv=0
EndChar

StartChar: Ygrave
Encoding: 7922 7922 124
Width: 484
Flags: MW
HStem: 0 21G<186 299 186 186> 586 20G<0 119 119 119 370 484 484 484> 664 117<215 215 215 226 120 302>
VStem: 186 113<0 229>
LayerCount: 2
Fore
SplineSet
215 664 m 1
 119 778 l 1
 120 781 l 1
 226 781 l 1
 302 664 l 1
 215 664 l 1
299 0 m 1
 186 0 l 1
 186 229 l 1
 0 606 l 1
 119 606 l 1
 243 340 l 1
 247 340 l 1
 370 606 l 1
 484 606 l 1
 299 229 l 1
 299 0 l 1
EndSplineSet
Position2: "'cpsp' Capital Spacing lookup 0 subtable" dx=5 dy=0 dh=10 dv=0
EndChar

StartChar: Z
Encoding: 90 90 125
Width: 443
Flags: MW
HStem: 0 101<169 424 169 424> 506 100<33 263 33 418>
VStem: 14 410<0 43 43 43>
LayerCount: 2
Fore
SplineSet
169 101 m 1
 424 101 l 1
 424 0 l 1
 14 0 l 1
 14 43 l 1
 263 506 l 1
 33 506 l 1
 33 606 l 1
 418 606 l 1
 418 562 l 1
 169 101 l 1
EndSplineSet
Position2: "'cpsp' Capital Spacing lookup 0 subtable" dx=5 dy=0 dh=10 dv=0
EndChar

StartChar: Zacute
Encoding: 377 377 126
Width: 443
Flags: MW
HStem: 0 101<169 424 169 424> 506 100<33 263 33 418> 664 117<237 248 161 343>
VStem: 14 410<0 43 43 43>
LayerCount: 2
Fore
SplineSet
248 664 m 1
 161 664 l 1
 237 781 l 1
 343 781 l 1
 344 778 l 1
 248 664 l 1
169 101 m 1
 424 101 l 1
 424 0 l 1
 14 0 l 1
 14 43 l 1
 263 506 l 1
 33 506 l 1
 33 606 l 1
 418 606 l 1
 418 562 l 1
 169 101 l 1
EndSplineSet
Position2: "'cpsp' Capital Spacing lookup 0 subtable" dx=5 dy=0 dh=10 dv=0
EndChar

StartChar: Zcaron
Encoding: 381 381 127
Width: 443
Flags: MW
HStem: 0 101<169 424 169 424> 506 100<33 263 33 418> 661 120<179 179 179 182 261 265>
VStem: 14 410<0 43 43 43>
LayerCount: 2
Fore
SplineSet
179 661 m 1
 103 781 l 1
 182 781 l 1
 222 720 l 1
 261 781 l 1
 340 781 l 1
 265 661 l 1
 179 661 l 1
169 101 m 1
 424 101 l 1
 424 0 l 1
 14 0 l 1
 14 43 l 1
 263 506 l 1
 33 506 l 1
 33 606 l 1
 418 606 l 1
 418 562 l 1
 169 101 l 1
EndSplineSet
Position2: "'cpsp' Capital Spacing lookup 0 subtable" dx=5 dy=0 dh=10 dv=0
EndChar

StartChar: Zdotaccent
Encoding: 379 379 128
Width: 443
Flags: MW
HStem: 0 101<169 424 169 424> 506 100<33 263 33 418> 679 102<174 269 174 269>
VStem: 174 95<679 781 679 781>
LayerCount: 2
Fore
SplineSet
174 679 m 1
 174 781 l 1
 269 781 l 1
 269 679 l 1
 174 679 l 1
169 101 m 1
 424 101 l 1
 424 0 l 1
 14 0 l 1
 14 43 l 1
 263 506 l 1
 33 506 l 1
 33 606 l 1
 418 606 l 1
 418 562 l 1
 169 101 l 1
EndSplineSet
Position2: "'cpsp' Capital Spacing lookup 0 subtable" dx=5 dy=0 dh=10 dv=0
EndChar

StartChar: a
Encoding: 97 97 129
Width: 403
Flags: MW
HStem: -11 89<155 160> 206 77<212 243> 389 87<172.5 214.5>
VStem: 12 109<114 160 114 183> 34 105<327 385.5> 243 107<179 206 206 206 283 331 331 339>
LayerCount: 2
Fore
SplineSet
35 327 m 1xec
 34 332 34 339 34 347 c 0xec
 34 424 96 476 192 476 c 0
 300 476 350 425 350 339 c 2
 350 110 l 2
 350 88 362 79 375 79 c 2
 396 79 l 1
 396 4 l 1
 385 -3 365 -11 333 -11 c 0
 291 -11 262 14 251 50 c 1
 247 50 l 1
 220 13 191 -11 129 -11 c 0
 86 -11 12 12 12 120 c 0xf4
 12 246 108 283 243 283 c 1
 243 331 l 2
 243 363 235 389 194 389 c 0
 151 389 139 362 139 340 c 2
 139 327 l 1
 35 327 l 1xec
243 206 m 1xf4
 181 206 121 190 121 130 c 0
 121 98 137 78 173 78 c 0
 224 78 243 125 243 179 c 2
 243 206 l 1xf4
EndSplineSet
Substitution2: "Single Substitution lookup 14 subtable" ordfeminine
Substitution2: "'aalt' Access All Alternates lookup 0 subtable" ordfeminine
EndChar

StartChar: aacute
Encoding: 225 225 130
Width: 403
Flags: MW
HStem: -11 89<155 160> 206 77<212 243> 389 87<172.5 214.5> 522 117<207 218 131 313>
VStem: 12 109<114 160 114 183> 34 105<327 385.5> 243 107<179 206 206 206 283 331 331 339>
LayerCount: 2
Fore
SplineSet
218 522 m 1xfa
 131 522 l 1
 207 639 l 1
 313 639 l 1
 314 636 l 1
 218 522 l 1xfa
35 327 m 1xf6
 34 332 34 339 34 347 c 0xf6
 34 424 96 476 192 476 c 0
 300 476 350 425 350 339 c 2
 350 110 l 2
 350 88 362 79 375 79 c 2
 396 79 l 1
 396 4 l 1
 385 -3 365 -11 333 -11 c 0
 291 -11 262 14 251 50 c 1
 247 50 l 1
 220 13 191 -11 129 -11 c 0
 86 -11 12 12 12 120 c 0xfa
 12 246 108 283 243 283 c 1
 243 331 l 2
 243 363 235 389 194 389 c 0
 151 389 139 362 139 340 c 2
 139 327 l 1
 35 327 l 1xf6
243 206 m 1xfa
 181 206 121 190 121 130 c 0
 121 98 137 78 173 78 c 0
 224 78 243 125 243 179 c 2
 243 206 l 1xfa
EndSplineSet
EndChar

StartChar: abreve
Encoding: 259 259 131
Width: 403
Flags: MW
HStem: -11 89<155 160> 206 77<212 243> 389 87<172.5 214.5> 545 65<177 206 177 227.5> 545 94<73 227.5>
VStem: 12 109<114 160 114 183> 34 105<327 385.5> 243 107<179 206 206 206 283 331 331 339>
LayerCount: 2
Fore
SplineSet
310 639 m 1xed
 310 595 264 545 191 545 c 0
 118 545 73 595 73 639 c 1
 140 639 l 1xed
 142 627 163 610 191 610 c 0xf5
 221 610 242 627 244 639 c 1
 310 639 l 1xed
35 327 m 1xeb
 34 332 34 339 34 347 c 0xeb
 34 424 96 476 192 476 c 0
 300 476 350 425 350 339 c 2
 350 110 l 2
 350 88 362 79 375 79 c 2
 396 79 l 1
 396 4 l 1
 385 -3 365 -11 333 -11 c 0
 291 -11 262 14 251 50 c 1
 247 50 l 1
 220 13 191 -11 129 -11 c 0
 86 -11 12 12 12 120 c 0xed
 12 246 108 283 243 283 c 1
 243 331 l 2
 243 363 235 389 194 389 c 0
 151 389 139 362 139 340 c 2
 139 327 l 1
 35 327 l 1xeb
243 206 m 1xed
 181 206 121 190 121 130 c 0
 121 98 137 78 173 78 c 0
 224 78 243 125 243 179 c 2
 243 206 l 1xed
EndSplineSet
EndChar

StartChar: acircumflex
Encoding: 226 226 132
Width: 403
Flags: MW
HStem: -11 89<155 160> 206 77<212 243> 389 87<172.5 214.5> 520 119<149 152 73 236 232 232 232 236 149 311> 581 58<192 192>
VStem: 12 109<114 160 114 183> 34 105<327 385.5> 243 107<179 206 206 206 283 331 331 339>
LayerCount: 2
Fore
SplineSet
192 581 m 1xed
 152 520 l 1
 73 520 l 1
 149 639 l 1
 236 639 l 1
 311 520 l 1
 232 520 l 1xf3
 192 581 l 1xed
35 327 m 1
 34 332 34 339 34 347 c 0xf3
 34 424 96 476 192 476 c 0
 300 476 350 425 350 339 c 2
 350 110 l 2
 350 88 362 79 375 79 c 2
 396 79 l 1
 396 4 l 1
 385 -3 365 -11 333 -11 c 0
 291 -11 262 14 251 50 c 1
 247 50 l 1
 220 13 191 -11 129 -11 c 0
 86 -11 12 12 12 120 c 0xf5
 12 246 108 283 243 283 c 1
 243 331 l 2
 243 363 235 389 194 389 c 0
 151 389 139 362 139 340 c 2
 139 327 l 1
 35 327 l 1
243 206 m 1xf5
 181 206 121 190 121 130 c 0
 121 98 137 78 173 78 c 0
 224 78 243 125 243 179 c 2
 243 206 l 1xf5
EndSplineSet
EndChar

StartChar: adieresis
Encoding: 228 228 133
Width: 403
Flags: MW
HStem: -11 89<155 160> 206 77<212 243> 389 87<172.5 214.5> 543 96<71 159 71 159 225 313 71 225>
VStem: 12 109<114 160 114 183> 34 105<327 385.5> 71 88<543 639 543 639> 225 88<543 639 543 639> 243 107<179 206 206 206 283 331 331 339>
LayerCount: 2
Fore
SplineSet
71 543 m 1xf280
 71 639 l 1
 159 639 l 1
 159 543 l 1
 71 543 l 1xf280
225 543 m 1xf5
 225 639 l 1
 313 639 l 1
 313 543 l 1
 225 543 l 1xf5
35 327 m 1
 34 332 34 339 34 347 c 0xf480
 34 424 96 476 192 476 c 0
 300 476 350 425 350 339 c 2
 350 110 l 2
 350 88 362 79 375 79 c 2
 396 79 l 1
 396 4 l 1
 385 -3 365 -11 333 -11 c 0
 291 -11 262 14 251 50 c 1
 247 50 l 1
 220 13 191 -11 129 -11 c 0
 86 -11 12 12 12 120 c 0
 12 246 108 283 243 283 c 1
 243 331 l 2xf880
 243 363 235 389 194 389 c 0
 151 389 139 362 139 340 c 2
 139 327 l 1
 35 327 l 1
243 206 m 1xf880
 181 206 121 190 121 130 c 0
 121 98 137 78 173 78 c 0
 224 78 243 125 243 179 c 2
 243 206 l 1xf880
EndSplineSet
EndChar

StartChar: agrave
Encoding: 224 224 134
Width: 403
Flags: MW
HStem: -11 89<155 160> 206 77<212 243> 389 87<172.5 214.5> 522 117<165 165 165 177 71 253>
VStem: 12 109<114 160 114 183> 34 105<327 385.5> 243 107<179 206 206 206 283 331 331 339>
LayerCount: 2
Fore
SplineSet
165 522 m 1xfa
 70 636 l 1
 71 639 l 1
 177 639 l 1
 253 522 l 1
 165 522 l 1xfa
35 327 m 1xf6
 34 332 34 339 34 347 c 0xf6
 34 424 96 476 192 476 c 0
 300 476 350 425 350 339 c 2
 350 110 l 2
 350 88 362 79 375 79 c 2
 396 79 l 1
 396 4 l 1
 385 -3 365 -11 333 -11 c 0
 291 -11 262 14 251 50 c 1
 247 50 l 1
 220 13 191 -11 129 -11 c 0
 86 -11 12 12 12 120 c 0xfa
 12 246 108 283 243 283 c 1
 243 331 l 2
 243 363 235 389 194 389 c 0
 151 389 139 362 139 340 c 2
 139 327 l 1
 35 327 l 1xf6
243 206 m 1xfa
 181 206 121 190 121 130 c 0
 121 98 137 78 173 78 c 0
 224 78 243 125 243 179 c 2
 243 206 l 1xfa
EndSplineSet
EndChar

StartChar: amacron
Encoding: 257 257 135
Width: 403
Flags: MW
HStem: -11 89<155 160> 206 77<212 243> 389 87<172.5 214.5> 530 76<79 305 79 305>
VStem: 12 109<114 160 114 183> 34 105<327 385.5> 79 226<530 606 530 606> 243 107<179 206 206 206 283 331 331 339>
LayerCount: 2
Fore
SplineSet
79 606 m 1xf2
 305 606 l 1
 305 530 l 1
 79 530 l 1
 79 606 l 1xf2
35 327 m 1xf5
 34 332 34 339 34 347 c 0xf5
 34 424 96 476 192 476 c 0
 300 476 350 425 350 339 c 2
 350 110 l 2
 350 88 362 79 375 79 c 2
 396 79 l 1
 396 4 l 1
 385 -3 365 -11 333 -11 c 0
 291 -11 262 14 251 50 c 1
 247 50 l 1
 220 13 191 -11 129 -11 c 0
 86 -11 12 12 12 120 c 0xf9
 12 246 108 283 243 283 c 1
 243 331 l 2
 243 363 235 389 194 389 c 0
 151 389 139 362 139 340 c 2
 139 327 l 1
 35 327 l 1xf5
243 206 m 1xf9
 181 206 121 190 121 130 c 0
 121 98 137 78 173 78 c 0
 224 78 243 125 243 179 c 2
 243 206 l 1xf9
EndSplineSet
EndChar

StartChar: aogonek
Encoding: 261 261 136
Width: 403
Flags: MW
HStem: -164 61<350.5 429> -11 89<155 160> -8 21G 206 77<212 243> 389 87<172.5 214.5>
VStem: 12 109<114 160 114 183> 34 105<327 385.5> 243 107<179 206 206 206 283 331 331 339> 283 146<-115.5 -103 -152 -67.5>
LayerCount: 2
Fore
SplineSet
429 -152 m 1xbc80
 408 -160 390 -164 370 -164 c 0
 331 -164 283 -146 283 -85 c 0
 283 -50 294 -27 310 -8 c 1xbc80
 280 -1 260 21 251 50 c 1
 247 50 l 1
 220 13 191 -11 129 -11 c 0
 86 -11 12 12 12 120 c 0xdc80
 12 246 108 283 243 283 c 1
 243 331 l 2
 243 363 235 389 194 389 c 0
 151 389 139 362 139 340 c 2
 139 327 l 1
 35 327 l 1
 34 332 34 339 34 347 c 0
 34 424 96 476 192 476 c 0
 300 476 350 425 350 339 c 2
 350 110 l 2
 350 88 362 79 375 79 c 2xbb
 396 79 l 1
 396 4 l 1
 386 -9 370 -34 370 -58 c 0
 370 -81 380 -103 409 -103 c 2
 429 -103 l 1
 429 -152 l 1xbc80
243 206 m 1xdd
 181 206 121 190 121 130 c 0
 121 98 137 78 173 78 c 0
 224 78 243 125 243 179 c 2
 243 206 l 1xdd
EndSplineSet
EndChar

StartChar: aring
Encoding: 229 229 137
Width: 403
Flags: MW
HStem: -11 89<155 160> 206 77<212 243> 389 87<172.5 214.5> 496 44<180.5 203 180.5 215.5> 621 45<180.5 203>
VStem: 12 109<114 160 114 183> 34 105<327 385.5> 107 44<569.5 592.5 569.5 604.5> 232 45<569.5 592.5> 243 107<179 206 206 206 283 331 331 339>
LayerCount: 2
Fore
SplineSet
192 666 m 0xf980
 240 666 277 627 277 581 c 0
 277 534 239 496 192 496 c 0
 146 496 107 533 107 581 c 0
 107 628 145 666 192 666 c 0xf980
192 621 m 0
 169 621 151 604 151 581 c 0
 151 558 169 540 192 540 c 0
 214 540 232 558 232 581 c 0
 232 604 214 621 192 621 c 0
35 327 m 1xea40
 34 332 34 339 34 347 c 0xea40
 34 424 96 476 192 476 c 0
 300 476 350 425 350 339 c 2
 350 110 l 2
 350 88 362 79 375 79 c 2
 396 79 l 1
 396 4 l 1
 385 -3 365 -11 333 -11 c 0
 291 -11 262 14 251 50 c 1
 247 50 l 1
 220 13 191 -11 129 -11 c 0
 86 -11 12 12 12 120 c 0xec40
 12 246 108 283 243 283 c 1
 243 331 l 2
 243 363 235 389 194 389 c 0
 151 389 139 362 139 340 c 2
 139 327 l 1
 35 327 l 1xea40
243 206 m 1xec40
 181 206 121 190 121 130 c 0
 121 98 137 78 173 78 c 0
 224 78 243 125 243 179 c 2
 243 206 l 1xec40
EndSplineSet
EndChar

StartChar: aringacute
Encoding: 507 507 138
Width: 442
Flags: MW
HStem: -11 89<155 160> 206 77<212 243> 389 87<172.5 214.5> 496 42<180.5 203 180.5 215.5> 617 43<180.5 203> 679 102<220 241 154 326>
VStem: 12 109<114 160 114 183> 34 105<327 385.5> 107 44<566.5 589 566.5 600.5> 232 45<566.5 589> 243 107<179 206 206 206 283 331 331 339>
LayerCount: 2
Fore
SplineSet
241 679 m 1xe4a0
 154 679 l 1
 220 781 l 1
 326 781 l 1
 327 778 l 1
 241 679 l 1xe4a0
192 660 m 0xfcc0
 240 660 277 622 277 578 c 0
 277 533 239 496 192 496 c 0
 146 496 107 532 107 578 c 0
 107 623 145 660 192 660 c 0xfcc0
192 617 m 0
 169 617 151 600 151 578 c 0
 151 555 169 538 192 538 c 0
 214 538 232 555 232 578 c 0
 232 600 214 617 192 617 c 0
35 327 m 1xe520
 34 332 34 339 34 347 c 0xe520
 34 424 96 476 192 476 c 0
 300 476 350 425 350 339 c 2
 350 110 l 2
 350 88 362 79 375 79 c 2
 396 79 l 1
 396 4 l 1
 385 -3 365 -11 333 -11 c 0
 291 -11 262 14 251 50 c 1
 247 50 l 1
 220 13 191 -11 129 -11 c 0
 86 -11 12 12 12 120 c 0xe620
 12 246 108 283 243 283 c 1
 243 331 l 2
 243 363 235 389 194 389 c 0
 151 389 139 362 139 340 c 2
 139 327 l 1
 35 327 l 1xe520
243 206 m 1xe620
 181 206 121 190 121 130 c 0
 121 98 137 78 173 78 c 0
 224 78 243 125 243 179 c 2
 243 206 l 1xe620
EndSplineSet
EndChar

StartChar: atilde
Encoding: 227 227 139
Width: 403
Flags: MW
HStem: -11 89<155 160> 206 77<212 243> 389 87<172.5 214.5> 531 75<231.5 257 228 284.5> 564 75<127 151.5 99 156>
VStem: 12 109<114 160 114 183> 34 105<327 385.5> 243 107<179 206 206 206 283 331 331 339>
LayerCount: 2
Fore
SplineSet
340 639 m 1xed
 340 591 316 531 253 531 c 0xf5
 210 531 176 564 136 564 c 0xed
 118 564 105 555 102 531 c 1
 43 531 l 1
 43 580 68 639 130 639 c 0
 173 639 208 606 248 606 c 0xf5
 266 606 278 614 282 639 c 1
 340 639 l 1xed
35 327 m 1xf3
 34 332 34 339 34 347 c 0xf3
 34 424 96 476 192 476 c 0
 300 476 350 425 350 339 c 2
 350 110 l 2
 350 88 362 79 375 79 c 2
 396 79 l 1
 396 4 l 1
 385 -3 365 -11 333 -11 c 0
 291 -11 262 14 251 50 c 1
 247 50 l 1
 220 13 191 -11 129 -11 c 0
 86 -11 12 12 12 120 c 0xf5
 12 246 108 283 243 283 c 1
 243 331 l 2
 243 363 235 389 194 389 c 0
 151 389 139 362 139 340 c 2
 139 327 l 1
 35 327 l 1xf3
243 206 m 1xf5
 181 206 121 190 121 130 c 0
 121 98 137 78 173 78 c 0
 224 78 243 125 243 179 c 2
 243 206 l 1xf5
EndSplineSet
EndChar

StartChar: ae
Encoding: 230 230 140
Width: 644
Flags: MW
HStem: -11 87<419.5 464 419.5 493> 206 77<232.5 263 375 499> 389 87<193 235 419.5 461.5>
VStem: 33 108<114 160 114 183> 55 104<327 385.5> 263 111<179 206 206 206 206 331> 499 111
LayerCount: 2
Fore
SplineSet
56 327 m 1xee
 55 332 55 339 55 347 c 0xee
 55 424 117 476 212 476 c 0
 265 476 305 460 331 431 c 1
 360 461 397 476 442 476 c 0
 554 476 610 400 610 232 c 2
 610 206 l 1
 374 206 l 1
 375 123 393 76 446 76 c 0
 482 76 505 109 505 164 c 1
 610 164 l 1
 610 45 540 -11 446 -11 c 0
 384 -11 337 10 307 52 c 1
 273 15 232 -11 167 -11 c 0
 117 -11 33 12 33 120 c 0xf6
 33 246 128 283 263 283 c 1
 263 331 l 2
 263 363 255 389 215 389 c 0
 171 389 159 362 159 340 c 2
 159 327 l 1
 56 327 l 1xee
499 283 m 1xf6
 499 350 481 389 442 389 c 0
 397 389 378 350 375 283 c 1
 499 283 l 1xf6
263 206 m 1
 202 206 141 190 141 130 c 0
 141 98 157 78 194 78 c 0
 244 78 263 125 263 179 c 2
 263 206 l 1
EndSplineSet
EndChar

StartChar: aeacute
Encoding: 509 509 141
Width: 644
Flags: MW
HStem: -11 87<419.5 464 419.5 493> 206 77<232.5 263 375 499> 389 87<193 235 419.5 461.5> 522 117<338 349 262 444>
VStem: 33 108<114 160 114 183> 55 104<327 385.5> 263 111<179 206 206 206 206 331> 499 111
LayerCount: 2
Fore
SplineSet
349 522 m 1xfb
 262 522 l 1
 338 639 l 1
 444 639 l 1
 445 636 l 1
 349 522 l 1xfb
56 327 m 1xf7
 55 332 55 339 55 347 c 0xf7
 55 424 117 476 212 476 c 0
 265 476 305 460 331 431 c 1
 360 461 397 476 442 476 c 0
 554 476 610 400 610 232 c 2
 610 206 l 1
 374 206 l 1
 375 123 393 76 446 76 c 0
 482 76 505 109 505 164 c 1
 610 164 l 1
 610 45 540 -11 446 -11 c 0
 384 -11 337 10 307 52 c 1
 273 15 232 -11 167 -11 c 0
 117 -11 33 12 33 120 c 0xfb
 33 246 128 283 263 283 c 1
 263 331 l 2
 263 363 255 389 215 389 c 0
 171 389 159 362 159 340 c 2
 159 327 l 1
 56 327 l 1xf7
499 283 m 1xfb
 499 350 481 389 442 389 c 0
 397 389 378 350 375 283 c 1
 499 283 l 1xfb
263 206 m 1
 202 206 141 190 141 130 c 0
 141 98 157 78 194 78 c 0
 244 78 263 125 263 179 c 2
 263 206 l 1
EndSplineSet
EndChar

StartChar: b
Encoding: 98 98 142
Width: 443
Flags: MW
HStem: -11 97<235 251 199.5 303> 0 86<49 251> 57 29 379 97<239.5 251> 619 20G<49 155 155 155>
VStem: 49 106<174 216 216 248 417 639> 296 111<216 249 249 291>
LayerCount: 2
Fore
SplineSet
159 417 m 1x9e
 176 454 216 476 263 476 c 0
 345 476 407 402 407 233 c 0
 407 65 349 -11 257 -11 c 0x9e
 213 -11 175 12 152 57 c 1
 148 57 l 1x3e
 137 0 l 1
 49 0 l 1x5e
 49 639 l 1
 155 639 l 1
 155 417 l 1
 159 417 l 1x9e
296 249 m 2
 296 333 277 379 225 379 c 0
 174 379 155 331 155 248 c 2
 155 216 l 2
 155 132 174 86 225 86 c 0
 277 86 296 132 296 216 c 2
 296 249 l 2
EndSplineSet
EndChar

StartChar: c
Encoding: 99 99 143
Width: 403
Flags: MW
HStem: -11 90<188 231 188 260.5> 386 90<186.5 227>
VStem: 36 111<171 216 216 249 171 316> 266 105<143 175>
LayerCount: 2
Fore
SplineSet
371 175 m 1
 371 45 309 -11 212 -11 c 0
 91 -11 36 65 36 232 c 0
 36 400 94 476 209 476 c 0
 308 476 371 420 371 290 c 1
 263 290 l 1
 263 355 245 386 209 386 c 0
 164 386 147 339 147 249 c 2
 147 216 l 2
 147 126 164 79 212 79 c 0
 250 79 266 111 266 175 c 1
 371 175 l 1
EndSplineSet
EndChar

StartChar: cacute
Encoding: 263 263 144
Width: 403
Flags: MW
HStem: -11 90<188 231 188 260.5> 386 90<186.5 227> 522 117<225 237 149 331>
VStem: 36 111<171 216 216 249 171 316> 266 105<143 175>
LayerCount: 2
Fore
SplineSet
237 522 m 1
 149 522 l 1
 225 639 l 1
 331 639 l 1
 331 636 l 1
 237 522 l 1
371 175 m 1
 371 45 309 -11 212 -11 c 0
 91 -11 36 65 36 232 c 0
 36 400 94 476 209 476 c 0
 308 476 371 420 371 290 c 1
 263 290 l 1
 263 355 245 386 209 386 c 0
 164 386 147 339 147 249 c 2
 147 216 l 2
 147 126 164 79 212 79 c 0
 250 79 266 111 266 175 c 1
 371 175 l 1
EndSplineSet
EndChar

StartChar: ccaron
Encoding: 269 269 145
Width: 403
Flags: MW
HStem: -11 90<188 231 188 260.5> 386 90<186.5 227> 520 119<167 171 249 254 167 167>
VStem: 36 111<171 216 216 249 171 316> 266 105<143 175>
LayerCount: 2
Fore
SplineSet
91 639 m 1
 171 639 l 1
 210 578 l 1
 249 639 l 1
 329 639 l 1
 254 520 l 1
 167 520 l 1
 91 639 l 1
371 175 m 1
 371 45 309 -11 212 -11 c 0
 91 -11 36 65 36 232 c 0
 36 400 94 476 209 476 c 0
 308 476 371 420 371 290 c 1
 263 290 l 1
 263 355 245 386 209 386 c 0
 164 386 147 339 147 249 c 2
 147 216 l 2
 147 126 164 79 212 79 c 0
 250 79 266 111 266 175 c 1
 371 175 l 1
EndSplineSet
EndChar

StartChar: ccedilla
Encoding: 231 231 146
Width: 403
Flags: MW
HStem: -161 50<191 192 192 201.5 129 222> -154 21G<129 129> -68 39<165 230> -10 21G<232 232> -7 21G<172 172> 386 90<186.5 227>
VStem: 36 111<171 216 216 249 171 316> 168.5 62.5 224 76<-97.5 -82> 263 108<290 322.5>
LayerCount: 2
Fore
SplineSet
172 -7 m 1x8e40
 79 8 36 85 36 232 c 0
 36 400 94 476 209 476 c 0
 308 476 371 420 371 290 c 1
 263 290 l 1
 263 355 245 386 209 386 c 0
 164 386 147 339 147 249 c 2
 147 216 l 2
 147 126 164 79 212 79 c 0
 250 79 266 111 266 175 c 1
 371 175 l 1xae40
 371 54 317 -2 232 -10 c 1x9740
 230 -29 l 1
 268 -32 300 -49 300 -89 c 0
 300 -149 241 -161 203 -161 c 0xae80
 179 -161 150 -158 129 -154 c 1x4e40
 129 -111 l 1
 192 -111 l 2
 211 -111 224 -106 224 -89 c 0
 224 -75 217 -68 194 -68 c 2xae80
 165 -68 l 1xaf40
 172 -7 l 1x8e40
EndSplineSet
EndChar

StartChar: ccircumflex
Encoding: 265 265 147
Width: 403
Flags: MW
HStem: -11 90<188 231 188 260.5> 386 90<186.5 227> 520 119<167 171 91 254 249 249 249 254 167 329> 581 58<210 210>
VStem: 36 111<171 216 216 249 171 316> 266 105<143 175>
LayerCount: 2
Fore
SplineSet
210 581 m 1xdc
 171 520 l 1
 91 520 l 1
 167 639 l 1
 254 639 l 1
 329 520 l 1
 249 520 l 1xec
 210 581 l 1xdc
371 175 m 1
 371 45 309 -11 212 -11 c 0
 91 -11 36 65 36 232 c 0
 36 400 94 476 209 476 c 0
 308 476 371 420 371 290 c 1
 263 290 l 1
 263 355 245 386 209 386 c 0
 164 386 147 339 147 249 c 2
 147 216 l 2
 147 126 164 79 212 79 c 0
 250 79 266 111 266 175 c 1
 371 175 l 1
EndSplineSet
EndChar

StartChar: cdotaccent
Encoding: 267 267 148
Width: 403
Flags: MW
HStem: -11 90<188 231 188 260.5> 386 90<186.5 227> 537 102<163 257 163 257>
VStem: 36 111<171 216 216 249 171 316> 163 94<537 639 537 639> 266 105<143 175>
LayerCount: 2
Fore
SplineSet
163 639 m 1
 257 639 l 1
 257 537 l 1
 163 537 l 1
 163 639 l 1
371 175 m 1xfc
 371 45 309 -11 212 -11 c 0
 91 -11 36 65 36 232 c 0
 36 400 94 476 209 476 c 0
 308 476 371 420 371 290 c 1
 263 290 l 1
 263 355 245 386 209 386 c 0
 164 386 147 339 147 249 c 2
 147 216 l 2
 147 126 164 79 212 79 c 0
 250 79 266 111 266 175 c 1
 371 175 l 1xfc
EndSplineSet
EndChar

StartChar: d
Encoding: 100 100 149
Width: 443
Flags: MW
HStem: -11 97<191.5 208> 0 86<191.5 394 191.5 306> 379 38 379 97<191.5 203.5 139 243> 619 20G<288 394 394 394>
VStem: 36 111<174 216 216 249 174 317.5> 288 106<216 248 248 289.5 417 639 0 639>
LayerCount: 2
Fore
SplineSet
295 57 m 1x9e
 291 57 l 1
 268 12 230 -11 186 -11 c 0
 94 -11 36 65 36 233 c 0
 36 402 98 476 180 476 c 0x9e
 227 476 267 454 284 417 c 1
 288 417 l 1
 288 639 l 1
 394 639 l 1
 394 0 l 1
 306 0 l 1x6e
 295 57 l 1x9e
288 248 m 2
 288 331 269 379 217 379 c 0
 166 379 147 333 147 249 c 2
 147 216 l 2
 147 132 166 86 217 86 c 0
 269 86 288 132 288 216 c 2
 288 248 l 2
EndSplineSet
EndChar

StartChar: eth
Encoding: 240 240 150
Width: 443
Flags: MW
HStem: -11 90<194.5 249.5 194.5 284> 386 90<194.5 203.5 147.5 249.5> 452 20G<243 243> 521 63 521 118 540 67 587 20
VStem: 36 111<171 216 216 249 171 312> 297 111<216 249 249 294>
LayerCount: 2
Fore
SplineSet
228 639 m 1xa980
 240 629 255 614 272 597 c 1
 387 607 l 1xa380
 387 543 l 1
 321 537 l 1
 367 469 408 372 408 232 c 0
 408 65 346 -11 222 -11 c 0
 98 -11 36 65 36 232 c 0
 36 392 98 476 197 476 c 0xc580
 210 476 227 473 240 469 c 1
 243 472 l 1
 234 489 222 508 210 526 c 1
 95 516 l 1xa980
 95 581 l 1xb180
 162 587 l 1xa380
 144 607 126 624 115 636 c 1
 117 639 l 1
 228 639 l 1xa980
297 249 m 2xc980
 297 339 277 386 222 386 c 0
 167 386 147 339 147 249 c 2
 147 216 l 2
 147 126 167 79 222 79 c 0
 277 79 297 126 297 216 c 2
 297 249 l 2xc980
EndSplineSet
EndChar

StartChar: dcaron
Encoding: 271 271 151
Width: 521
Flags: MW
HStem: -11 97<191.5 208> 0 86<191.5 394 191.5 306> 379 38 379 97<191.5 203.5 139 243> 485 121<422 470 422 544> 485 154<288 470 288 422>
VStem: 36 111<174 216 216 249 174 317.5> 288 106<216 248 248 289.5 417 639 0 639> 422 122<496 606 496 606 496 606>
LayerCount: 2
Fore
SplineSet
295 57 m 1xab
 291 57 l 1xab
 268 12 230 -11 186 -11 c 0
 94 -11 36 65 36 233 c 0
 36 402 98 476 180 476 c 0x9b
 227 476 267 454 284 417 c 1
 288 417 l 1
 288 639 l 1
 394 639 l 1
 394 0 l 1
 306 0 l 1x67
 295 57 l 1xab
422 347 m 1
 470 485 l 1
 422 485 l 1
 422 606 l 1
 544 606 l 1
 544 496 l 1
 485 347 l 1xab80
 422 347 l 1
288 248 m 2x9b
 288 331 269 379 217 379 c 0
 166 379 147 333 147 249 c 2
 147 216 l 2
 147 132 166 86 217 86 c 0
 269 86 288 132 288 216 c 2
 288 248 l 2x9b
EndSplineSet
EndChar

StartChar: dcroat
Encoding: 273 273 152
Width: 446
Flags: MW
HStem: -11 97<191.5 208> 0 86<191.5 394 191.5 306> 379 38 379 97<191.5 203.5 139 243> 515 77<171 288 171 288 394 442> 515 124<171 394 171 394 288 442 288 394>
VStem: 36 111<174 216 216 249 174 317.5> 288 106<216 248 248 289.5 417 515 0 515 592 639>
LayerCount: 2
Fore
SplineSet
442 592 m 1x9b
 442 515 l 1
 394 515 l 1
 394 0 l 1
 306 0 l 1x57
 295 57 l 1
 291 57 l 1
 268 12 230 -11 186 -11 c 0
 94 -11 36 65 36 233 c 0
 36 402 98 476 180 476 c 0x97
 227 476 267 454 284 417 c 1
 288 417 l 1
 288 515 l 1
 171 515 l 1xa7
 171 592 l 1
 288 592 l 1x9b
 288 639 l 1
 394 639 l 1x97
 394 592 l 1
 442 592 l 1x9b
288 248 m 2
 288 331 269 379 217 379 c 0
 166 379 147 333 147 249 c 2
 147 216 l 2
 147 132 166 86 217 86 c 0x97
 269 86 288 132 288 216 c 2
 288 248 l 2
EndSplineSet
EndChar

StartChar: e
Encoding: 101 101 153
Width: 403
Flags: MW
HStem: -11 87<183.5 228 183.5 257> 206 77<139 263 139 374 138 263> 389 87<183.5 225.5>
VStem: 27 111<206 206 206 316> 263 111
LayerCount: 2
Fore
SplineSet
374 164 m 1
 374 45 304 -11 210 -11 c 0
 90 -11 27 65 27 232 c 0
 27 400 91 476 206 476 c 0
 318 476 374 400 374 232 c 2
 374 206 l 1
 138 206 l 1
 139 123 157 76 210 76 c 0
 246 76 269 109 269 164 c 1
 374 164 l 1
263 283 m 1
 263 350 245 389 206 389 c 0
 161 389 142 350 139 283 c 1
 263 283 l 1
EndSplineSet
EndChar

StartChar: eacute
Encoding: 233 233 154
Width: 403
Flags: MW
HStem: -11 87<183.5 228 183.5 257> 206 77<139 263 139 374 138 263> 389 87<183.5 225.5> 522 117<217 228 141 323>
VStem: 27 111<206 206 206 316> 263 111
LayerCount: 2
Fore
SplineSet
228 522 m 1
 141 522 l 1
 217 639 l 1
 323 639 l 1
 324 636 l 1
 228 522 l 1
374 164 m 1
 374 45 304 -11 210 -11 c 0
 90 -11 27 65 27 232 c 0
 27 400 91 476 206 476 c 0
 318 476 374 400 374 232 c 2
 374 206 l 1
 138 206 l 1
 139 123 157 76 210 76 c 0
 246 76 269 109 269 164 c 1
 374 164 l 1
263 283 m 1
 263 350 245 389 206 389 c 0
 161 389 142 350 139 283 c 1
 263 283 l 1
EndSplineSet
EndChar

StartChar: ebreve
Encoding: 277 277 155
Width: 403
Flags: MW
HStem: -11 87<183.5 228 183.5 257> 206 77<139 263 139 374 138 263> 389 87<183.5 225.5> 545 65<187 217 187 238.5> 545 94<84 238.5>
VStem: 27 111<206 206 206 316> 263 111
LayerCount: 2
Fore
SplineSet
320 639 m 1xee
 320 595 275 545 202 545 c 0
 129 545 84 595 84 639 c 1
 149 639 l 1xee
 152 627 172 610 202 610 c 0xf6
 232 610 253 627 255 639 c 1
 320 639 l 1xee
374 164 m 1
 374 45 304 -11 210 -11 c 0
 90 -11 27 65 27 232 c 0
 27 400 91 476 206 476 c 0
 318 476 374 400 374 232 c 2
 374 206 l 1
 138 206 l 1
 139 123 157 76 210 76 c 0
 246 76 269 109 269 164 c 1
 374 164 l 1
263 283 m 1
 263 350 245 389 206 389 c 0
 161 389 142 350 139 283 c 1
 263 283 l 1
EndSplineSet
EndChar

StartChar: ecaron
Encoding: 283 283 156
Width: 403
Flags: MW
HStem: -11 87<183.5 228 183.5 257> 206 77<139 263 139 374 138 263> 389 87<183.5 225.5> 520 119<159 163 241 246 159 159>
VStem: 27 111<206 206 206 316> 263 111
LayerCount: 2
Fore
SplineSet
83 639 m 1
 163 639 l 1
 202 578 l 1
 241 639 l 1
 321 639 l 1
 246 520 l 1
 159 520 l 1
 83 639 l 1
374 164 m 1
 374 45 304 -11 210 -11 c 0
 90 -11 27 65 27 232 c 0
 27 400 91 476 206 476 c 0
 318 476 374 400 374 232 c 2
 374 206 l 1
 138 206 l 1
 139 123 157 76 210 76 c 0
 246 76 269 109 269 164 c 1
 374 164 l 1
263 283 m 1
 263 350 245 389 206 389 c 0
 161 389 142 350 139 283 c 1
 263 283 l 1
EndSplineSet
EndChar

StartChar: ecircumflex
Encoding: 234 234 157
Width: 403
Flags: MW
HStem: -11 87<183.5 228 183.5 257> 206 77<139 263 139 374 138 263> 389 87<183.5 225.5> 520 119<159 163 83 246 241 241 241 246 159 321> 581 58<202 202>
VStem: 27 111<206 206 206 316> 263 111
LayerCount: 2
Fore
SplineSet
202 581 m 1xee
 163 520 l 1
 83 520 l 1
 159 639 l 1
 246 639 l 1
 321 520 l 1
 241 520 l 1xf6
 202 581 l 1xee
374 164 m 1
 374 45 304 -11 210 -11 c 0
 90 -11 27 65 27 232 c 0
 27 400 91 476 206 476 c 0
 318 476 374 400 374 232 c 2
 374 206 l 1
 138 206 l 1
 139 123 157 76 210 76 c 0
 246 76 269 109 269 164 c 1
 374 164 l 1
263 283 m 1
 263 350 245 389 206 389 c 0
 161 389 142 350 139 283 c 1
 263 283 l 1
EndSplineSet
EndChar

StartChar: edieresis
Encoding: 235 235 158
Width: 403
Flags: MW
HStem: -11 87<183.5 228 183.5 257> 206 77<139 263 139 374 138 263> 389 87<183.5 225.5> 543 96<80 169 80 169 235 324 80 235>
VStem: 27 111<206 206 206 316> 80 89<543 639 543 639> 235 89<543 639 543 639> 263 111
LayerCount: 2
Fore
SplineSet
80 543 m 1xf6
 80 639 l 1
 169 639 l 1
 169 543 l 1
 80 543 l 1xf6
235 543 m 1
 235 639 l 1
 324 639 l 1
 324 543 l 1
 235 543 l 1
374 164 m 1xf9
 374 45 304 -11 210 -11 c 0
 90 -11 27 65 27 232 c 0
 27 400 91 476 206 476 c 0
 318 476 374 400 374 232 c 2
 374 206 l 1
 138 206 l 1
 139 123 157 76 210 76 c 0
 246 76 269 109 269 164 c 1
 374 164 l 1xf9
263 283 m 1
 263 350 245 389 206 389 c 0
 161 389 142 350 139 283 c 1
 263 283 l 1
EndSplineSet
EndChar

StartChar: edotaccent
Encoding: 279 279 159
Width: 403
Flags: MW
HStem: -11 87<183.5 228 183.5 257> 206 77<139 263 139 374 138 263> 389 87<183.5 225.5> 537 102<155 249 155 249>
VStem: 27 111<206 206 206 316> 155 94<537 639 537 639> 263 111
LayerCount: 2
Fore
SplineSet
155 639 m 1
 249 639 l 1
 249 537 l 1
 155 537 l 1
 155 639 l 1
374 164 m 1xfe
 374 45 304 -11 210 -11 c 0
 90 -11 27 65 27 232 c 0
 27 400 91 476 206 476 c 0
 318 476 374 400 374 232 c 2
 374 206 l 1
 138 206 l 1
 139 123 157 76 210 76 c 0
 246 76 269 109 269 164 c 1
 374 164 l 1xfe
263 283 m 1
 263 350 245 389 206 389 c 0
 161 389 142 350 139 283 c 1
 263 283 l 1
EndSplineSet
EndChar

StartChar: egrave
Encoding: 232 232 160
Width: 403
Flags: MW
HStem: -11 87<183.5 228 183.5 257> 206 77<139 263 139 374 138 263> 389 87<183.5 225.5> 522 117<175 175 175 187 80 263>
VStem: 27 111<206 206 206 316> 263 111
LayerCount: 2
Fore
SplineSet
175 522 m 1
 80 636 l 1
 80 639 l 1
 187 639 l 1
 263 522 l 1
 175 522 l 1
374 164 m 1
 374 45 304 -11 210 -11 c 0
 90 -11 27 65 27 232 c 0
 27 400 91 476 206 476 c 0
 318 476 374 400 374 232 c 2
 374 206 l 1
 138 206 l 1
 139 123 157 76 210 76 c 0
 246 76 269 109 269 164 c 1
 374 164 l 1
263 283 m 1
 263 350 245 389 206 389 c 0
 161 389 142 350 139 283 c 1
 263 283 l 1
EndSplineSet
EndChar

StartChar: emacron
Encoding: 275 275 161
Width: 403
Flags: MW
HStem: -11 87<183.5 228 183.5 257> 206 77<139 263 139 374 138 263> 389 87<183.5 225.5> 530 76<89 315 89 315>
VStem: 27 111<206 206 206 316> 89 226<530 606 530 606> 263 111
LayerCount: 2
Fore
SplineSet
89 606 m 1xf4
 315 606 l 1
 315 530 l 1
 89 530 l 1
 89 606 l 1xf4
374 164 m 1xfa
 374 45 304 -11 210 -11 c 0
 90 -11 27 65 27 232 c 0
 27 400 91 476 206 476 c 0
 318 476 374 400 374 232 c 2
 374 206 l 1
 138 206 l 1
 139 123 157 76 210 76 c 0
 246 76 269 109 269 164 c 1
 374 164 l 1xfa
263 283 m 1
 263 350 245 389 206 389 c 0
 161 389 142 350 139 283 c 1
 263 283 l 1
EndSplineSet
EndChar

StartChar: eogonek
Encoding: 281 281 162
Width: 403
Flags: MW
HStem: -164 61<241 319> -11 87 206 77<139 263 139 374 138 263> 389 87<183.5 225.5>
VStem: 27 111<206 206 206 316> 173 146<-114.5 -103 -151 -67.5> 263 111
LayerCount: 2
Fore
SplineSet
374 206 m 1xfa
 138 206 l 1
 139 123 157 76 210 76 c 0
 246 76 269 109 269 164 c 1
 374 164 l 1xfa
 374 80 339 28 286 4 c 1
 276 -8 260 -33 260 -57 c 0
 260 -80 271 -103 300 -103 c 2
 319 -103 l 1
 319 -151 l 1
 299 -159 280 -164 261 -164 c 0
 221 -164 173 -145 173 -84 c 0xfc
 173 -51 184 -29 198 -11 c 1
 86 -6 27 71 27 232 c 0
 27 400 91 476 206 476 c 0
 318 476 374 400 374 232 c 2
 374 206 l 1xfa
263 283 m 1
 263 350 245 389 206 389 c 0
 161 389 142 350 139 283 c 1
 263 283 l 1
EndSplineSet
EndChar

StartChar: f
Encoding: 102 102 163
Width: 241
Flags: MW
HStem: 0 21G<55 161 55 55> 376 89<8 55 8 55 161 241> 557 89<122 198 122 241>
VStem: 55 106<0 376 0 376 465 519>
LayerCount: 2
Fore
SplineSet
55 522 m 2
 55 583 80 646 164 646 c 0
 189 646 224 641 241 636 c 1
 241 557 l 1
 198 557 l 2
 174 557 161 544 161 519 c 2
 161 465 l 1
 241 465 l 1
 241 376 l 1
 161 376 l 1
 161 0 l 1
 55 0 l 1
 55 376 l 1
 8 376 l 1
 8 465 l 1
 55 465 l 1
 55 522 l 2
EndSplineSet
EndChar

StartChar: g
Encoding: 103 103 164
Width: 443
Flags: MW
HStem: -161 81<88.5 283 164 283 283 287> 5 98<152 331 171 287> 159 79<165.5 241 197.5 219> 397 79<197.5 233.5 163.5 241>
VStem: 14 107<-50.5 -31> 36 107<123 130.5> 48 106<292.5 342 292.5 365> 286 106<292.5 339 269.5 342> 331 107<-50.5 -24 -61 103> 342 88<534.5 543>
LayerCount: 2
Fore
SplineSet
430 543 m 1xf240
 430 476 401 438 354 424 c 1
 378 398 392 361 392 317 c 0
 392 222 331 159 219 159 c 2
 175 159 l 2
 156 159 143 147 143 131 c 0
 143 115 155 103 171 103 c 2xf5
 331 103 l 2
 390 103 438 57 438 -18 c 0
 438 -104 370 -161 287 -161 c 2
 117 -161 l 2
 60 -161 14 -118 14 -54 c 0xf880
 14 -8 40 22 73 41 c 1
 50 55 36 79 36 110 c 0xf5
 36 151 67 179 104 192 c 1
 67 219 48 263 48 317 c 0
 48 413 108 476 219 476 c 0
 248 476 275 471 297 462 c 1
 332 488 342 526 342 543 c 1
 430 543 l 1xf240
219 397 m 0xf3
 176 397 154 367 154 317 c 0
 154 268 176 238 219 238 c 0
 263 238 286 268 286 317 c 0
 286 367 263 397 219 397 c 0xf3
164 5 m 2xf880
 140 5 121 -14 121 -37 c 0
 121 -64 140 -80 164 -80 c 2
 283 -80 l 2
 309 -80 331 -64 331 -37 c 0
 331 -11 311 5 287 5 c 2
 164 5 l 2xf880
EndSplineSet
EndChar

StartChar: gbreve
Encoding: 287 287 165
Width: 443
Flags: MW
HStem: -161 81<88.5 283 164 283 283 287> 5 98<152 331 171 287> 159 79<165.5 241 197.5 219> 397 79<197.5 233.5 163.5 241> 545 65<206.5 236 206.5 257.5> 545 94<103 257.5>
VStem: 14 107<-50.5 -31> 36 107<123 130.5> 48 106<292.5 342 292.5 365> 286 106<292.5 339 269.5 342> 331 107<-50.5 -24 -61 103> 342 88<534.5 543>
LayerCount: 2
Fore
SplineSet
339 639 m 1xf4c0
 339 595 294 545 221 545 c 0
 149 545 103 595 103 639 c 1
 169 639 l 1xf4c0
 171 627 192 610 221 610 c 0xf8c0
 251 610 272 627 274 639 c 1
 339 639 l 1xf4c0
430 543 m 1xf490
 430 476 401 438 354 424 c 1
 378 398 392 361 392 317 c 0
 392 222 331 159 219 159 c 2
 175 159 l 2
 156 159 143 147 143 131 c 0
 143 115 155 103 171 103 c 2xf540
 331 103 l 2
 390 103 438 57 438 -18 c 0
 438 -104 370 -161 287 -161 c 2
 117 -161 l 2
 60 -161 14 -118 14 -54 c 0xf620
 14 -8 40 22 73 41 c 1
 50 55 36 79 36 110 c 0xf540
 36 151 67 179 104 192 c 1
 67 219 48 263 48 317 c 0
 48 413 108 476 219 476 c 0
 248 476 275 471 297 462 c 1
 332 488 342 526 342 543 c 1
 430 543 l 1xf490
219 397 m 0xf4c0
 176 397 154 367 154 317 c 0
 154 268 176 238 219 238 c 0
 263 238 286 268 286 317 c 0
 286 367 263 397 219 397 c 0xf4c0
164 5 m 2xf620
 140 5 121 -14 121 -37 c 0
 121 -64 140 -80 164 -80 c 2
 283 -80 l 2
 309 -80 331 -64 331 -37 c 0
 331 -11 311 5 287 5 c 2
 164 5 l 2xf620
EndSplineSet
EndChar

StartChar: gcircumflex
Encoding: 285 285 166
Width: 443
Flags: MW
HStem: -161 81<88.5 283 164 283 283 287> 5 98<152 331 171 287> 159 79<165.5 241 197.5 219> 397 65 397 79<197.5 233.5 163.5 241> 520 23<261 430> 520 119<179 182 103 265 261 261 261 265 179 340> 581 58<222 222>
VStem: 14 107<-50.5 -31> 36 107<123 130.5> 48 106<292.5 342 292.5 365> 286 106<292.5 339 269.5 342> 331 107<-50.5 -24 -61 103> 361 69<534.5 543>
LayerCount: 2
Fore
SplineSet
222 581 m 1xe924
 182 520 l 1
 103 520 l 1
 179 639 l 1
 265 639 l 1
 340 520 l 1
 261 520 l 1xea24
 222 581 l 1xe924
430 543 m 1xf424
 430 476 401 438 354 424 c 1
 378 398 392 361 392 317 c 0
 392 222 331 159 219 159 c 2
 175 159 l 2
 156 159 143 147 143 131 c 0
 143 115 155 103 171 103 c 2xea50
 331 103 l 2
 390 103 438 57 438 -18 c 0
 438 -104 370 -161 287 -161 c 2
 117 -161 l 2
 60 -161 14 -118 14 -54 c 0xea88
 14 -8 40 22 73 41 c 1
 50 55 36 79 36 110 c 0xea44
 36 151 67 179 104 192 c 1
 67 219 48 263 48 317 c 0
 48 413 108 476 219 476 c 0xea24
 248 476 275 471 297 462 c 1
 362 465 361 526 361 543 c 1
 430 543 l 1xf424
219 397 m 0xea30
 176 397 154 367 154 317 c 0
 154 268 176 238 219 238 c 0
 263 238 286 268 286 317 c 0
 286 367 263 397 219 397 c 0xea30
164 5 m 2xea88
 140 5 121 -14 121 -37 c 0
 121 -64 140 -80 164 -80 c 2
 283 -80 l 2
 309 -80 331 -64 331 -37 c 0
 331 -11 311 5 287 5 c 2
 164 5 l 2xea88
EndSplineSet
EndChar

StartChar: gcommaaccent
Encoding: 291 291 167
Width: 443
Flags: MW
HStem: -161 81<88.5 283 164 283 283 287> 5 98<152 331 171 287> 159 79<165.5 241 197.5 219> 397 79<197.5 233.5 163.5 241> 522 108<223 266 223 266 156 266>
VStem: 14 107<-50.5 -31> 36 107<123 130.5> 48 106<292.5 342 292.5 365> 156 110<522 621 621 621> 286 106<292.5 339 269.5 342> 331 107<-50.5 -24 -61 103> 342 88<534.5 543>
LayerCount: 2
Fore
SplineSet
266 630 m 1xfca0
 266 522 l 1
 156 522 l 1
 156 621 l 1
 197 705 l 1
 255 705 l 1
 223 630 l 1
 266 630 l 1xfca0
430 543 m 1xf910
 430 476 401 438 354 424 c 1
 378 398 392 361 392 317 c 0
 392 222 331 159 219 159 c 2
 175 159 l 2
 156 159 143 147 143 131 c 0
 143 115 155 103 171 103 c 2xfac0
 331 103 l 2
 390 103 438 57 438 -18 c 0
 438 -104 370 -161 287 -161 c 2
 117 -161 l 2
 60 -161 14 -118 14 -54 c 0xfca0
 14 -8 40 22 73 41 c 1
 50 55 36 79 36 110 c 0xfaa0
 36 151 67 179 104 192 c 1
 67 219 48 263 48 317 c 0
 48 413 108 476 219 476 c 0
 248 476 275 471 297 462 c 1
 332 488 342 526 342 543 c 1
 430 543 l 1xf910
219 397 m 0xf940
 176 397 154 367 154 317 c 0
 154 268 176 238 219 238 c 0
 263 238 286 268 286 317 c 0
 286 367 263 397 219 397 c 0xf940
164 5 m 2xfca0
 140 5 121 -14 121 -37 c 0
 121 -64 140 -80 164 -80 c 2
 283 -80 l 2
 309 -80 331 -64 331 -37 c 0
 331 -11 311 5 287 5 c 2
 164 5 l 2xfca0
EndSplineSet
EndChar

StartChar: gdotaccent
Encoding: 289 289 168
Width: 443
Flags: MW
HStem: -161 81<88.5 283 164 283 283 287> 5 98<152 331 171 287> 159 79<165.5 241 197.5 219> 397 79<197.5 233.5 163.5 241> 537 102<174 269 174 269>
VStem: 14 107<-50.5 -31> 36 107<123 130.5> 48 106<292.5 342 292.5 365> 174 95<537 639 537 639> 286 106<292.5 339 269.5 342> 331 107<-50.5 -24 -61 103> 342 88<534.5 543>
LayerCount: 2
Fore
SplineSet
174 639 m 1xf890
 269 639 l 1
 269 537 l 1
 174 537 l 1
 174 639 l 1xf890
430 543 m 1
 430 476 401 438 354 424 c 1
 378 398 392 361 392 317 c 0
 392 222 331 159 219 159 c 2
 175 159 l 2
 156 159 143 147 143 131 c 0
 143 115 155 103 171 103 c 2xfac0
 331 103 l 2
 390 103 438 57 438 -18 c 0
 438 -104 370 -161 287 -161 c 2
 117 -161 l 2
 60 -161 14 -118 14 -54 c 0xfca0
 14 -8 40 22 73 41 c 1
 50 55 36 79 36 110 c 0xfa90
 36 151 67 179 104 192 c 1
 67 219 48 263 48 317 c 0xf990
 48 413 108 476 219 476 c 0
 248 476 275 471 297 462 c 1
 332 488 342 526 342 543 c 1
 430 543 l 1
219 397 m 0xf9c0
 176 397 154 367 154 317 c 0
 154 268 176 238 219 238 c 0
 263 238 286 268 286 317 c 0
 286 367 263 397 219 397 c 0xf9c0
164 5 m 2xfca0
 140 5 121 -14 121 -37 c 0
 121 -64 140 -80 164 -80 c 2
 283 -80 l 2
 309 -80 331 -64 331 -37 c 0
 331 -11 311 5 287 5 c 2
 164 5 l 2xfca0
EndSplineSet
EndChar

StartChar: h
Encoding: 104 104 169
Width: 443
Flags: MW
HStem: 0 21G<49 155 49 49 288 394 288 288> 379 97<243.5 246> 619 20G<49 155 155 155>
VStem: 49 106<0 286 415 639> 288 106<0 297 297 326 0 327>
LayerCount: 2
Fore
SplineSet
158 415 m 1
 179 445 216 476 271 476 c 0
 342 476 394 436 394 326 c 2
 394 0 l 1
 288 0 l 1
 288 297 l 2
 288 357 265 379 227 379 c 0
 186 379 155 339 155 286 c 2
 155 0 l 1
 49 0 l 1
 49 639 l 1
 155 639 l 1
 155 415 l 1
 158 415 l 1
EndSplineSet
EndChar

StartChar: hbar
Encoding: 295 295 170
Width: 443
Flags: MW
HStem: 0 21G<49 155 49 49 288 394 288 288> 379 97<243.5 246> 515 77<0 49 0 49 155 271> 515 124<0 155 0 155 49 271 49 155>
VStem: 49 106<0 286 415 515 592 639> 288 106<0 297 297 326 0 327>
LayerCount: 2
Fore
SplineSet
271 592 m 1xec
 271 515 l 1
 155 515 l 1
 155 415 l 1
 158 415 l 1
 179 445 216 476 271 476 c 0
 342 476 394 436 394 326 c 2
 394 0 l 1
 288 0 l 1
 288 297 l 2
 288 357 265 379 227 379 c 0
 186 379 155 339 155 286 c 2
 155 0 l 1
 49 0 l 1
 49 515 l 1
 0 515 l 1xdc
 0 592 l 1
 49 592 l 1xec
 49 639 l 1
 155 639 l 1xdc
 155 592 l 1
 271 592 l 1xec
EndSplineSet
EndChar

StartChar: hcircumflex
Encoding: 293 293 171
Width: 443
Flags: MW
HStem: 0 21G<49 155 49 49 288 394 288 288> 379 97<243.5 246> 619 20G<49 155 155 155> 661 120<57 60 -19 143 139 139 139 143 57 218>
VStem: 49 106<0 286 415 639> 288 106<0 297 297 326 0 327>
LayerCount: 2
Fore
SplineSet
100 722 m 1
 60 661 l 1
 -19 661 l 1
 57 781 l 1
 143 781 l 1
 218 661 l 1
 139 661 l 1
 100 722 l 1
158 415 m 1
 179 445 216 476 271 476 c 0
 342 476 394 436 394 326 c 2
 394 0 l 1
 288 0 l 1
 288 297 l 2
 288 357 265 379 227 379 c 0
 186 379 155 339 155 286 c 2
 155 0 l 1
 49 0 l 1
 49 639 l 1
 155 639 l 1xec
 155 415 l 1
 158 415 l 1
EndSplineSet
EndChar

StartChar: i
Encoding: 105 105 172
Width: 202
Flags: MW
HStem: 0 21G<48 154 48 48> 445 20G<48 154 154 154> 543 96<48 154 48 154>
VStem: 48 106<0 465 0 465 543 639>
LayerCount: 2
Fore
SplineSet
48 639 m 1
 154 639 l 1
 154 543 l 1
 48 543 l 1
 48 639 l 1
48 465 m 1
 154 465 l 1
 154 0 l 1
 48 0 l 1
 48 465 l 1
EndSplineSet
EndChar

StartChar: dotlessi
Encoding: 305 305 173
Width: 202
Flags: MW
HStem: 0 21G<48 154 48 48> 445 20G<48 154 154 154>
VStem: 48 106<0 465 0 465>
LayerCount: 2
Fore
SplineSet
48 465 m 1
 154 465 l 1
 154 0 l 1
 48 0 l 1
 48 465 l 1
EndSplineSet
EndChar

StartChar: iacute
Encoding: 237 237 174
Width: 202
Flags: MW
HStem: 0 21G<48 48 48 154> 445 20G<48 154 154 154> 522 117<116 128 40 222>
VStem: 48 106<0 465 0 465>
LayerCount: 2
Fore
SplineSet
128 522 m 1
 40 522 l 1
 116 639 l 1
 222 639 l 1
 223 636 l 1
 128 522 l 1
48 0 m 1
 48 465 l 1
 154 465 l 1
 154 0 l 1
 48 0 l 1
EndSplineSet
EndChar

StartChar: ibreve
Encoding: 301 301 175
Width: 202
Flags: MW
HStem: 0 21G<48 154 48 48> 445 20G<48 154 154 154> 545 65<86.5 116 86.5 137.5> 545 94<-18 137.5>
VStem: 48 106<0 465 0 465>
LayerCount: 2
Fore
SplineSet
219 639 m 1xd8
 219 595 174 545 101 545 c 0
 28 545 -18 595 -18 639 c 1
 49 639 l 1xd8
 51 627 72 610 101 610 c 0xe8
 131 610 152 627 154 639 c 1
 219 639 l 1xd8
48 465 m 1
 154 465 l 1
 154 0 l 1
 48 0 l 1
 48 465 l 1
EndSplineSet
EndChar

StartChar: icircumflex
Encoding: 238 238 176
Width: 202
Flags: MW
HStem: 0 21G<48 154 48 48> 445 20G<48 154 154 154> 520 119<58 62 -19 145 141 141 141 145 58 220> 581 58<102 102>
VStem: 48 106<0 465 0 465>
LayerCount: 2
Fore
SplineSet
102 581 m 1xd8
 62 520 l 1
 -19 520 l 1
 58 639 l 1
 145 639 l 1
 220 520 l 1
 141 520 l 1xe8
 102 581 l 1xd8
48 465 m 1
 154 465 l 1
 154 0 l 1
 48 0 l 1
 48 465 l 1
EndSplineSet
EndChar

StartChar: idieresis
Encoding: 239 239 177
Width: 202
Flags: MW
HStem: 0 21G<48 48 48 154> 445 20G<48 154 154 154> 543 96<-20 68 -20 68 134 223 -20 134>
VStem: -20 88<543 639 543 639> 48 106<0 465 0 465> 134 89<543 639 543 639>
LayerCount: 2
Fore
SplineSet
-20 543 m 1xf4
 -20 639 l 1
 68 639 l 1
 68 543 l 1
 -20 543 l 1xf4
134 543 m 1
 134 639 l 1
 223 639 l 1
 223 543 l 1
 134 543 l 1
48 0 m 1xe8
 48 465 l 1
 154 465 l 1
 154 0 l 1
 48 0 l 1xe8
EndSplineSet
EndChar

StartChar: igrave
Encoding: 236 236 178
Width: 202
Flags: MW
HStem: 0 21G<48 48 48 154> 445 20G<48 154 154 154> 522 117<74 74 74 86 -20 162>
VStem: 48 106<0 465 0 465>
LayerCount: 2
Fore
SplineSet
74 522 m 1
 -21 636 l 1
 -20 639 l 1
 86 639 l 1
 162 522 l 1
 74 522 l 1
48 0 m 1
 48 465 l 1
 154 465 l 1
 154 0 l 1
 48 0 l 1
EndSplineSet
EndChar

StartChar: ij
Encoding: 307 307 179
Width: 403
Flags: MW
HStem: -161 89<169 290> 0 21G<48 48 48 154> 445 20G<48 154 154 154 249 355 355 355> 543 96<48 154 48 154 249 355 48 249>
VStem: 48 106<0 465 0 465 543 639> 249 106<-29 465 543 639>
LayerCount: 2
Fore
SplineSet
48 543 m 1
 48 639 l 1
 154 639 l 1
 154 543 l 1
 48 543 l 1
249 543 m 1
 249 639 l 1
 355 639 l 1
 355 543 l 1
 249 543 l 1
48 0 m 1
 48 465 l 1
 154 465 l 1
 154 0 l 1
 48 0 l 1
355 -36 m 2
 355 -98 332 -161 248 -161 c 0
 221 -161 187 -156 169 -150 c 1
 169 -72 l 1
 208 -72 l 2
 235 -72 249 -57 249 -29 c 2
 249 465 l 1
 355 465 l 1
 355 -36 l 2
EndSplineSet
EndChar

StartChar: imacron
Encoding: 299 299 180
Width: 202
Flags: MW
HStem: 0 21G<48 154 48 48> 445 20G<48 154 154 154> 530 76<-12 214 -12 214>
VStem: 48 106<0 465 0 465>
LayerCount: 2
Fore
SplineSet
-12 606 m 1
 214 606 l 1
 214 530 l 1
 -12 530 l 1
 -12 606 l 1
48 465 m 1
 154 465 l 1
 154 0 l 1
 48 0 l 1
 48 465 l 1
EndSplineSet
EndChar

StartChar: iogonek
Encoding: 303 303 181
Width: 202
Flags: MW
HStem: -168 61<108 187> -156 21G<187 187> -156 49<167 187> 0 21G<48 80 48 48 154 154> 445 20G<48 154 154 154> 537 102<54 149 54 149>
VStem: 41 86<-73.5 -67.5> 48 106<0 465> 54 95<537 639 537 639>
LayerCount: 2
Fore
SplineSet
54 537 m 1x5c80
 54 639 l 1
 149 639 l 1
 149 537 l 1
 54 537 l 1x5c80
154 0 m 1x5d
 143 -12 127 -37 127 -62 c 0
 127 -85 138 -107 167 -107 c 2
 187 -107 l 1x3d
 187 -156 l 1x5d
 166 -164 148 -168 128 -168 c 0
 88 -168 41 -149 41 -88 c 0
 41 -47 58 -22 80 0 c 1x9e
 48 0 l 1
 48 465 l 1
 154 465 l 1
 154 0 l 1x5d
EndSplineSet
EndChar

StartChar: itilde
Encoding: 297 297 182
Width: 202
Flags: MW
HStem: 0 21G<48 154 48 48> 445 20G<48 154 154 154> 531 75<141.5 166.5 137 194> 564 75<36.5 61 8 66>
VStem: 48 106<0 465 0 465>
LayerCount: 2
Fore
SplineSet
250 639 m 1xd8
 250 591 225 531 163 531 c 0xe8
 120 531 86 564 46 564 c 0xd8
 27 564 15 555 11 531 c 1
 -48 531 l 1
 -48 580 -23 639 39 639 c 0
 83 639 117 606 157 606 c 0xe8
 176 606 187 614 191 639 c 1
 250 639 l 1xd8
48 465 m 1xe8
 154 465 l 1
 154 0 l 1
 48 0 l 1
 48 465 l 1xe8
EndSplineSet
EndChar

StartChar: j
Encoding: 106 106 183
Width: 202
Flags: MW
HStem: -161 89<-33 88.5> 445 20G<48 154 154 154> 543 96<48 154 48 154>
VStem: 48 106<-29 465 543 639>
LayerCount: 2
Fore
SplineSet
48 639 m 1
 154 639 l 1
 154 543 l 1
 48 543 l 1
 48 639 l 1
154 -36 m 2
 154 -98 131 -161 46 -161 c 0
 19 -161 -14 -156 -33 -150 c 1
 -33 -72 l 1
 6 -72 l 2
 34 -72 48 -57 48 -29 c 2
 48 465 l 1
 154 465 l 1
 154 -36 l 2
EndSplineSet
EndChar

StartChar: jcircumflex
Encoding: 309 309 184
Width: 202
Flags: MW
HStem: -161 89<-33 88.5> 445 20G<48 154 154 154> 520 119<59 63 -17 147 142 142 142 147 59 221> 581 58<103 103>
VStem: 48 106<-29 465>
LayerCount: 2
Fore
SplineSet
103 581 m 1xd8
 63 520 l 1
 -17 520 l 1
 59 639 l 1
 147 639 l 1
 221 520 l 1
 142 520 l 1xe8
 103 581 l 1xd8
154 -36 m 2
 154 -98 131 -161 46 -161 c 0
 19 -161 -14 -156 -33 -150 c 1
 -33 -72 l 1
 6 -72 l 2
 34 -72 48 -57 48 -29 c 2
 48 465 l 1
 154 465 l 1
 154 -36 l 2
EndSplineSet
EndChar

StartChar: k
Encoding: 107 107 185
Width: 403
Flags: MW
HStem: 0 21G<48 154 48 48 286 404 286 286> 445 20G<284 397 397 397> 619 20G<48 154 154 154>
VStem: 48 106<0 145 280 639>
LayerCount: 2
Fore
SplineSet
397 465 m 1
 259 276 l 1
 404 0 l 1
 286 0 l 1
 193 193 l 1
 154 145 l 1
 154 0 l 1
 48 0 l 1
 48 639 l 1
 154 639 l 1
 154 280 l 1
 284 465 l 1
 397 465 l 1
EndSplineSet
EndChar

StartChar: kcommaaccent
Encoding: 311 311 186
Width: 403
Flags: MW
HStem: -157 108<148 190 148 256> 0 21G<48 154 48 48 286 404 286 286> 445 20G<284 397 397 397> 619 20G<48 154 154 154>
VStem: 48 106<0 145 280 639> 148 108<-148 -49 -148 -49 -148 -49>
LayerCount: 2
Fore
SplineSet
397 465 m 1xf8
 259 276 l 1
 404 0 l 1
 286 0 l 1
 193 193 l 1
 154 145 l 1
 154 0 l 1
 48 0 l 1
 48 639 l 1
 154 639 l 1
 154 280 l 1
 284 465 l 1
 397 465 l 1xf8
159 -232 m 1xf4
 190 -157 l 1
 148 -157 l 1
 148 -49 l 1
 256 -49 l 1
 256 -148 l 1
 217 -232 l 1
 159 -232 l 1xf4
EndSplineSet
EndChar

StartChar: kgreenlandic
Encoding: 312 312 187
Width: 404
Flags: MW
HStem: 0 21G<48 154 48 48 286 404 286 286> 445 20G<48 154 154 154 284 397 397 397>
VStem: 48 106<0 145 280 465>
LayerCount: 2
Fore
SplineSet
286 0 m 1
 193 193 l 1
 154 145 l 1
 154 0 l 1
 48 0 l 1
 48 465 l 1
 154 465 l 1
 154 280 l 1
 284 465 l 1
 397 465 l 1
 259 276 l 1
 404 0 l 1
 286 0 l 1
EndSplineSet
EndChar

StartChar: l
Encoding: 108 108 188
Width: 202
Flags: MW
HStem: 0 21G<48 154 48 48> 619 20G<48 154 154 154>
VStem: 48 106<0 639 0 639>
LayerCount: 2
Fore
SplineSet
48 639 m 1
 154 639 l 1
 154 0 l 1
 48 0 l 1
 48 639 l 1
EndSplineSet
EndChar

StartChar: lacute
Encoding: 314 314 189
Width: 202
Flags: MW
HStem: 0 21G<48 48 48 154> 619 20G<48 154 154 154> 664 117<116 128 40 222>
VStem: 48 106<0 639 0 639>
LayerCount: 2
Fore
SplineSet
128 664 m 1
 40 664 l 1
 116 781 l 1
 222 781 l 1
 223 778 l 1
 128 664 l 1
48 0 m 1
 48 639 l 1
 154 639 l 1xd0
 154 0 l 1
 48 0 l 1
EndSplineSet
EndChar

StartChar: lcaron
Encoding: 318 318 190
Width: 279
Flags: MW
HStem: 0 21G<48 154 48 48> 485 121<200 248 200 322> 485 154<48 248 48 200>
VStem: 48 106<0 639 0 639> 200 122<496 606 496 606 496 606>
LayerCount: 2
Fore
SplineSet
48 639 m 1xb8
 154 639 l 1
 154 0 l 1
 48 0 l 1
 48 639 l 1xb8
200 347 m 1
 248 485 l 1
 200 485 l 1
 200 606 l 1
 322 606 l 1xd8
 322 496 l 1
 263 347 l 1
 200 347 l 1
EndSplineSet
EndChar

StartChar: lcommaaccent
Encoding: 316 316 191
Width: 202
Flags: MW
HStem: -157 108<47 90 47 156> 0 21G<48 154 48 48> 619 20G<48 154 154 154>
VStem: 48 106<0 639 0 639>
LayerCount: 2
Fore
SplineSet
48 639 m 1
 154 639 l 1
 154 0 l 1
 48 0 l 1
 48 639 l 1
58 -232 m 1
 90 -157 l 1
 47 -157 l 1
 47 -49 l 1
 156 -49 l 1
 156 -148 l 1
 116 -232 l 1
 58 -232 l 1
EndSplineSet
EndChar

StartChar: ldot
Encoding: 320 320 192
Width: 295
Flags: MW
HStem: 0 21G<48 154 48 48> 246 116<188 295 188 295> 619 20G<48 154 154 154>
VStem: 48 106<0 639 0 639> 188 107<246 362 246 362>
LayerCount: 2
Fore
SplineSet
48 639 m 1
 154 639 l 1
 154 0 l 1
 48 0 l 1
 48 639 l 1
188 362 m 1
 295 362 l 1
 295 246 l 1
 188 246 l 1
 188 362 l 1
EndSplineSet
Ligature2: "Ligature Substitution lookup 13 subtable" l periodcentered
EndChar

StartChar: lslash
Encoding: 322 322 193
Width: 202
Flags: MW
HStem: 0 21G<48 154 48 48> 619 20G<48 154 154 154>
VStem: 48 106<0 204 204 204 289 299 0 384 384 639>
LayerCount: 2
Fore
SplineSet
224 361 m 1
 154 299 l 1
 154 0 l 1
 48 0 l 1
 48 204 l 1
 -12 151 l 1
 -12 236 l 1
 48 289 l 1
 48 639 l 1
 154 639 l 1
 154 384 l 1
 224 446 l 1
 224 361 l 1
EndSplineSet
EndChar

StartChar: m
Encoding: 109 109 194
Width: 644
Flags: MW
HStem: 0 21G<49 155 49 49 271 376 271 271 492 598 492 492> 379 86<49 236> 379 97<200 286 456 458>
VStem: 49 106<0 286 0 465> 271 105<0 293 0 297 0 327> 492 106<0 297 297 326 0 327>
LayerCount: 2
Fore
SplineSet
153 408 m 1xbc
 175 444 212 476 263 476 c 0
 309 476 345 456 363 408 c 1
 387 444 428 476 484 476 c 0
 550 476 598 438 598 326 c 2
 598 0 l 1
 492 0 l 1
 492 297 l 2
 492 357 476 379 440 379 c 0
 406 379 376 345 376 293 c 2
 376 0 l 1
 271 0 l 1
 271 297 l 2
 271 357 254 379 218 379 c 0
 182 379 155 341 155 286 c 2xbc
 155 0 l 1
 49 0 l 1
 49 465 l 1
 137 465 l 1xdc
 148 408 l 1
 153 408 l 1xbc
EndSplineSet
EndChar

StartChar: n
Encoding: 110 110 195
Width: 443
Flags: MW
HStem: 0 21G<49 155 49 49 288 394 288 288> 379 97<243 246> 445 20G<49 137 137 137>
VStem: 49 106<0 286 0 465> 288 106<0 297 297 326 0 327>
LayerCount: 2
Fore
SplineSet
153 408 m 1xd8
 177 444 215 476 271 476 c 0
 342 476 394 436 394 326 c 2
 394 0 l 1
 288 0 l 1
 288 297 l 2
 288 357 265 379 227 379 c 0
 186 379 155 339 155 286 c 2xd8
 155 0 l 1
 49 0 l 1
 49 465 l 1
 137 465 l 1xb8
 148 408 l 1
 153 408 l 1xd8
EndSplineSet
Substitution2: "'sups' Superscript lookup 4 subtable" nsuperior
Substitution2: "'aalt' Access All Alternates lookup 0 subtable" nsuperior
EndChar

StartChar: nacute
Encoding: 324 324 196
Width: 443
Flags: MW
HStem: 0 21G<49 155 49 49 288 394 288 288> 379 97<243 246> 445 20G<49 137 137 137> 522 117<237 248 161 343>
VStem: 49 106<0 286 0 465> 288 106<0 297 297 326 0 327>
LayerCount: 2
Fore
SplineSet
248 522 m 1xbc
 161 522 l 1
 237 639 l 1
 343 639 l 1
 344 636 l 1
 248 522 l 1xbc
153 408 m 1
 177 444 215 476 271 476 c 0
 342 476 394 436 394 326 c 2
 394 0 l 1
 288 0 l 1
 288 297 l 2
 288 357 265 379 227 379 c 0
 186 379 155 339 155 286 c 2xdc
 155 0 l 1
 49 0 l 1
 49 465 l 1
 137 465 l 1
 148 408 l 1
 153 408 l 1
EndSplineSet
EndChar

StartChar: napostrophe
Encoding: 329 329 197
Width: 598
Flags: MW
HStem: 0 21G<203 309 203 203 443 549 443 443> 379 97<397.5 401> 423 42 498 108<59 103 59 169>
VStem: 59 110<507 606 507 606 507 606> 203 106<0 286 0 465> 443 106<0 297 297 326 0 327>
LayerCount: 2
Fore
SplineSet
129 423 m 1xbe
 72 423 l 1
 103 498 l 1
 59 498 l 1
 59 606 l 1
 169 606 l 1
 169 507 l 1
 129 423 l 1xbe
308 408 m 1
 331 444 370 476 425 476 c 0
 497 476 549 436 549 326 c 2
 549 0 l 1
 443 0 l 1
 443 297 l 2
 443 357 420 379 382 379 c 0
 340 379 309 339 309 286 c 2xde
 309 0 l 1
 203 0 l 1
 203 465 l 1
 292 465 l 1
 302 408 l 1
 308 408 l 1
EndSplineSet
EndChar

StartChar: ncaron
Encoding: 328 328 198
Width: 443
Flags: MW
HStem: 0 21G<49 155 49 49 288 394 288 288> 379 97<243 246> 445 20G<49 137 137 137> 520 119<179 182 261 265 179 179>
VStem: 49 106<0 286 0 465> 288 106<0 297 297 326 0 327>
LayerCount: 2
Fore
SplineSet
103 639 m 1xbc
 182 639 l 1
 222 578 l 1
 261 639 l 1
 340 639 l 1
 265 520 l 1
 179 520 l 1
 103 639 l 1xbc
153 408 m 1
 177 444 215 476 271 476 c 0
 342 476 394 436 394 326 c 2
 394 0 l 1
 288 0 l 1
 288 297 l 2
 288 357 265 379 227 379 c 0
 186 379 155 339 155 286 c 2xdc
 155 0 l 1
 49 0 l 1
 49 465 l 1
 137 465 l 1
 148 408 l 1
 153 408 l 1
EndSplineSet
EndChar

StartChar: ncommaaccent
Encoding: 326 326 199
Width: 443
Flags: MW
HStem: -157 108<167 210 167 276> 0 21G<49 155 49 49 288 394 288 288> 379 97<243 246> 445 20G<49 137 137 137>
VStem: 49 106<0 286 0 465> 167 109<-148 -49 -148 -49 -148 -49> 288 106<0 297 297 326 0 327>
LayerCount: 2
Fore
SplineSet
153 408 m 1xea
 177 444 215 476 271 476 c 0
 342 476 394 436 394 326 c 2
 394 0 l 1
 288 0 l 1
 288 297 l 2
 288 357 265 379 227 379 c 0
 186 379 155 339 155 286 c 2xea
 155 0 l 1
 49 0 l 1
 49 465 l 1
 137 465 l 1xda
 148 408 l 1
 153 408 l 1xea
179 -232 m 1xde
 210 -157 l 1
 167 -157 l 1
 167 -49 l 1
 276 -49 l 1
 276 -148 l 1
 236 -232 l 1
 179 -232 l 1xde
EndSplineSet
EndChar

StartChar: eng
Encoding: 331 331 200
Width: 443
Flags: MW
HStem: -161 89<208 328.5> 0 21G<49 155 49 49> 379 97<243 246> 445 20G<49 137 137 137>
VStem: 49 106<0 286 0 465> 288 106<-29 297 297 326>
LayerCount: 2
Fore
SplineSet
153 408 m 1xec
 177 444 215 476 271 476 c 0
 342 476 394 436 394 326 c 2
 394 -36 l 2
 394 -98 371 -161 286 -161 c 0
 260 -161 226 -156 208 -150 c 1
 208 -72 l 1
 247 -72 l 2
 274 -72 288 -57 288 -29 c 2
 288 297 l 2
 288 357 265 379 227 379 c 0
 186 379 155 339 155 286 c 2xec
 155 0 l 1
 49 0 l 1
 49 465 l 1
 137 465 l 1xdc
 148 408 l 1
 153 408 l 1xec
EndSplineSet
EndChar

StartChar: ntilde
Encoding: 241 241 201
Width: 443
Flags: MW
HStem: 0 21G<49 155 49 49 288 394 288 288> 379 97<243 246> 445 20G<49 137 137 137> 531 75<261.5 287 258 314.5> 564 75<157 181.5 129 186>
VStem: 49 106<0 286 0 465> 288 106<0 297 297 326 0 327>
LayerCount: 2
Fore
SplineSet
370 639 m 1xae
 370 591 346 531 283 531 c 0xb6
 240 531 206 564 166 564 c 0xae
 148 564 135 555 132 531 c 1
 73 531 l 1
 73 580 98 639 160 639 c 0
 203 639 238 606 278 606 c 0xb6
 296 606 309 614 312 639 c 1
 370 639 l 1xae
153 408 m 1xb6
 177 444 215 476 271 476 c 0
 342 476 394 436 394 326 c 2
 394 0 l 1
 288 0 l 1
 288 297 l 2
 288 357 265 379 227 379 c 0
 186 379 155 339 155 286 c 2xd6
 155 0 l 1
 49 0 l 1
 49 465 l 1
 137 465 l 1
 148 408 l 1
 153 408 l 1xb6
EndSplineSet
EndChar

StartChar: o
Encoding: 111 111 202
Width: 443
Flags: MW
HStem: -11 90<194.5 249.5 194.5 284> 386 90<194.5 249.5>
VStem: 36 111<171 216 216 249 171 316> 297 111<216 249 249 294>
LayerCount: 2
Fore
SplineSet
222 476 m 0
 346 476 408 400 408 232 c 0
 408 65 346 -11 222 -11 c 0
 98 -11 36 65 36 232 c 0
 36 400 98 476 222 476 c 0
297 249 m 2
 297 339 277 386 222 386 c 0
 167 386 147 339 147 249 c 2
 147 216 l 2
 147 126 167 79 222 79 c 0
 277 79 297 126 297 216 c 2
 297 249 l 2
EndSplineSet
Substitution2: "Single Substitution lookup 14 subtable" ordmasculine
Substitution2: "'aalt' Access All Alternates lookup 0 subtable" ordmasculine
EndChar

StartChar: oacute
Encoding: 243 243 203
Width: 443
Flags: MW
HStem: -11 90<194.5 249.5 194.5 284> 386 90<194.5 249.5> 522 117<237 248 161 343>
VStem: 36 111<171 216 216 249 171 316> 297 111<216 249 249 294>
LayerCount: 2
Fore
SplineSet
248 522 m 1
 161 522 l 1
 237 639 l 1
 343 639 l 1
 344 636 l 1
 248 522 l 1
222 476 m 0
 346 476 408 400 408 232 c 0
 408 65 346 -11 222 -11 c 0
 98 -11 36 65 36 232 c 0
 36 400 98 476 222 476 c 0
297 249 m 2
 297 339 277 386 222 386 c 0
 167 386 147 339 147 249 c 2
 147 216 l 2
 147 126 167 79 222 79 c 0
 277 79 297 126 297 216 c 2
 297 249 l 2
EndSplineSet
EndChar

StartChar: obreve
Encoding: 335 335 204
Width: 443
Flags: MW
HStem: -11 90<194.5 249.5 194.5 284> 386 90<194.5 249.5> 545 65<206.5 236 206.5 257.5> 545 94<103 257.5>
VStem: 36 111<171 216 216 249 171 316> 297 111<216 249 249 294>
LayerCount: 2
Fore
SplineSet
339 639 m 1xdc
 339 595 294 545 221 545 c 0
 149 545 103 595 103 639 c 1
 169 639 l 1xdc
 171 627 192 610 221 610 c 0xec
 251 610 272 627 274 639 c 1
 339 639 l 1xdc
222 476 m 0
 346 476 408 400 408 232 c 0
 408 65 346 -11 222 -11 c 0
 98 -11 36 65 36 232 c 0
 36 400 98 476 222 476 c 0
297 249 m 2
 297 339 277 386 222 386 c 0
 167 386 147 339 147 249 c 2
 147 216 l 2
 147 126 167 79 222 79 c 0
 277 79 297 126 297 216 c 2
 297 249 l 2
EndSplineSet
EndChar

StartChar: ocircumflex
Encoding: 244 244 205
Width: 443
Flags: MW
HStem: -11 90<194.5 249.5 194.5 284> 386 90<194.5 249.5> 520 119<179 182 103 265 261 261 261 265 179 340> 581 58<222 222>
VStem: 36 111<171 216 216 249 171 316> 297 111<216 249 249 294>
LayerCount: 2
Fore
SplineSet
222 581 m 1xdc
 182 520 l 1
 103 520 l 1
 179 639 l 1
 265 639 l 1
 340 520 l 1
 261 520 l 1xec
 222 581 l 1xdc
222 476 m 0
 346 476 408 400 408 232 c 0
 408 65 346 -11 222 -11 c 0
 98 -11 36 65 36 232 c 0
 36 400 98 476 222 476 c 0
297 249 m 2
 297 339 277 386 222 386 c 0
 167 386 147 339 147 249 c 2
 147 216 l 2
 147 126 167 79 222 79 c 0
 277 79 297 126 297 216 c 2
 297 249 l 2
EndSplineSet
EndChar

StartChar: odieresis
Encoding: 246 246 206
Width: 443
Flags: MW
HStem: -11 90<194.5 249.5 194.5 284> 386 90<194.5 249.5> 543 96<100 188 100 188 255 343 100 255>
VStem: 36 111<171 216 216 249 171 316> 100 88<543 639 543 639> 255 88<543 639 543 639> 297 111<216 249 249 294>
LayerCount: 2
Fore
SplineSet
100 543 m 1xec
 100 639 l 1
 188 639 l 1
 188 543 l 1
 100 543 l 1xec
255 543 m 1
 255 639 l 1
 343 639 l 1
 343 543 l 1
 255 543 l 1
222 476 m 0xf2
 346 476 408 400 408 232 c 0
 408 65 346 -11 222 -11 c 0
 98 -11 36 65 36 232 c 0
 36 400 98 476 222 476 c 0xf2
297 249 m 2
 297 339 277 386 222 386 c 0
 167 386 147 339 147 249 c 2
 147 216 l 2
 147 126 167 79 222 79 c 0
 277 79 297 126 297 216 c 2
 297 249 l 2
EndSplineSet
EndChar

StartChar: ograve
Encoding: 242 242 207
Width: 443
Flags: MW
HStem: -11 90<194.5 249.5 194.5 284> 386 90<194.5 249.5> 522 117<194 194 194 206 100 282>
VStem: 36 111<171 216 216 249 171 316> 297 111<216 249 249 294>
LayerCount: 2
Fore
SplineSet
194 522 m 1
 99 636 l 1
 100 639 l 1
 206 639 l 1
 282 522 l 1
 194 522 l 1
222 476 m 0
 346 476 408 400 408 232 c 0
 408 65 346 -11 222 -11 c 0
 98 -11 36 65 36 232 c 0
 36 400 98 476 222 476 c 0
297 249 m 2
 297 339 277 386 222 386 c 0
 167 386 147 339 147 249 c 2
 147 216 l 2
 147 126 167 79 222 79 c 0
 277 79 297 126 297 216 c 2
 297 249 l 2
EndSplineSet
EndChar

StartChar: ohungarumlaut
Encoding: 337 337 208
Width: 443
Flags: MW
HStem: -11 90<194.5 249.5 194.5 284> 386 90<194.5 249.5> 522 117<122 265 177 192 246 265 301 316 246 246>
VStem: 36 111<171 216 216 249 171 316> 297 111<216 249 249 294>
LayerCount: 2
Fore
SplineSet
122 522 m 1
 177 639 l 1
 265 639 l 1
 266 636 l 1
 192 522 l 1
 122 522 l 1
246 522 m 1
 301 639 l 1
 389 639 l 1
 390 636 l 1
 316 522 l 1
 246 522 l 1
222 476 m 0
 346 476 408 400 408 232 c 0
 408 65 346 -11 222 -11 c 0
 98 -11 36 65 36 232 c 0
 36 400 98 476 222 476 c 0
297 249 m 2
 297 339 277 386 222 386 c 0
 167 386 147 339 147 249 c 2
 147 216 l 2
 147 126 167 79 222 79 c 0
 277 79 297 126 297 216 c 2
 297 249 l 2
EndSplineSet
EndChar

StartChar: omacron
Encoding: 333 333 209
Width: 443
Flags: MW
HStem: -11 90<194.5 249.5 194.5 284> 386 90<194.5 249.5> 530 76<109 334 109 334>
VStem: 36 111<171 216 216 249 171 316> 109 225<530 606 530 606> 297 111<216 249 249 294>
LayerCount: 2
Fore
SplineSet
109 606 m 1xe8
 334 606 l 1
 334 530 l 1
 109 530 l 1
 109 606 l 1xe8
222 476 m 0xf4
 346 476 408 400 408 232 c 0
 408 65 346 -11 222 -11 c 0
 98 -11 36 65 36 232 c 0
 36 400 98 476 222 476 c 0xf4
297 249 m 2
 297 339 277 386 222 386 c 0
 167 386 147 339 147 249 c 2
 147 216 l 2
 147 126 167 79 222 79 c 0
 277 79 297 126 297 216 c 2
 297 249 l 2
EndSplineSet
EndChar

StartChar: oslash
Encoding: 248 248 210
Width: 443
Flags: MW
HStem: -11 90<213 249.5 213 284> 386 90<194.5 230.5>
VStem: 36 111<205.5 216 216 249 205.5 316> 297 111<216 249 249 259.5>
LayerCount: 2
Fore
SplineSet
357 422 m 1
 391 382 408 319 408 232 c 0
 408 65 346 -11 222 -11 c 0
 187 -11 157 -4 132 8 c 1
 112 -28 l 1
 46 -28 l 1
 86 44 l 1
 53 84 36 146 36 232 c 0
 36 400 98 476 222 476 c 0
 256 476 286 469 310 457 c 1
 330 493 l 1
 396 493 l 1
 357 422 l 1
263 372 m 1
 253 381 239 386 222 386 c 0
 167 386 147 339 147 249 c 2
 147 216 l 2
 147 195 148 178 149 162 c 1
 263 372 l 1
179 94 m 1
 190 84 204 79 222 79 c 0
 277 79 297 126 297 216 c 2
 297 249 l 2
 297 270 295 288 293 305 c 1
 179 94 l 1
EndSplineSet
EndChar

StartChar: oslashacute
Encoding: 511 511 211
Width: 443
Flags: MW
HStem: -11 90<213 249.5 213 284> 386 90<194.5 230.5> 522 117<237 248 161 343>
VStem: 36 111<205.5 216 216 249 205.5 316> 297 111<216 249 249 259.5>
LayerCount: 2
Fore
SplineSet
248 522 m 1
 161 522 l 1
 237 639 l 1
 343 639 l 1
 344 636 l 1
 248 522 l 1
357 422 m 1
 391 382 408 319 408 232 c 0
 408 65 346 -11 222 -11 c 0
 187 -11 157 -4 132 8 c 1
 112 -28 l 1
 46 -28 l 1
 86 44 l 1
 53 84 36 146 36 232 c 0
 36 400 98 476 222 476 c 0
 256 476 286 469 310 457 c 1
 330 493 l 1
 396 493 l 1
 357 422 l 1
263 372 m 1
 253 381 239 386 222 386 c 0
 167 386 147 339 147 249 c 2
 147 216 l 2
 147 195 148 178 149 162 c 1
 263 372 l 1
179 94 m 1
 190 84 204 79 222 79 c 0
 277 79 297 126 297 216 c 2
 297 249 l 2
 297 270 295 288 293 305 c 1
 179 94 l 1
EndSplineSet
EndChar

StartChar: otilde
Encoding: 245 245 212
Width: 443
Flags: MW
HStem: -11 90<194.5 249.5 194.5 284> 386 90<194.5 249.5> 531 75<261.5 287 258 314.5> 564 75<157 181.5 129 186>
VStem: 36 111<171 216 216 249 171 316> 297 111<216 249 249 294>
LayerCount: 2
Fore
SplineSet
370 639 m 1xdc
 370 591 346 531 283 531 c 0xec
 240 531 206 564 166 564 c 0xdc
 148 564 135 555 132 531 c 1
 73 531 l 1
 73 580 98 639 160 639 c 0
 203 639 238 606 278 606 c 0xec
 296 606 309 614 312 639 c 1
 370 639 l 1xdc
222 476 m 0xec
 346 476 408 400 408 232 c 0
 408 65 346 -11 222 -11 c 0
 98 -11 36 65 36 232 c 0
 36 400 98 476 222 476 c 0xec
297 249 m 2
 297 339 277 386 222 386 c 0
 167 386 147 339 147 249 c 2
 147 216 l 2
 147 126 167 79 222 79 c 0
 277 79 297 126 297 216 c 2
 297 249 l 2
EndSplineSet
EndChar

StartChar: oe
Encoding: 339 339 213
Width: 684
Flags: MW
HStem: -11 87<454 498 454 527.5> -11 90<194.5 249.5 194.5 250> 206 77<409 533 409 644 408 533> 386 90<194.5 249.5> 389 87<453.5 495.5>
VStem: 36 111<171 216 216 249 171 316> 297 111<206 249 206 294> 533 111
LayerCount: 2
Fore
SplineSet
644 164 m 1x77
 644 45 575 -11 480 -11 c 0
 425 -11 383 8 353 47 c 1
 322 8 278 -11 222 -11 c 0x77
 98 -11 36 65 36 232 c 0
 36 400 98 476 222 476 c 0
 278 476 322 457 352 417 c 1
 382 457 423 476 476 476 c 0
 589 476 644 400 644 232 c 2
 644 206 l 1
 408 206 l 1
 409 123 428 76 480 76 c 0
 516 76 539 109 539 164 c 1xb7
 644 164 l 1x77
533 283 m 1x6f
 533 350 515 389 476 389 c 0
 431 389 413 350 409 283 c 1
 533 283 l 1x6f
297 249 m 2x77
 297 339 277 386 222 386 c 0
 167 386 147 339 147 249 c 2
 147 216 l 2
 147 126 167 79 222 79 c 0
 277 79 297 126 297 216 c 2
 297 249 l 2x77
EndSplineSet
EndChar

StartChar: p
Encoding: 112 112 214
Width: 443
Flags: MW
HStem: -153 21G<49 155 49 49> -11 97<239.5 251 199.5 304> 48 38 379 86<49 251> 379 97<235 251>
VStem: 49 106<-153 48 175 217 217 249> 296 111<216 249 249 291>
LayerCount: 2
Fore
SplineSet
152 408 m 1xce
 175 453 213 476 257 476 c 0
 349 476 407 400 407 232 c 0
 407 63 345 -11 263 -11 c 0xce
 216 -11 176 11 159 48 c 1
 155 48 l 1
 155 -153 l 1
 49 -153 l 1
 49 465 l 1
 137 465 l 1xb6
 148 408 l 1
 152 408 l 1xce
296 249 m 2
 296 333 277 379 225 379 c 0
 174 379 155 333 155 249 c 2
 155 217 l 2
 155 133 174 86 225 86 c 0
 277 86 296 132 296 216 c 2
 296 249 l 2
EndSplineSet
EndChar

StartChar: thorn
Encoding: 254 254 215
Width: 443
Flags: MW
HStem: -153 21G<49 155 49 49> -11 97<239.5 251 199.5 304> 48 38 379 97<236 251> 619 20G<49 155 155 155>
VStem: 49 106<-153 48 175 217 217 249 413 639> 296 111<216 249 249 291>
LayerCount: 2
Fore
SplineSet
155 413 m 1xde
 178 455 215 476 257 476 c 0
 349 476 407 400 407 232 c 0
 407 63 345 -11 263 -11 c 0xde
 216 -11 176 11 159 48 c 1
 155 48 l 1xbe
 155 -153 l 1
 49 -153 l 1
 49 639 l 1
 155 639 l 1
 155 413 l 1xde
296 249 m 2
 296 333 277 379 225 379 c 0
 174 379 155 333 155 249 c 2
 155 217 l 2
 155 133 174 86 225 86 c 0
 277 86 296 132 296 216 c 2
 296 249 l 2
EndSplineSet
EndChar

StartChar: q
Encoding: 113 113 216
Width: 443
Flags: MW
HStem: -153 21G<288 394 288 288> -11 97<191.5 203.5> 379 29 379 86<191.5 394> 379 97<191.5 208 140 243>
VStem: 36 111<174 216 216 249 174 316> 288 106<-153 48 48 48 217 249 249 291>
LayerCount: 2
Fore
SplineSet
284 48 m 1xce
 267 11 227 -11 180 -11 c 0
 98 -11 36 63 36 232 c 0
 36 400 94 476 186 476 c 0xce
 230 476 268 453 291 408 c 1
 295 408 l 1xe6
 306 465 l 1
 394 465 l 1xd6
 394 -153 l 1
 288 -153 l 1
 288 48 l 1
 284 48 l 1xce
288 249 m 2
 288 333 269 379 217 379 c 0
 166 379 147 333 147 249 c 2
 147 216 l 2
 147 132 166 86 217 86 c 0
 269 86 288 133 288 217 c 2
 288 249 l 2
EndSplineSet
EndChar

StartChar: r
Encoding: 114 114 217
Width: 282
Flags: MW
HStem: 0 21G<49 155 49 49> 366 99<49 241> 366 110<218 241 241 249 211.5 279> 449 20G<279 279>
VStem: 49 106<0 259>
LayerCount: 2
Fore
SplineSet
155 397 m 1xa8
 167 436 188 476 235 476 c 0xa8
 263 476 279 469 279 469 c 1x98
 279 366 l 1
 241 366 l 2xa8
 195 366 155 341 155 259 c 2
 155 0 l 1
 49 0 l 1
 49 465 l 1
 137 465 l 1xc8
 149 397 l 1
 155 397 l 1xa8
EndSplineSet
EndChar

StartChar: racute
Encoding: 341 341 218
Width: 282
Flags: MW
HStem: 0 21G<49 155 49 49> 366 99<49 241> 366 110<218 241 241 249 211.5 279> 449 20G<279 279> 522 117<113 126 37 220>
VStem: 49 106<0 259>
LayerCount: 2
Fore
SplineSet
126 522 m 1x9c
 37 522 l 1
 113 639 l 1
 220 639 l 1
 221 636 l 1
 126 522 l 1x9c
155 397 m 1xac
 167 436 188 476 235 476 c 0xac
 263 476 279 469 279 469 c 1x9c
 279 366 l 1
 241 366 l 2xac
 195 366 155 341 155 259 c 2
 155 0 l 1
 49 0 l 1
 49 465 l 1
 137 465 l 1xcc
 149 397 l 1
 155 397 l 1xac
EndSplineSet
EndChar

StartChar: rcaron
Encoding: 345 345 219
Width: 282
Flags: MW
HStem: 0 21G<49 155 49 49> 366 99<49 241> 366 110<218 241 241 249 211.5 279> 449 20G<279 279> 520 119<56 59 138 142 56 56>
VStem: 49 106<0 259>
LayerCount: 2
Fore
SplineSet
-20 639 m 1x9c
 59 639 l 1
 99 578 l 1
 138 639 l 1
 217 639 l 1
 142 520 l 1
 56 520 l 1
 -20 639 l 1x9c
155 397 m 1xac
 167 436 188 476 235 476 c 0xac
 263 476 279 469 279 469 c 1x9c
 279 366 l 1
 241 366 l 2xac
 195 366 155 341 155 259 c 2
 155 0 l 1
 49 0 l 1
 49 465 l 1
 137 465 l 1xcc
 149 397 l 1
 155 397 l 1xac
EndSplineSet
EndChar

StartChar: rcommaaccent
Encoding: 343 343 220
Width: 282
Flags: MW
HStem: -157 108<52 95 52 162> 0 21G<49 155 49 49> 366 99<49 241> 366 110<218 241 241 249 211.5 279> 449 20G<279 279>
VStem: 49 106<0 259> 52 110<-148 -49 -148 -49 -148 -49>
LayerCount: 2
Fore
SplineSet
155 397 m 1xd4
 167 436 188 476 235 476 c 0xd4
 263 476 279 469 279 469 c 1xcc
 279 366 l 1
 241 366 l 2xd4
 195 366 155 341 155 259 c 2
 155 0 l 1
 49 0 l 1
 49 465 l 1
 137 465 l 1xe4
 149 397 l 1
 155 397 l 1xd4
64 -232 m 1xcc
 95 -157 l 1xcc
 52 -157 l 1
 52 -49 l 1xca
 162 -49 l 1
 162 -148 l 1
 121 -232 l 1
 64 -232 l 1xcc
EndSplineSet
EndChar

StartChar: s
Encoding: 115 115 221
Width: 403
Flags: MW
HStem: -11 87<186.5 216 186.5 247.5> -11 159<30 247.5> 329 147<156 359 156 251> 389 87<182.5 215>
VStem: 29 109<93 141> 36 108<298 357 298 381.5> 263 108<107 175.5>
LayerCount: 2
Fore
SplineSet
138 141 m 2x9a
 139 92 171 76 202 76 c 0
 230 76 263 88 263 126 c 0
 263 225 36 155 36 334 c 0
 36 429 110 476 202 476 c 0x96
 291 476 360 429 360 349 c 0
 360 339 359 330 359 329 c 2xa6
 251 329 l 1
 251 331 l 2
 250 370 231 389 199 389 c 0
 166 389 144 371 144 343 c 0x96
 144 253 371 324 371 140 c 0
 371 27 297 -11 198 -11 c 0x9a
 91 -11 29 49 29 137 c 0
 29 141 30 148 30 148 c 1x5a
 138 148 l 1
 138 141 l 2x9a
EndSplineSet
EndChar

StartChar: sacute
Encoding: 347 347 222
Width: 403
Flags: MW
HStem: -11 87<186.5 216 186.5 247.5> -11 159<30 247.5> 329 147<156 359 156 251> 389 87<182.5 215> 522 117<217 228 141 323>
VStem: 29 109<93 141> 36 108<298 357 298 381.5> 263 108<107 175.5>
LayerCount: 2
Fore
SplineSet
228 522 m 1x9b
 141 522 l 1
 217 639 l 1
 323 639 l 1
 324 636 l 1
 228 522 l 1x9b
138 141 m 2x9d
 139 92 171 76 202 76 c 0
 230 76 263 88 263 126 c 0
 263 225 36 155 36 334 c 0
 36 429 110 476 202 476 c 0x9b
 291 476 360 429 360 349 c 0
 360 339 359 330 359 329 c 2xab
 251 329 l 1
 251 331 l 2
 250 370 231 389 199 389 c 0
 166 389 144 371 144 343 c 0x9b
 144 253 371 324 371 140 c 0
 371 27 297 -11 198 -11 c 0x9d
 91 -11 29 49 29 137 c 0
 29 141 30 148 30 148 c 1x5d
 138 148 l 1
 138 141 l 2x9d
EndSplineSet
EndChar

StartChar: scaron
Encoding: 353 353 223
Width: 403
Flags: MW
HStem: -11 87<186.5 216 186.5 247.5> -11 159<30 247.5> 329 147<156 359 156 251> 389 87<182.5 215> 520 119<159 159 159 163 241 246>
VStem: 29 109<93 141> 36 108<298 357 298 381.5> 263 108<107 175.5>
LayerCount: 2
Fore
SplineSet
159 520 m 1x9b
 83 639 l 1
 163 639 l 1
 202 578 l 1
 241 639 l 1
 321 639 l 1
 246 520 l 1
 159 520 l 1x9b
138 141 m 2x9d
 139 92 171 76 202 76 c 0
 230 76 263 88 263 126 c 0
 263 225 36 155 36 334 c 0
 36 429 110 476 202 476 c 0x9b
 291 476 360 429 360 349 c 0
 360 339 359 330 359 329 c 2xab
 251 329 l 1
 251 331 l 2
 250 370 231 389 199 389 c 0
 166 389 144 371 144 343 c 0x9b
 144 253 371 324 371 140 c 0
 371 27 297 -11 198 -11 c 0x9d
 91 -11 29 49 29 137 c 0
 29 141 30 148 30 148 c 1x5d
 138 148 l 1
 138 141 l 2x9d
EndSplineSet
EndChar

StartChar: scedilla
Encoding: 351 351 224
Width: 403
Flags: MW
HStem: -161 50<178 179 179 189 117 210> -154 21G<117 117> -68 39<152 217> -10 21G<219 219> -8 21G<159 159> 329 147<156 359 156 251> 389 87<182.5 215>
VStem: 29 109<98 141> 36 108<298 357 298 381.5> 155.5 62.5 211 76<-97.5 -82> 263 108<107 175.5>
LayerCount: 2
Fore
SplineSet
138 141 m 2xab10
 139 92 171 76 202 76 c 0
 230 76 263 88 263 126 c 0
 263 225 36 155 36 334 c 0
 36 429 110 476 202 476 c 0xaa90
 291 476 360 429 360 349 c 0
 360 339 359 330 359 329 c 2x8c90
 251 329 l 1
 251 331 l 2
 250 370 231 389 199 389 c 0
 166 389 144 371 144 343 c 0x8a90
 144 253 371 324 371 140 c 0
 371 34 307 -4 219 -10 c 1x92d0
 217 -29 l 1
 255 -32 287 -49 287 -89 c 0
 287 -149 229 -161 191 -161 c 0xaaa0
 165 -161 138 -158 117 -154 c 1x4a90
 117 -111 l 1
 179 -111 l 2
 199 -111 211 -106 211 -89 c 0
 211 -75 203 -68 181 -68 c 2xaaa0
 152 -68 l 1xaad0
 159 -8 l 1x8b10
 76 4 29 59 29 137 c 0
 29 141 30 148 30 148 c 1
 138 148 l 1
 138 141 l 2xab10
EndSplineSet
Substitution2: "'locl' Localized Forms in Latin lookup 2 subtable" scommaaccent
Substitution2: "'locl' Localized Forms in Latin lookup 1 subtable" scommaaccent
Substitution2: "'aalt' Access All Alternates lookup 0 subtable" scommaaccent
EndChar

StartChar: scircumflex
Encoding: 349 349 225
Width: 403
Flags: MW
HStem: -11 87<186.5 216 186.5 247.5> -11 159<30 247.5> 329 147<156 359 156 251> 389 87<182.5 215> 520 119<159 163 83 246 241 246 159 321 241 241> 581 58<202 202>
VStem: 29 109<93 141> 36 108<298 357 298 381.5> 263 108<107 175.5>
LayerCount: 2
Fore
SplineSet
241 520 m 1x9980
 202 581 l 1x9680
 163 520 l 1
 83 520 l 1
 159 639 l 1
 246 639 l 1
 321 520 l 1
 241 520 l 1x9980
138 141 m 2
 139 92 171 76 202 76 c 0
 230 76 263 88 263 126 c 0
 263 225 36 155 36 334 c 0
 36 429 110 476 202 476 c 0x9980
 291 476 360 429 360 349 c 0
 360 339 359 330 359 329 c 2xa980
 251 329 l 1
 251 331 l 2
 250 370 231 389 199 389 c 0
 166 389 144 371 144 343 c 0x9980
 144 253 371 324 371 140 c 0
 371 27 297 -11 198 -11 c 0x9a80
 91 -11 29 49 29 137 c 0
 29 141 30 148 30 148 c 1x5a80
 138 148 l 1
 138 141 l 2
EndSplineSet
EndChar

StartChar: scommaaccent
Encoding: 537 537 226
Width: 403
Flags: MW
HStem: -157 108<147 191 147 257> -11 87<186.5 216 186.5 247.5> -11 159<30 247.5> 329 147<156 359 156 251> 389 87<182.5 215>
VStem: 29 109<93 141> 36 108<298 357 298 381.5> 147 110<-148 -49 -148 -49 -148 -49> 263 108<107 175.5>
LayerCount: 2
Fore
SplineSet
138 141 m 2xcd
 139 92 171 76 202 76 c 0
 230 76 263 88 263 126 c 0
 263 225 36 155 36 334 c 0
 36 429 110 476 202 476 c 0xca80
 291 476 360 429 360 349 c 0
 360 339 359 330 359 329 c 2xd080
 251 329 l 1
 251 331 l 2
 250 370 231 389 199 389 c 0
 166 389 144 371 144 343 c 0xca80
 144 253 371 324 371 140 c 0
 371 27 297 -11 198 -11 c 0xcc80
 91 -11 29 49 29 137 c 0
 29 141 30 148 30 148 c 1xad
 138 148 l 1
 138 141 l 2xcd
159 -232 m 1xc9
 191 -157 l 1
 147 -157 l 1
 147 -49 l 1
 257 -49 l 1
 257 -148 l 1
 216 -232 l 1
 159 -232 l 1xc9
EndSplineSet
EndChar

StartChar: germandbls
Encoding: 223 223 227
Width: 443
Flags: MW
HStem: 0 90<35 230 184 230 230 241 184 230> 286 100<184 227 227 230 184 227> 560 90<196.5 244>
VStem: 35 106<0 460 460 467 0 527.5> 184 132<346 349 346 386 346 386> 293 107<456 505> 311 107<163 216.5>
LayerCount: 2
Fore
SplineSet
35 460 m 2xf2
 35 595 118 650 225 650 c 0
 325 650 400 588 400 484 c 0xf4
 400 426 365 369 316 349 c 1
 316 346 l 1
 376 324 418 257 418 189 c 0
 418 75 340 0 241 0 c 2
 184 0 l 1
 184 90 l 1
 230 90 l 2
 275 90 311 136 311 190 c 0
 311 243 275 286 230 286 c 2xf2
 184 286 l 1
 184 386 l 1xf8
 227 386 l 2
 263 386 293 430 293 482 c 0xf4
 293 528 268 560 220 560 c 0
 173 560 141 527 141 467 c 2
 141 0 l 1
 35 0 l 1
 35 460 l 2xf2
EndSplineSet
EndChar

StartChar: longs
Encoding: 383 383 228
Width: 202
Flags: MW
HStem: 0 21G<55 161 55 55> 376 89<8 55 8 55> 557 89<122 198 122 241>
VStem: 55 106<0 376 376 376 465 519 0 522 0 552.5>
LayerCount: 2
Fore
SplineSet
55 522 m 2
 55 583 80 646 164 646 c 0
 189 646 224 641 241 636 c 1
 241 557 l 1
 198 557 l 2
 174 557 161 544 161 519 c 2
 161 0 l 1
 55 0 l 1
 55 376 l 1
 8 376 l 1
 8 465 l 1
 55 465 l 1
 55 522 l 2
EndSplineSet
EndChar

StartChar: t
Encoding: 116 116 229
Width: 241
Flags: MW
HStem: -11 90<122 228> 0 21G<228 228> 376 89<8 55 8 55 161 228>
VStem: 55 106<114 117 117 376>
LayerCount: 2
Fore
SplineSet
228 376 m 1x70
 161 376 l 1
 161 117 l 2
 161 92 174 79 198 79 c 2
 228 79 l 1
 228 0 l 1
 213 -5 185 -11 164 -11 c 0xb0
 80 -11 55 52 55 114 c 2
 55 376 l 1
 8 376 l 1
 8 465 l 1
 55 465 l 1
 71 596 l 1
 161 596 l 1
 161 465 l 1
 228 465 l 1
 228 376 l 1x70
EndSplineSet
EndChar

StartChar: tbar
Encoding: 359 359 230
Width: 241
Flags: MW
HStem: -11 90<122 228> 0 21G<228 228> 232 77<10 55 10 55 161 225> 376 89<8 55 8 55 161 228>
VStem: 55 106<114 117 117 232 309 376>
LayerCount: 2
Fore
SplineSet
228 465 m 1x78
 228 376 l 1
 161 376 l 1
 161 309 l 1
 225 309 l 1
 225 232 l 1
 161 232 l 1
 161 117 l 2
 161 92 174 79 198 79 c 2
 228 79 l 1
 228 0 l 1
 213 -5 185 -11 164 -11 c 0xb8
 80 -11 55 52 55 114 c 2
 55 232 l 1
 10 232 l 1
 10 309 l 1
 55 309 l 1
 55 376 l 1
 8 376 l 1
 8 465 l 1
 55 465 l 1
 71 596 l 1
 161 596 l 1
 161 465 l 1
 228 465 l 1x78
EndSplineSet
EndChar

StartChar: tcaron
Encoding: 357 357 231
Width: 347
Flags: MW
HStem: -11 90<122 228> 0 21G<228 228> 376 89<8 55 8 55 161 228> 485 121<265 314 265 387>
VStem: 55 106<114 117 117 376> 265 122<496 606 496 606 496 606>
LayerCount: 2
Fore
SplineSet
276 376 m 1x6c
 314 485 l 1
 265 485 l 1
 265 606 l 1
 387 606 l 1x7c
 387 496 l 1
 339 376 l 1
 276 376 l 1x6c
228 376 m 1xac
 161 376 l 1
 161 117 l 2
 161 92 174 79 198 79 c 2
 228 79 l 1
 228 0 l 1
 213 -5 185 -11 164 -11 c 0
 80 -11 55 52 55 114 c 2
 55 376 l 1
 8 376 l 1
 8 465 l 1
 55 465 l 1
 71 596 l 1
 161 596 l 1
 161 465 l 1
 228 465 l 1
 228 376 l 1xac
EndSplineSet
EndChar

StartChar: tcedilla
Encoding: 355 355 232
Width: 241
Flags: MW
HStem: -161 50<121.5 123 123 132.5 60 153> -154 21G<60 60> -68 39<95 161> -11 21G<163 164 163 163> -11 90<163 228 163 228> 0 21G<228 228> 376 89<8 55 8 55 161 228>
VStem: 55 106<114 117 117 376> 99.5 128.5 154 76<-97.5 -82>
LayerCount: 2
Fore
SplineSet
161 -29 m 1x9240
 199 -32 230 -49 230 -89 c 0
 230 -149 172 -161 134 -161 c 0x8640
 109 -161 81 -158 60 -154 c 1x47
 60 -111 l 1
 123 -111 l 2
 142 -111 154 -106 154 -89 c 0
 154 -75 147 -68 124 -68 c 2xa640
 95 -68 l 1xa680
 104 4 l 1xa7
 67 26 55 70 55 114 c 2
 55 376 l 1
 8 376 l 1
 8 465 l 1
 55 465 l 1
 71 596 l 1
 161 596 l 1
 161 465 l 1
 228 465 l 1
 228 376 l 1
 161 376 l 1
 161 117 l 2
 161 92 174 79 198 79 c 2x8b
 228 79 l 1x8a80
 228 0 l 1
 213 -5 185 -11 164 -11 c 2
 163 -11 l 1x9280
 161 -29 l 1x9240
EndSplineSet
Substitution2: "'locl' Localized Forms in Latin lookup 2 subtable" uni021B
Substitution2: "'locl' Localized Forms in Latin lookup 1 subtable" uni021B
Substitution2: "'aalt' Access All Alternates lookup 0 subtable" uni021B
EndChar

StartChar: uni021B
Encoding: 539 539 233
Width: 241
Flags: MW
HStem: -157 108<66 110 66 176> -11 90<122 228> 0 21G<228 228> 376 89<8 55 8 55 161 228>
VStem: 55 106<114 117 117 376> 66 110<-148 -49 -148 -49 -148 -49>
LayerCount: 2
Fore
SplineSet
228 376 m 1xb8
 161 376 l 1
 161 117 l 2
 161 92 174 79 198 79 c 2
 228 79 l 1
 228 0 l 1
 213 -5 185 -11 164 -11 c 0xd8
 80 -11 55 52 55 114 c 2
 55 376 l 1
 8 376 l 1
 8 465 l 1
 55 465 l 1
 71 596 l 1
 161 596 l 1
 161 465 l 1
 228 465 l 1
 228 376 l 1xb8
78 -232 m 1xb4
 110 -157 l 1
 66 -157 l 1
 66 -49 l 1
 176 -49 l 1
 176 -148 l 1
 135 -232 l 1
 78 -232 l 1xb4
EndSplineSet
EndChar

StartChar: u
Encoding: 117 117 234
Width: 443
Flags: MW
HStem: -11 97<196 200> 0 21G<306 394 306 306> 445 20G<49 155 155 155 288 394 394 394>
VStem: 49 106<139 168 168 465> 288 106<177 465 0 465>
LayerCount: 2
Fore
SplineSet
295 57 m 1xb8
 290 57 l 1
 266 21 228 -11 172 -11 c 0
 101 -11 49 29 49 139 c 2
 49 465 l 1
 155 465 l 1
 155 168 l 2
 155 108 176 86 216 86 c 0
 257 86 288 125 288 177 c 2xb8
 288 465 l 1
 394 465 l 1
 394 0 l 1
 306 0 l 1x78
 295 57 l 1xb8
EndSplineSet
EndChar

StartChar: uacute
Encoding: 250 250 235
Width: 443
Flags: MW
HStem: -11 97<196 200> 0 21G<306 306 306 394> 445 20G<49 155 155 155 288 394 394 394> 522 117<237 248 161 343>
VStem: 49 106<139 168 168 465> 288 106<177 465 0 465>
LayerCount: 2
Fore
SplineSet
248 522 m 1x7c
 161 522 l 1
 237 639 l 1
 343 639 l 1
 344 636 l 1
 248 522 l 1x7c
306 0 m 1
 295 57 l 1
 290 57 l 1
 266 21 228 -11 172 -11 c 0
 101 -11 49 29 49 139 c 2
 49 465 l 1
 155 465 l 1
 155 168 l 2
 155 108 176 86 216 86 c 0
 257 86 288 125 288 177 c 2xbc
 288 465 l 1
 394 465 l 1
 394 0 l 1
 306 0 l 1
EndSplineSet
EndChar

StartChar: ubreve
Encoding: 365 365 236
Width: 443
Flags: MW
HStem: -11 97<196 200> 0 21G<306 394 306 306> 445 20G<49 155 155 155 288 394 394 394> 545 65<206.5 236 206.5 257.5> 545 94<103 257.5>
VStem: 49 106<139 168 168 465> 288 106<177 465 0 465>
LayerCount: 2
Fore
SplineSet
339 639 m 1x6e
 339 595 294 545 221 545 c 0
 149 545 103 595 103 639 c 1
 169 639 l 1x6e
 171 627 192 610 221 610 c 0x76
 251 610 272 627 274 639 c 1
 339 639 l 1x6e
295 57 m 1xae
 290 57 l 1
 266 21 228 -11 172 -11 c 0
 101 -11 49 29 49 139 c 2
 49 465 l 1
 155 465 l 1
 155 168 l 2
 155 108 176 86 216 86 c 0
 257 86 288 125 288 177 c 2xae
 288 465 l 1
 394 465 l 1
 394 0 l 1
 306 0 l 1x6e
 295 57 l 1xae
EndSplineSet
EndChar

StartChar: ucircumflex
Encoding: 251 251 237
Width: 443
Flags: MW
HStem: -11 97<196 200> 0 21G<306 394 306 306> 445 20G<49 155 155 155 288 394 394 394> 520 119<179 182 103 265 261 261 261 265 179 340> 581 58<222 222>
VStem: 49 106<139 168 168 465> 288 106<177 465 0 465>
LayerCount: 2
Fore
SplineSet
222 581 m 1x6e
 182 520 l 1
 103 520 l 1
 179 639 l 1
 265 639 l 1
 340 520 l 1
 261 520 l 1xb6
 222 581 l 1x6e
295 57 m 1
 290 57 l 1
 266 21 228 -11 172 -11 c 0
 101 -11 49 29 49 139 c 2
 49 465 l 1
 155 465 l 1
 155 168 l 2
 155 108 176 86 216 86 c 0
 257 86 288 125 288 177 c 2xb6
 288 465 l 1
 394 465 l 1
 394 0 l 1
 306 0 l 1x76
 295 57 l 1
EndSplineSet
EndChar

StartChar: udieresis
Encoding: 252 252 238
Width: 443
Flags: MW
HStem: -11 97<196 200> 0 21G<306 306 306 394> 445 20G<49 155 155 155 288 394 394 394> 543 96<100 188 100 188 255 343 100 255>
VStem: 49 106<139 168 168 465> 100 88<543 639 543 639> 255 88<543 639 543 639> 288 106<177 465 0 465>
LayerCount: 2
Fore
SplineSet
100 543 m 1x76
 100 639 l 1
 188 639 l 1
 188 543 l 1
 100 543 l 1x76
255 543 m 1
 255 639 l 1
 343 639 l 1
 343 543 l 1
 255 543 l 1
306 0 m 1x79
 295 57 l 1
 290 57 l 1
 266 21 228 -11 172 -11 c 0
 101 -11 49 29 49 139 c 2
 49 465 l 1
 155 465 l 1
 155 168 l 2
 155 108 176 86 216 86 c 0
 257 86 288 125 288 177 c 2xb9
 288 465 l 1
 394 465 l 1
 394 0 l 1
 306 0 l 1x79
EndSplineSet
EndChar

StartChar: ugrave
Encoding: 249 249 239
Width: 443
Flags: MW
HStem: -11 97<196 200> 0 21G<306 306 306 394> 445 20G<49 155 155 155 288 394 394 394> 522 117<194 194 194 206 100 282>
VStem: 49 106<139 168 168 465> 288 106<177 465 0 465>
LayerCount: 2
Fore
SplineSet
194 522 m 1x7c
 99 636 l 1
 100 639 l 1
 206 639 l 1
 282 522 l 1
 194 522 l 1x7c
306 0 m 1
 295 57 l 1
 290 57 l 1
 266 21 228 -11 172 -11 c 0
 101 -11 49 29 49 139 c 2
 49 465 l 1
 155 465 l 1
 155 168 l 2
 155 108 176 86 216 86 c 0
 257 86 288 125 288 177 c 2xbc
 288 465 l 1
 394 465 l 1
 394 0 l 1
 306 0 l 1
EndSplineSet
EndChar

StartChar: uhungarumlaut
Encoding: 369 369 240
Width: 443
Flags: MW
HStem: -11 97<196 200> 0 21G<306 306 306 394> 445 20G<49 155 155 155 288 394 394 394> 522 117<177 192 122 265 246 246 246 265 301 316>
VStem: 49 106<139 168 168 465> 288 106<177 465 0 465>
LayerCount: 2
Fore
SplineSet
192 522 m 1x7c
 122 522 l 1
 177 639 l 1
 265 639 l 1
 266 636 l 1
 192 522 l 1x7c
316 522 m 1
 246 522 l 1
 301 639 l 1
 389 639 l 1
 390 636 l 1
 316 522 l 1
306 0 m 1
 295 57 l 1
 290 57 l 1
 266 21 228 -11 172 -11 c 0
 101 -11 49 29 49 139 c 2
 49 465 l 1
 155 465 l 1
 155 168 l 2
 155 108 176 86 216 86 c 0
 257 86 288 125 288 177 c 2xbc
 288 465 l 1
 394 465 l 1
 394 0 l 1
 306 0 l 1
EndSplineSet
EndChar

StartChar: umacron
Encoding: 363 363 241
Width: 443
Flags: MW
HStem: -11 97<196 200> 0 21G<306 394 306 306> 445 20G<49 155 155 155 288 394 394 394> 530 76<109 334 109 334>
VStem: 49 106<139 168 168 465> 288 106<177 465 0 465>
LayerCount: 2
Fore
SplineSet
109 606 m 1x7c
 334 606 l 1
 334 530 l 1
 109 530 l 1
 109 606 l 1x7c
295 57 m 1xbc
 290 57 l 1
 266 21 228 -11 172 -11 c 0
 101 -11 49 29 49 139 c 2
 49 465 l 1
 155 465 l 1
 155 168 l 2
 155 108 176 86 216 86 c 0
 257 86 288 125 288 177 c 2xbc
 288 465 l 1
 394 465 l 1
 394 0 l 1
 306 0 l 1x7c
 295 57 l 1xbc
EndSplineSet
EndChar

StartChar: uogonek
Encoding: 371 371 242
Width: 443
Flags: MW
HStem: -168 61<348.5 427> -156 21G<427 427> -156 49<408 427> -11 97<196 200> 0 21G<306 320 306 306 394 394> 445 20G<49 155 155 155 288 394 394 394>
VStem: 49 106<139 168 168 465> 281 146<-118.5 -107 -156 -67.5> 288 106<177 465 0 465>
LayerCount: 2
Fore
SplineSet
427 -107 m 1x2f
 427 -156 l 1x4f
 407 -164 388 -168 369 -168 c 0
 328 -168 281 -149 281 -88 c 0
 281 -47 299 -22 320 0 c 1
 306 0 l 1x8f
 295 57 l 1
 290 57 l 1x57
 266 21 228 -11 172 -11 c 0
 101 -11 49 29 49 139 c 2
 49 465 l 1
 155 465 l 1
 155 168 l 2
 155 108 176 86 216 86 c 0
 257 86 288 125 288 177 c 2
 288 465 l 1
 394 465 l 1
 394 0 l 1x5680
 384 -12 368 -37 368 -62 c 0
 368 -85 378 -107 408 -107 c 2
 427 -107 l 1x2f
EndSplineSet
EndChar

StartChar: uring
Encoding: 367 367 243
Width: 443
Flags: MW
HStem: -11 97<196 200> 0 21G<306 394 306 306> 445 20G<49 155 155 155 288 394 394 394> 496 44<210.5 233 210.5 245.5> 621 45<210.5 233>
VStem: 49 106<139 168 168 465> 137 44<569.5 592.5 569.5 604.5> 263 44<569.5 592.5> 288 106<177 465 0 465>
LayerCount: 2
Fore
SplineSet
222 666 m 0x7b
 270 666 307 627 307 581 c 0
 307 534 269 496 222 496 c 0
 176 496 137 533 137 581 c 0
 137 628 175 666 222 666 c 0x7b
222 621 m 0
 199 621 181 604 181 581 c 0
 181 558 199 540 222 540 c 0
 244 540 263 558 263 581 c 0
 263 604 244 621 222 621 c 0
295 57 m 1xbc80
 290 57 l 1
 266 21 228 -11 172 -11 c 0
 101 -11 49 29 49 139 c 2
 49 465 l 1
 155 465 l 1
 155 168 l 2
 155 108 176 86 216 86 c 0
 257 86 288 125 288 177 c 2xbc80
 288 465 l 1
 394 465 l 1
 394 0 l 1
 306 0 l 1x7c80
 295 57 l 1xbc80
EndSplineSet
EndChar

StartChar: utilde
Encoding: 361 361 244
Width: 443
Flags: MW
HStem: -11 97<196 200> 0 21G<306 394 306 306> 445 20G<49 155 155 155 288 394 394 394> 531 75<261.5 287 258 314.5> 564 75<157 181.5 129 186>
VStem: 49 106<139 168 168 465> 288 106<177 465 0 465>
LayerCount: 2
Fore
SplineSet
370 639 m 1x6e
 370 591 346 531 283 531 c 0x76
 240 531 206 564 166 564 c 0x6e
 148 564 135 555 132 531 c 1
 73 531 l 1
 73 580 98 639 160 639 c 0
 203 639 238 606 278 606 c 0x76
 296 606 309 614 312 639 c 1
 370 639 l 1x6e
295 57 m 1xb6
 290 57 l 1
 266 21 228 -11 172 -11 c 0
 101 -11 49 29 49 139 c 2
 49 465 l 1
 155 465 l 1
 155 168 l 2
 155 108 176 86 216 86 c 0
 257 86 288 125 288 177 c 2xb6
 288 465 l 1
 394 465 l 1
 394 0 l 1
 306 0 l 1x76
 295 57 l 1xb6
EndSplineSet
EndChar

StartChar: v
Encoding: 118 118 245
Width: 403
Flags: MW
HStem: 0 21G<148 148 148 255> 0 126<148 208 204 208 204 255> 445 20G<4 115 115 115 293 400 400 400>
VStem: 4 396<465 465>
LayerCount: 2
Fore
SplineSet
148 0 m 1xb0
 4 465 l 1
 115 465 l 1
 175 265 l 2
 189 219 194 172 204 126 c 1
 208 126 l 1x70
 217 172 221 219 234 265 c 2
 293 465 l 1
 400 465 l 1
 255 0 l 1
 148 0 l 1xb0
EndSplineSet
EndChar

StartChar: w
Encoding: 119 119 246
Width: 564
Flags: MW
HStem: 0 21G<114 221 114 114 344 344 344 451> 128 337<1 173 1 173 1 401 1 401> 337 128<279 285 279 279>
VStem: 1 562<465 465>
LayerCount: 2
Fore
SplineSet
298 222 m 2xb0
 288 269 285 337 285 337 c 1
 279 337 l 1xb0
 279 337 276 271 266 223 c 2
 221 0 l 1
 114 0 l 1
 1 465 l 1
 107 465 l 1
 151 274 l 2
 165 211 170 128 170 128 c 1
 173 128 l 1
 173 128 179 207 193 273 c 2
 232 465 l 1
 339 465 l 1
 378 272 l 2
 388 227 398 128 398 128 c 1
 401 128 l 1xd0
 401 128 414 220 424 272 c 2
 465 465 l 1
 563 465 l 1
 451 0 l 1
 344 0 l 1
 298 222 l 2xb0
EndSplineSet
EndChar

StartChar: wacute
Encoding: 7811 7811 247
Width: 564
Flags: MW
HStem: 0 21G<114 221 114 114 344 451 344 344> 128 337<1 173 1 173 1 401 1 401> 337 128<279 285 279 279> 445 20G<1 107 107 107 232 339 339 339 465 563 563 563> 522 117<297 309 221 404>
VStem: 1 562<465 465>
LayerCount: 2
Fore
SplineSet
309 522 m 1x9c
 221 522 l 1
 297 639 l 1
 404 639 l 1
 405 636 l 1
 309 522 l 1x9c
344 0 m 1
 298 222 l 2
 288 269 285 337 285 337 c 1
 279 337 l 1xac
 279 337 276 271 266 223 c 2
 221 0 l 1
 114 0 l 1
 1 465 l 1
 107 465 l 1
 151 274 l 2
 165 211 170 128 170 128 c 1
 173 128 l 1
 173 128 179 207 193 273 c 2
 232 465 l 1
 339 465 l 1
 378 272 l 2
 388 227 398 128 398 128 c 1
 401 128 l 1xcc
 401 128 414 220 424 272 c 2
 465 465 l 1
 563 465 l 1
 451 0 l 1
 344 0 l 1
EndSplineSet
EndChar

StartChar: wcircumflex
Encoding: 373 373 248
Width: 564
Flags: MW
HStem: 0 21G<114 221 114 114 344 344 344 451> 128 337<1 173 1 173 1 401 1 401> 337 128<279 285 279 279> 445 20G<1 107 107 107 232 339 339 339 465 563 563 563> 520 119<240 243 164 326 322 322 322 326 240 401> 581 58<283 283>
VStem: 1 562<465 465>
LayerCount: 2
Fore
SplineSet
283 581 m 1x96
 243 520 l 1
 164 520 l 1
 240 639 l 1
 326 639 l 1
 401 520 l 1
 322 520 l 1xaa
 283 581 l 1x96
298 222 m 2
 288 269 285 337 285 337 c 1
 279 337 l 1xaa
 279 337 276 271 266 223 c 2
 221 0 l 1
 114 0 l 1
 1 465 l 1
 107 465 l 1
 151 274 l 2
 165 211 170 128 170 128 c 1
 173 128 l 1
 173 128 179 207 193 273 c 2
 232 465 l 1
 339 465 l 1
 378 272 l 2
 388 227 398 128 398 128 c 1
 401 128 l 1xca
 401 128 414 220 424 272 c 2
 465 465 l 1
 563 465 l 1
 451 0 l 1
 344 0 l 1
 298 222 l 2
EndSplineSet
EndChar

StartChar: wdieresis
Encoding: 7813 7813 249
Width: 564
Flags: MW
HStem: 0 21G<114 221 114 114 344 451 344 344> 128 337<1 173 1 173 1 401 1 401> 337 128<279 285 279 279> 445 20G<1 107 107 107 232 339 339 339 465 563 563 563> 543 96<161 249 161 249 316 404 161 316>
VStem: 161 88<543 639 543 639> 316 88<543 639 543 639>
LayerCount: 2
Fore
SplineSet
161 543 m 1x9e
 161 639 l 1
 249 639 l 1
 249 543 l 1
 161 543 l 1x9e
316 543 m 1
 316 639 l 1
 404 639 l 1
 404 543 l 1
 316 543 l 1
344 0 m 1
 298 222 l 2
 288 269 285 337 285 337 c 1
 279 337 l 1xae
 279 337 276 271 266 223 c 2
 221 0 l 1
 114 0 l 1
 1 465 l 1
 107 465 l 1
 151 274 l 2
 165 211 170 128 170 128 c 1
 173 128 l 1
 173 128 179 207 193 273 c 2
 232 465 l 1
 339 465 l 1
 378 272 l 2
 388 227 398 128 398 128 c 1
 401 128 l 1xce
 401 128 414 220 424 272 c 2
 465 465 l 1
 563 465 l 1
 451 0 l 1
 344 0 l 1
EndSplineSet
EndChar

StartChar: wgrave
Encoding: 7809 7809 250
Width: 564
Flags: MW
HStem: 0 21G<114 221 114 114 344 451 344 344> 128 337<1 173 1 173 1 401 1 401> 337 128<279 285 279 279> 445 20G<1 107 107 107 232 339 339 339 465 563 563 563> 522 117<255 255 255 267 161 343>
VStem: 1 562<465 465>
LayerCount: 2
Fore
SplineSet
255 522 m 1x9c
 160 636 l 1
 161 639 l 1
 267 639 l 1
 343 522 l 1
 255 522 l 1x9c
344 0 m 1
 298 222 l 2
 288 269 285 337 285 337 c 1
 279 337 l 1xac
 279 337 276 271 266 223 c 2
 221 0 l 1
 114 0 l 1
 1 465 l 1
 107 465 l 1
 151 274 l 2
 165 211 170 128 170 128 c 1
 173 128 l 1
 173 128 179 207 193 273 c 2
 232 465 l 1
 339 465 l 1
 378 272 l 2
 388 227 398 128 398 128 c 1
 401 128 l 1xcc
 401 128 414 220 424 272 c 2
 465 465 l 1
 563 465 l 1
 451 0 l 1
 344 0 l 1
EndSplineSet
EndChar

StartChar: x
Encoding: 120 120 251
Width: 403
Flags: MW
HStem: 0 21G<4 118 4 4 279 399 279 279> 445 20G<15 135 135 135 278 392 392 392>
VStem: 4 395<0 0>
LayerCount: 2
Fore
SplineSet
399 0 m 1
 279 0 l 1
 201 154 l 1
 196 154 l 1
 118 0 l 1
 4 0 l 1
 139 240 l 1
 15 465 l 1
 135 465 l 1
 204 330 l 1
 209 330 l 1
 278 465 l 1
 392 465 l 1
 266 243 l 1
 399 0 l 1
EndSplineSet
EndChar

StartChar: y
Encoding: 121 121 252
Width: 403
Flags: MW
HStem: -161 89<86.5 87 87 102 39 152.5> 445 20G<4 116 116 116 293 400 400 400>
VStem: 4 396<465 465>
LayerCount: 2
Fore
SplineSet
272 24 m 2
 243 -77 197 -161 108 -161 c 0
 65 -161 39 -154 39 -153 c 2
 39 -72 l 1
 87 -72 l 2
 117 -72 146 -51 158 0 c 1
 4 465 l 1
 116 465 l 1
 186 247 l 2
 198 207 202 166 210 126 c 1
 214 126 l 1
 221 165 225 207 236 246 c 2
 293 465 l 1
 400 465 l 1
 272 24 l 2
EndSplineSet
EndChar

StartChar: yacute
Encoding: 253 253 253
Width: 403
Flags: MW
HStem: -161 89<86.5 87 87 102 39 152.5> 445 20G<4 116 116 116 293 400 400 400> 522 117<217 228 141 323>
VStem: 4 396<465 465>
LayerCount: 2
Fore
SplineSet
228 522 m 1
 141 522 l 1
 217 639 l 1
 323 639 l 1
 324 636 l 1
 228 522 l 1
272 24 m 2
 243 -77 197 -161 108 -161 c 0
 65 -161 39 -154 39 -153 c 2
 39 -72 l 1
 87 -72 l 2
 117 -72 146 -51 158 0 c 1
 4 465 l 1
 116 465 l 1
 186 247 l 2
 198 207 202 166 210 126 c 1
 214 126 l 1
 221 165 225 207 236 246 c 2
 293 465 l 1
 400 465 l 1
 272 24 l 2
EndSplineSet
EndChar

StartChar: ycircumflex
Encoding: 375 375 254
Width: 403
Flags: MW
HStem: -161 89<86.5 87 87 102 39 152.5> 445 20G<4 116 116 116 293 400 400 400> 520 119<159 163 83 246 241 241 241 246 159 321> 581 58<202 202>
VStem: 4 396<465 465>
LayerCount: 2
Fore
SplineSet
202 581 m 1xd8
 163 520 l 1
 83 520 l 1
 159 639 l 1
 246 639 l 1
 321 520 l 1
 241 520 l 1xe8
 202 581 l 1xd8
272 24 m 2
 243 -77 197 -161 108 -161 c 0
 65 -161 39 -154 39 -153 c 2
 39 -72 l 1
 87 -72 l 2
 117 -72 146 -51 158 0 c 1
 4 465 l 1
 116 465 l 1
 186 247 l 2
 198 207 202 166 210 126 c 1
 214 126 l 1
 221 165 225 207 236 246 c 2
 293 465 l 1
 400 465 l 1
 272 24 l 2
EndSplineSet
EndChar

StartChar: ydieresis
Encoding: 255 255 255
Width: 403
Flags: MW
HStem: -161 89<86.5 87 87 102 39 152.5> 445 20G<4 116 116 116 293 400 400 400> 543 96<80 169 80 169 235 324 80 235>
VStem: 80 89<543 639 543 639> 235 89<543 639 543 639>
LayerCount: 2
Fore
SplineSet
80 543 m 1
 80 639 l 1
 169 639 l 1
 169 543 l 1
 80 543 l 1
235 543 m 1
 235 639 l 1
 324 639 l 1
 324 543 l 1
 235 543 l 1
272 24 m 2
 243 -77 197 -161 108 -161 c 0
 65 -161 39 -154 39 -153 c 2
 39 -72 l 1
 87 -72 l 2
 117 -72 146 -51 158 0 c 1
 4 465 l 1
 116 465 l 1
 186 247 l 2
 198 207 202 166 210 126 c 1
 214 126 l 1
 221 165 225 207 236 246 c 2
 293 465 l 1
 400 465 l 1
 272 24 l 2
EndSplineSet
EndChar

StartChar: ygrave
Encoding: 7923 7923 256
Width: 403
Flags: MW
HStem: -161 89<86.5 87 87 102 39 152.5> 445 20G<4 116 116 116 293 400 400 400> 522 117<175 175 175 187 80 263>
VStem: 4 396<465 465>
LayerCount: 2
Fore
SplineSet
175 522 m 1
 80 636 l 1
 80 639 l 1
 187 639 l 1
 263 522 l 1
 175 522 l 1
272 24 m 2
 243 -77 197 -161 108 -161 c 0
 65 -161 39 -154 39 -153 c 2
 39 -72 l 1
 87 -72 l 2
 117 -72 146 -51 158 0 c 1
 4 465 l 1
 116 465 l 1
 186 247 l 2
 198 207 202 166 210 126 c 1
 214 126 l 1
 221 165 225 207 236 246 c 2
 293 465 l 1
 400 465 l 1
 272 24 l 2
EndSplineSet
EndChar

StartChar: z
Encoding: 122 122 257
Width: 362
Flags: MW
HStem: 0 89<159 347 159 347> 376 89<27 196 27 340>
VStem: 16 331<0 45 45 45>
LayerCount: 2
Fore
SplineSet
347 89 m 1
 347 0 l 1
 16 0 l 1
 16 45 l 1
 196 376 l 1
 27 376 l 1
 27 465 l 1
 340 465 l 1
 340 421 l 1
 159 89 l 1
 347 89 l 1
EndSplineSet
EndChar

StartChar: zacute
Encoding: 378 378 258
Width: 362
Flags: MW
HStem: 0 89<159 347 159 347> 376 89<27 196 27 340> 522 117<196 208 120 302>
VStem: 16 331<0 45 45 45>
LayerCount: 2
Fore
SplineSet
208 522 m 1
 120 522 l 1
 196 639 l 1
 302 639 l 1
 303 636 l 1
 208 522 l 1
159 89 m 1
 347 89 l 1
 347 0 l 1
 16 0 l 1
 16 45 l 1
 196 376 l 1
 27 376 l 1
 27 465 l 1
 340 465 l 1
 340 421 l 1
 159 89 l 1
EndSplineSet
EndChar

StartChar: zcaron
Encoding: 382 382 259
Width: 362
Flags: MW
HStem: 0 89<159 347 159 347> 376 89<27 196 27 340> 520 119<139 142 221 225 139 139>
VStem: 16 331<0 45 45 45>
LayerCount: 2
Fore
SplineSet
63 639 m 1
 142 639 l 1
 182 578 l 1
 221 639 l 1
 301 639 l 1
 225 520 l 1
 139 520 l 1
 63 639 l 1
347 89 m 1
 347 0 l 1
 16 0 l 1
 16 45 l 1
 196 376 l 1
 27 376 l 1
 27 465 l 1
 340 465 l 1
 340 421 l 1
 159 89 l 1
 347 89 l 1
EndSplineSet
EndChar

StartChar: zdotaccent
Encoding: 380 380 260
Width: 362
Flags: MW
HStem: 0 89<159 347 159 347> 376 89<27 196 27 340> 537 102<134 229 134 229>
VStem: 134 95<537 639 537 639>
LayerCount: 2
Fore
SplineSet
134 639 m 1
 229 639 l 1
 229 537 l 1
 134 537 l 1
 134 639 l 1
347 89 m 1
 347 0 l 1
 16 0 l 1
 16 45 l 1
 196 376 l 1
 27 376 l 1
 27 465 l 1
 340 465 l 1
 340 421 l 1
 159 89 l 1
 347 89 l 1
EndSplineSet
EndChar

StartChar: fi
Encoding: 64257 64257 261
Width: 443
Flags: MW
HStem: 0 21G<55 161 55 55 289 289 289 395> 376 89<8 55 8 55 161 241> 543 96<289 395 289 395> 557 82<198 395> 557 89<122 198 122 241>
VStem: 55 106<0 376 0 376 465 519> 289 106<0 465 0 465 543 639>
LayerCount: 2
Fore
SplineSet
55 522 m 2xce
 55 583 80 646 164 646 c 0
 189 646 224 641 241 636 c 1xce
 241 557 l 1
 198 557 l 2
 174 557 161 544 161 519 c 2xd6
 161 465 l 1
 241 465 l 1
 241 376 l 1
 161 376 l 1
 161 0 l 1
 55 0 l 1
 55 376 l 1
 8 376 l 1
 8 465 l 1
 55 465 l 1
 55 522 l 2xce
289 639 m 1xe6
 395 639 l 1
 395 543 l 1
 289 543 l 1
 289 639 l 1xe6
289 465 m 1
 395 465 l 1
 395 0 l 1
 289 0 l 1
 289 465 l 1
EndSplineSet
Ligature2: "'liga' Standard Ligatures lookup 7 subtable" f i
EndChar

StartChar: fl
Encoding: 64258 64258 262
Width: 443
Flags: MW
HStem: 0 21G<55 161 55 55 289 289 289 395> 376 89<8 55 8 55 161 241> 557 82<198 395> 557 89<122 198 122 241>
VStem: 55 106<0 376 0 376 465 519> 289 106<0 639 0 639>
LayerCount: 2
Fore
SplineSet
55 522 m 2xdc
 55 583 80 646 164 646 c 0
 189 646 224 641 241 636 c 1xdc
 241 557 l 1
 198 557 l 2
 174 557 161 544 161 519 c 2xec
 161 465 l 1
 241 465 l 1
 241 376 l 1
 161 376 l 1
 161 0 l 1
 55 0 l 1
 55 376 l 1
 8 376 l 1
 8 465 l 1
 55 465 l 1
 55 522 l 2xdc
289 639 m 1xec
 395 639 l 1
 395 0 l 1
 289 0 l 1
 289 639 l 1xec
EndSplineSet
Ligature2: "'liga' Standard Ligatures lookup 7 subtable" f l
EndChar

StartChar: nsuperior
Encoding: 8319 8319 263
Width: 287
Flags: MW
HStem: 581 61<27 159.5> 581 68<159 159.5>
VStem: 27 76<329 522 329 642> 184 76<329 529 529 548>
LayerCount: 2
Fore
SplineSet
102 604 m 1x70
 117 628 141 649 177 649 c 0x70
 225 649 260 622 260 548 c 2
 260 329 l 1
 184 329 l 1
 184 529 l 2
 184 567 171 581 148 581 c 0
 122 581 103 555 103 522 c 2
 103 329 l 1
 27 329 l 1
 27 642 l 1
 91 642 l 1xb0
 98 604 l 1
 102 604 l 1x70
EndSplineSet
EndChar

StartChar: Delta
Encoding: 916 916 264
Width: 521
Flags: MW
HStem: 0 101<136 371 136 502> 478 128<252 255 252 252> 586 20G<191 323 323 323>
VStem: 11 491<0 49 0 49>
LayerCount: 2
Fore
SplineSet
502 0 m 1xb0
 11 0 l 1
 11 49 l 1
 191 606 l 1
 323 606 l 1
 502 49 l 1
 502 0 l 1xb0
136 101 m 1
 371 101 l 1
 255 478 l 1
 252 478 l 1xd0
 136 101 l 1
EndSplineSet
Position2: "'cpsp' Capital Spacing lookup 0 subtable" dx=5 dy=0 dh=10 dv=0
EndChar

StartChar: Omega
Encoding: 937 937 265
Width: 679
Flags: MW
HStem: 0 101<87 109 109 115.5 87 305 87 109 568 590> 520 97<293.5 384>
VStem: 87 115<0 262 101 262 253.5 262 262 325 210.5 410> 474 116<262 325 325 385.5>
LayerCount: 2
Fore
SplineSet
109 101 m 2
 122 101 148 92 174 88 c 1
 121 133 87 204 87 303 c 0
 87 517 182 617 339 617 c 0
 495 617 590 517 590 303 c 0
 590 204 555 133 502 88 c 1
 528 92 554 101 568 101 c 2
 590 101 l 1
 590 0 l 1
 372 0 l 1
 372 72 l 1
 440 89 474 158 474 262 c 2
 474 325 l 2
 474 446 429 520 339 520 c 0
 248 520 202 446 202 325 c 2
 202 262 l 2
 202 159 238 91 305 72 c 1
 305 0 l 1
 87 0 l 1
 87 101 l 1
 109 101 l 2
EndSplineSet
Position2: "'cpsp' Capital Spacing lookup 0 subtable" dx=5 dy=0 dh=10 dv=0
EndChar

StartChar: mu
Encoding: 956 956 266
Width: 443
Flags: MW
HStem: -153 21G<49 155 49 49> -11 97<196 213.5> -4 21G<155 155> 0 21G<306 394 306 306> 445 20G<49 155 155 155 288 394 394 394>
VStem: 49 106<-153 -4 138 168 168 465> 288 106<177 465 0 465>
LayerCount: 2
Fore
SplineSet
295 57 m 1xce
 290 57 l 1
 270 21 237 -11 190 -11 c 0xce
 178 -11 165 -8 155 -4 c 1xae
 155 -153 l 1
 49 -153 l 1
 49 465 l 1
 155 465 l 1
 155 168 l 2
 155 108 176 86 216 86 c 0
 257 86 288 125 288 177 c 2xce
 288 465 l 1
 394 465 l 1
 394 0 l 1
 306 0 l 1x9e
 295 57 l 1xce
EndSplineSet
EndChar

StartChar: pi
Encoding: 960 960 267
Width: 555
Flags: MW
HStem: 0 21G<67 172 67 67 340 445 340 340> 376 89<96.5 514 230 327 230 230 433 433 433 507>
VStem: 124 106<376 376> 327 106<130 138 138 376>
LayerCount: 2
Fore
SplineSet
433 138 m 2
 433 65 438 27 445 0 c 1
 340 0 l 1
 332 14 327 59 327 130 c 2
 327 376 l 1
 230 376 l 1
 224 270 201 73 172 0 c 1
 67 0 l 1
 96 88 121 270 124 376 c 1
 69 376 49 372 28 364 c 1
 18 438 l 1
 41 455 83 465 159 465 c 2
 514 465 l 1
 507 376 l 1
 433 376 l 1
 433 138 l 2
EndSplineSet
EndChar

StartChar: uni093E
Encoding: 2366 2366 268
Width: 246
GlyphClass: 2
Flags: MW
HStem: 0 21G<70 176 70 70> 513 93<-22 70 -22 268 176 268 176 176>
VStem: 70 106<0 513 0 513>
AnchorPoint: "Anchor-1" 124 0 basechar 0
AnchorPoint: "Anchor-0" 124 606 basechar 0
LayerCount: 2
Fore
SplineSet
268 513 m 1
 176 513 l 1
 176 0 l 1
 70 0 l 1
 70 513 l 1
 -22 513 l 1
 -22 606 l 1
 268 606 l 1
 268 513 l 1
EndSplineSet
EndChar

StartChar: uni094C
Encoding: 2380 2380 269
Width: 246
GlyphClass: 2
Flags: MW
HStem: 0 21G<70 176 70 70> 513 93<-49 -40 58 70 -49 -40 176 268 176 176>
VStem: 67 107<743 821 606 821> 70 106<0 513 0 513>
LayerCount: 2
Fore
SplineSet
268 606 m 1xe0
 268 513 l 1xe0
 176 513 l 1
 176 0 l 1
 70 0 l 1
 70 513 l 1xd0
 -49 513 l 1
 -49 606 l 1
 -40 606 l 1
 -108 821 l 1
 -1 821 l 1
 58 606 l 1
 75 606 l 1
 70 652 67 697 67 743 c 2
 67 821 l 1
 174 821 l 1
 174 606 l 1
 268 606 l 1xe0
EndSplineSet
EndChar

StartChar: uni093F
Encoding: 2367 2367 270
Width: 246
GlyphClass: 2
Flags: MW
HStem: 0 21G<70 176 70 70> 513 93<-22 70 -22 70 176 268> 734 93<246 327.5>
VStem: 70 106<0 513 0 513 606 627>
AnchorPoint: "Anchor-1" 120 0 basechar 0
AnchorPoint: "Anchor-0" 120 606 basechar 0
LayerCount: 2
Fore
SplineSet
70 644 m 2
 70 693 96 827 315 827 c 0
 378 827 476 812 603 764 c 1
 603 673 l 1
 450 724 353 734 302 734 c 0
 190 734 176 682 176 627 c 2
 176 606 l 1
 268 606 l 1
 268 513 l 1
 176 513 l 1
 176 0 l 1
 70 0 l 1
 70 513 l 1
 -22 513 l 1
 -22 606 l 1
 70 606 l 1
 70 644 l 2
EndSplineSet
EndChar

StartChar: uni0940
Encoding: 2368 2368 271
Width: 246
GlyphClass: 2
Flags: MW
HStem: 0 21G<70 176 70 70> 513 93<-22 70 -22 70 176 268> 741 86<-18.5 35.5>
VStem: -166 104<673 733.5> 70 106<0 513 0 513 606 671 671 677>
AnchorPoint: "Anchor-1" 121 0 basechar 0
AnchorPoint: "Anchor-0" 121 606 basechar 0
LayerCount: 2
Fore
SplineSet
268 606 m 1
 268 513 l 1
 176 513 l 1
 176 0 l 1
 70 0 l 1
 70 513 l 1
 -22 513 l 1
 -22 606 l 1
 70 606 l 1
 70 671 l 2
 70 710 61 741 10 741 c 0
 -47 741 -62 712 -62 687 c 2
 -62 673 l 1
 -165 673 l 1
 -166 678 -166 685 -166 693 c 0
 -166 774 -101 827 3 827 c 0
 122 827 176 772 176 677 c 2
 176 606 l 1
 268 606 l 1
EndSplineSet
EndChar

StartChar: ovowelsigndeva
Encoding: 2379 2379 272
Width: 246
GlyphClass: 2
Flags: MW
HStem: 0 21G<70 176 70 70> 513 93<-22 68 -22 70 -22 68 176 268 176 176>
VStem: 70 106<0 513 0 513>
LayerCount: 2
Fore
SplineSet
268 606 m 1
 268 513 l 1
 176 513 l 1
 176 0 l 1
 70 0 l 1
 70 513 l 1
 -22 513 l 1
 -22 606 l 1
 68 606 l 1
 -1 821 l 1
 107 821 l 1
 166 606 l 1
 268 606 l 1
EndSplineSet
EndChar

StartChar: uni094A
Encoding: 2378 2378 273
Width: 246
GlyphClass: 2
Flags: MW
HStem: 0 21G<70 176 70 70> 513 93<-22 70 -22 70 176 268> 677 92<-217.5 -186.5> 701 93<5 39>
VStem: -334 90<797.5 810> 70 106<0 513 0 513 606 636>
LayerCount: 2
Fore
SplineSet
268 606 m 1xd4
 268 513 l 1
 176 513 l 1
 176 0 l 1
 70 0 l 1
 70 513 l 1
 -22 513 l 1
 -22 606 l 1
 70 606 l 1
 70 646 l 2
 70 677 55 701 23 701 c 0xd4
 -24 701 -159 677 -214 677 c 0
 -303 677 -334 732 -334 806 c 0
 -334 814 -334 820 -333 827 c 1
 -244 827 l 1
 -244 814 l 2
 -244 781 -231 769 -204 769 c 0xec
 -154 769 -27 794 37 794 c 0
 156 794 176 726 176 636 c 2
 176 606 l 1
 268 606 l 1xd4
EndSplineSet
EndChar

StartChar: adeva
Encoding: 2309 2309 274
Width: 654
GlyphClass: 2
Flags: MW
HStem: 0 21G<479 585 479 479> 42 89<169.5 201.5 169.5 234> 208 93<348 479 348 348> 290 88<147 176 147 177> 448 169<140.5 143 33 231.5> 513 93<434 479 434 666 585 666 585 585> 529 88<171.5 200.5>
VStem: 23 111<196 215 173 215> 33 110<448 466 448 474 448 517.5> 147 120<337 340 337 378 337 378> 229 110<434 485> 237 111<180.5 202 202 208 152.5 240> 479 106<0 208 208 208 301 513 0 513>
AnchorPoint: "Anchor-1" 531 0 basechar 0
AnchorPoint: "Anchor-0" 532 606 basechar 0
LayerCount: 2
Fore
SplineSet
666 513 m 1xe448
 585 513 l 1
 585 0 l 1
 479 0 l 1
 479 208 l 1xe448
 348 208 l 1
 348 202 l 2
 348 103 283 42 185 42 c 0
 83 42 23 103 23 196 c 2
 23 215 l 1
 134 215 l 1
 134 193 l 2
 134 153 153 131 186 131 c 0
 217 131 237 154 237 207 c 0
 237 273 208 290 176 290 c 2xd518
 147 290 l 1
 147 378 l 1xd448
 177 378 l 2
 208 378 229 405 229 463 c 0
 229 507 215 529 186 529 c 0
 157 529 143 507 143 466 c 2xd2a8
 143 448 l 1
 33 448 l 1xe888
 33 474 l 2
 33 561 96 617 185 617 c 0
 278 617 339 563 339 466 c 0xe2a8
 339 401 310 364 267 340 c 1
 267 337 l 1
 286 330 304 318 317 301 c 1
 479 301 l 1
 479 513 l 1
 434 513 l 1
 434 606 l 1
 666 606 l 1
 666 513 l 1xe448
EndSplineSet
EndChar

StartChar: uni0904
Encoding: 2308 2308 275
Width: 654
GlyphClass: 2
Flags: MW
HStem: 0 21G<479 585 479 479> 42 89<169.5 201.5 169.5 234> 208 93<348 479 348 348> 290 88<147 176 147 177> 448 169<140.5 143 33 231.5> 513 93<434 478 434 479 434 478 585 666 585 585> 529 88<171.5 200.5> 677 92<191.5 222.5> 701 93<413.5 447>
VStem: 23 111<196 215 173 215> 33 110<448 466 448 474 448 517.5> 75 90<797.5 810> 147 120<337 340 337 378 337 378> 229 110<434 485> 237 111<180.5 202 202 208 152.5 240> 479 106<0 208 208 208 301 513 0 513>
AnchorPoint: "Anchor-1" 327 0 basechar 0
AnchorPoint: "Anchor-0" 327 465 basechar 0
LayerCount: 2
Fore
SplineSet
666 606 m 1xe481
 666 513 l 1
 585 513 l 1
 585 0 l 1
 479 0 l 1
 479 208 l 1xe481
 348 208 l 1
 348 202 l 2
 348 103 283 42 185 42 c 0
 83 42 23 103 23 196 c 2
 23 215 l 1
 134 215 l 1
 134 193 l 2
 134 153 153 131 186 131 c 0
 217 131 237 154 237 207 c 0
 237 273 208 290 176 290 c 2xd4c3
 147 290 l 1
 147 378 l 1xd489
 177 378 l 2
 208 378 229 405 229 463 c 0
 229 507 215 529 186 529 c 0
 157 529 143 507 143 466 c 2xd2a5
 143 448 l 1
 33 448 l 1xe8a1
 33 474 l 2
 33 561 96 617 185 617 c 0
 278 617 339 563 339 466 c 0xe2a5
 339 401 310 364 267 340 c 1
 267 337 l 1
 286 330 304 318 317 301 c 1
 479 301 l 1
 479 513 l 1
 434 513 l 1
 434 606 l 1
 478 606 l 1
 478 646 l 2
 478 677 463 701 431 701 c 0xe489
 385 701 250 677 195 677 c 0
 106 677 75 732 75 806 c 0
 75 814 75 820 76 827 c 1
 165 827 l 1
 165 814 l 2
 165 781 178 769 205 769 c 0xe511
 255 769 382 794 445 794 c 0
 564 794 584 726 584 636 c 2
 584 606 l 1
 666 606 l 1xe481
EndSplineSet
EndChar

StartChar: aadeva
Encoding: 2310 2310 276
Width: 900
GlyphClass: 2
Flags: MW
HStem: 0 21G<479 585 479 479 724 830 724 724> 42 89<169.5 201.5 169.5 234> 208 93<348 479 348 348> 290 88<147 176 147 177> 448 169<140.5 143 33 231.5> 513 93<434 479 434 922 585 724 585 585 830 922 830 830> 529 88<171.5 200.5>
VStem: 23 111<196 215 173 215> 33 110<448 466 448 474 448 517.5> 147 120<337 340 337 378 337 378> 229 110<434 485> 237 111<180.5 202 202 208 152.5 240> 479 106<0 208 208 208 301 513 0 513> 724 106<0 513 0 513>
AnchorPoint: "Anchor-1" 779 0 basechar 0
AnchorPoint: "Anchor-0" 779 606 basechar 0
LayerCount: 2
Fore
SplineSet
922 606 m 1xe44c
 922 513 l 1
 830 513 l 1
 830 0 l 1
 724 0 l 1
 724 513 l 1
 585 513 l 1
 585 0 l 1
 479 0 l 1
 479 208 l 1xe44c
 348 208 l 1
 348 202 l 2
 348 103 283 42 185 42 c 0
 83 42 23 103 23 196 c 2
 23 215 l 1
 134 215 l 1
 134 193 l 2
 134 153 153 131 186 131 c 0
 217 131 237 154 237 207 c 0
 237 273 208 290 176 290 c 2xd51c
 147 290 l 1
 147 378 l 1xd44c
 177 378 l 2
 208 378 229 405 229 463 c 0
 229 507 215 529 186 529 c 0
 157 529 143 507 143 466 c 2xd2ac
 143 448 l 1
 33 448 l 1xe88c
 33 474 l 2
 33 561 96 617 185 617 c 0
 278 617 339 563 339 466 c 0xe2ac
 339 401 310 364 267 340 c 1
 267 337 l 1
 286 330 304 318 317 301 c 1
 479 301 l 1
 479 513 l 1
 434 513 l 1
 434 606 l 1
 922 606 l 1xe44c
EndSplineSet
EndChar

StartChar: aideva
Encoding: 2320 2320 277
Width: 491
GlyphClass: 2
Flags: MW
HStem: 252 89<261 358> 513 93<-22 70 -22 313 176 313 -22 316 176 176 422 513 422 422>
VStem: 70 106<287 294 294 513> 300 103<-21.5 27> 316 106<384 513>
AnchorPoint: "Anchor-1" 246 0 basechar 0
AnchorPoint: "Anchor-0" 246 465 basechar 0
LayerCount: 2
Fore
SplineSet
513 513 m 1x68
 422 513 l 1
 422 377 l 2
 422 315 400 252 316 252 c 0
 296 252 275 257 261 263 c 1
 261 341 l 1
 280 341 l 2
 303 341 316 356 316 384 c 2
 316 513 l 1xe8
 176 513 l 1
 176 294 l 2
 176 273 180 259 190 250 c 2
 342 108 l 2
 386 71 403 40 403 14 c 0
 403 -6 397 -24 387 -47 c 1
 298 -47 l 1
 300 -35 300 -26 300 -17 c 0
 300 7 294 23 275 42 c 2x70
 105 201 l 2
 81 224 70 248 70 287 c 2
 70 513 l 1
 -22 513 l 1
 -22 606 l 1
 313 606 l 1
 245 821 l 1
 352 821 l 1
 411 606 l 1
 513 606 l 1
 513 513 l 1x68
EndSplineSet
EndChar

StartChar: audeva
Encoding: 2324 2324 278
Width: 900
GlyphClass: 2
Flags: MW
HStem: 0 21G<479 585 479 479 724 830 724 724> 42 89<169.5 201.5 169.5 234> 208 93<348 479 348 348> 290 88<147 176 147 177> 448 169<140.5 143 33 231.5> 513 93<434 479 434 614 585 614 712 724 585 585 830 922 830 830> 529 88<171.5 200.5>
VStem: 23 111<196 215 173 215> 33 110<448 466 448 474 448 517.5> 147 120<337 340 337 378 337 378> 229 110<434 485> 237 111<180.5 202 202 208 152.5 240> 479 106<0 208 208 208 301 513 0 513> 721 107<743 821 606 821> 724 106<0 513 0 513>
AnchorPoint: "Anchor-1" 450 0 basechar 0
AnchorPoint: "Anchor-0" 450 465 basechar 0
LayerCount: 2
Fore
SplineSet
922 606 m 1xe44c
 922 513 l 1xe40c
 830 513 l 1
 830 0 l 1
 724 0 l 1
 724 513 l 1
 585 513 l 1
 585 0 l 1
 479 0 l 1
 479 208 l 1xe40a
 348 208 l 1
 348 202 l 2
 348 103 283 42 185 42 c 0
 83 42 23 103 23 196 c 2
 23 215 l 1
 134 215 l 1
 134 193 l 2
 134 153 153 131 186 131 c 0
 217 131 237 154 237 207 c 0
 237 273 208 290 176 290 c 2xd51a
 147 290 l 1
 147 378 l 1xd44a
 177 378 l 2
 208 378 229 405 229 463 c 0
 229 507 215 529 186 529 c 0
 157 529 143 507 143 466 c 2xd2aa
 143 448 l 1
 33 448 l 1xe88a
 33 474 l 2
 33 561 96 617 185 617 c 0
 278 617 339 563 339 466 c 0xe2aa
 339 401 310 364 267 340 c 1
 267 337 l 1
 286 330 304 318 317 301 c 1
 479 301 l 1
 479 513 l 1
 434 513 l 1
 434 606 l 1
 614 606 l 1
 546 821 l 1
 653 821 l 1
 712 606 l 1
 729 606 l 1
 724 652 721 697 721 743 c 2
 721 821 l 1
 828 821 l 1
 828 606 l 1
 922 606 l 1xe44c
EndSplineSet
EndChar

StartChar: uni092C
Encoding: 2348 2348 279
Width: 431
GlyphClass: 2
Flags: MW
HStem: 0 21G<260 366 260 260> 0 186<178 366 178 260> 89 97<178 189.5> 364 97<127.5 222.5> 513 93<-12 260 -12 458 366 458 366 366>
VStem: 30 110<239 264 264 286 239 340.5> 260 106<0 114 114 114 264 284 284 309.5 436 513 0 513>
AnchorPoint: "Anchor-1" 312 0 basechar 0
AnchorPoint: "Anchor-0" 312 606 basechar 0
LayerCount: 2
Fore
SplineSet
458 606 m 1xbe
 458 513 l 1
 366 513 l 1
 366 0 l 1
 260 0 l 1
 260 114 l 1
 256 114 l 1
 238 100 208 89 171 89 c 0
 85 89 30 147 30 276 c 0
 30 405 84 461 171 461 c 0
 208 461 238 450 256 436 c 1
 260 436 l 1
 260 513 l 1
 -12 513 l 1
 -12 606 l 1
 458 606 l 1xbe
260 284 m 2
 260 335 245 364 200 364 c 0
 193 364 187 363 182 362 c 1
 256 226 l 1
 259 237 260 250 260 264 c 2
 260 284 l 2
140 264 m 2x5e
 140 214 156 186 200 186 c 0
 208 186 215 187 221 189 c 1
 146 328 l 1
 142 317 140 302 140 286 c 2
 140 264 l 2x5e
EndSplineSet
EndChar

StartChar: bhadeva
Encoding: 2349 2349 280
Width: 613
GlyphClass: 2
Flags: MW
HStem: 0 21G<438 544 438 438> 45 94<178.5 200 178.5 232> 226 94<178 224 189 224 330 438> 513 93<393 438 393 624 544 624 544 544> 530 87<170 201.5>
VStem: 40 104<473 475 437 522> 51 102<170 195.5 170 224> 224 106<183 226 142.5 226 320 470 470 477> 438 106<0 226 226 226 320 513 0 513>
AnchorPoint: "Anchor-1" 492 0 basechar 0
AnchorPoint: "Anchor-0" 494 606 basechar 0
LayerCount: 2
Fore
SplineSet
624 513 m 1xb180
 544 513 l 1
 544 0 l 1
 438 0 l 1
 438 226 l 1
 330 226 l 1
 330 183 l 2
 330 102 275 45 189 45 c 0
 103 45 51 98 51 183 c 0xf380
 51 265 107 320 189 320 c 2
 224 320 l 1
 224 470 l 2
 224 504 217 530 186 530 c 0
 154 530 144 502 144 475 c 2
 144 437 l 1
 45 437 l 1
 42 445 40 464 40 482 c 0
 40 562 96 617 184 617 c 0xad80
 281 617 330 565 330 477 c 2
 330 320 l 1
 438 320 l 1
 438 513 l 1
 393 513 l 1
 393 606 l 1
 624 606 l 1
 624 513 l 1xb180
224 226 m 1
 189 226 l 2
 167 226 153 208 153 183 c 0
 153 157 168 139 189 139 c 0
 211 139 224 158 224 183 c 2
 224 226 l 1
EndSplineSet
EndChar

StartChar: cadeva
Encoding: 2330 2330 281
Width: 483
GlyphClass: 2
Flags: MW
HStem: 0 169<224.5 413 224.5 307> 72 97<224.5 236.5> 334 94<4 97 4 257 224.5 247 247 257> 513 93<-33 307 -33 505 413 505 413 413>
VStem: 77 111<222 247 247 263.5> 307 106<0 97 97 97 247 513 0 513>
AnchorPoint: "Anchor-1" 363 0 basechar 0
AnchorPoint: "Anchor-0" 363 606 basechar 0
LayerCount: 2
Fore
SplineSet
505 606 m 1xbc
 505 513 l 1
 413 513 l 1
 413 0 l 1
 307 0 l 1xbc
 307 97 l 1
 303 97 l 1
 285 83 255 72 218 72 c 0x7c
 132 72 77 126 77 245 c 0
 77 282 84 311 97 334 c 1
 4 334 l 1
 4 428 l 1
 257 428 l 1
 257 334 l 1
 247 334 l 2
 202 334 188 310 188 266 c 2
 188 247 l 2
 188 197 202 169 247 169 c 0
 292 169 307 197 307 247 c 2
 307 513 l 1
 -33 513 l 1
 -33 606 l 1
 505 606 l 1xbc
EndSplineSet
EndChar

StartChar: chadeva
Encoding: 2331 2331 282
Width: 565
GlyphClass: 2
Flags: MW
HStem: 39 87<230 314 230 338> 297 70<206 357 206 267> 513 93<-12 68 -12 587 183.5 199 199 348 454 587 454 454>
VStem: 50 111<190.5 237 420.5 459.5> 263 94<297 350> 348 106<425 513 420 513> 430 106<240.5 304.5>
AnchorPoint: "Anchor-1" 288 0 basechar 0
AnchorPoint: "Anchor-0" 402 606 basechar 0
LayerCount: 2
Fore
SplineSet
454 513 m 1xb4
 454 420 l 1xb4
 507 401 536 356 536 299 c 0xb2
 536 144 424 39 252 39 c 0
 142 39 50 100 50 206 c 0
 50 268 83 310 127 328 c 1
 87 344 50 381 50 447 c 0
 50 472 56 495 68 513 c 1
 -12 513 l 1
 -12 606 l 1
 587 606 l 1
 587 513 l 1
 454 513 l 1xb4
348 513 m 1
 199 513 l 2
 168 513 161 477 161 447 c 0
 161 394 179 367 206 367 c 2
 216 367 l 1
 216 280 l 1
 207 280 l 2
 180 280 161 262 161 217 c 0
 161 164 197 126 263 126 c 0
 365 126 430 191 430 290 c 0
 430 319 423 353 392 353 c 0
 366 353 357 337 357 318 c 2
 357 297 l 1
 267 297 l 1
 266 302 263 313 263 327 c 0xfa
 263 373 292 412 348 425 c 1
 348 513 l 1
EndSplineSet
EndChar

StartChar: dadeva
Encoding: 2342 2342 283
Width: 391
GlyphClass: 2
Flags: MW
HStem: 0 156<176 336 176 230> 0 209<230 336 230 336> 69 140<126 336> 340 94<208 211 211 221 208 327> 513 93<-8 221 -8 407 327 327 327 407>
VStem: 30 109<219 280 219 311> 221 106<434 513 340 513> 230 106<0 87 87 87 175 209 0 209>
AnchorPoint: "Anchor-1" 282 0 basechar 0
AnchorPoint: "Anchor-0" 275 606 basechar 0
LayerCount: 2
Fore
SplineSet
211 340 m 2x5d
 168 340 139 309 139 251 c 0
 139 187 162 156 190 156 c 0
 208 156 220 163 230 175 c 1x9d
 230 209 l 1
 336 209 l 1
 336 0 l 1
 230 0 l 1x5d
 230 87 l 1x3d
 212 76 189 69 163 69 c 0
 89 69 30 126 30 251 c 0
 30 371 100 434 208 434 c 2
 221 434 l 1
 221 513 l 1
 -8 513 l 1
 -8 606 l 1
 407 606 l 1
 407 513 l 1
 327 513 l 1
 327 340 l 1x3e
 211 340 l 2x5d
EndSplineSet
EndChar

StartChar: ddadeva
Encoding: 2337 2337 284
Width: 402
GlyphClass: 2
Flags: MW
HStem: -11 87<184 212 184 240> -11 159<32 240> 354 93<183 225 198 225 198 331> 513 93<-16 225 -16 426 331 331 331 426>
VStem: 31 109<117 138.5> 36 108<290 324 290 358> 225 106<447 513 354 513> 252 108<109.5 147>
AnchorPoint: "Anchor-1" 200 0 basechar 0
AnchorPoint: "Anchor-0" 280 606 basechar 0
LayerCount: 2
Fore
SplineSet
195 354 m 2xb6
 171 354 144 340 144 308 c 0xb6
 144 272 174 266 210 264 c 0
 273 260 360 251 360 132 c 0
 360 27 285 -11 195 -11 c 0xb9
 89 -11 31 49 31 133 c 0
 31 144 32 148 32 148 c 1x7a
 140 148 l 1
 140 141 l 2
 140 93 170 76 198 76 c 0
 226 76 252 92 252 127 c 0xb9
 252 167 217 170 186 172 c 0
 122 175 36 189 36 307 c 0
 36 409 105 447 198 447 c 2
 225 447 l 1
 225 513 l 1
 -16 513 l 1
 -16 606 l 1
 426 606 l 1
 426 513 l 1
 331 513 l 1
 331 354 l 1
 195 354 l 2xb6
EndSplineSet
EndChar

StartChar: ddhadeva
Encoding: 2338 2338 285
Width: 401
GlyphClass: 2
Flags: MW
HStem: 34 90<181.5 219 181.5 249.5> 199 89<213.5 270.5> 354 93<211 214 214 221 211 327> 513 93<-8 221 -8 417 327 327 327 417>
VStem: 30 110<194.5 277 194.5 309.5> 191 167<190 211 130 278 130 278> 221 106<447 513 354 513>
AnchorPoint: "Anchor-1" 205 0 basechar 0
AnchorPoint: "Anchor-0" 274 606 basechar 0
LayerCount: 2
Fore
SplineSet
214 354 m 2xfa
 170 354 140 321 140 233 c 0
 140 156 159 124 204 124 c 0
 234 124 252 141 252 168 c 0
 252 187 239 199 219 199 c 0
 208 199 197 195 191 190 c 1
 191 278 l 1
 207 285 223 288 240 288 c 0
 301 288 358 249 358 173 c 0xfc
 358 87 292 34 207 34 c 0
 88 34 30 110 30 238 c 0
 30 381 101 447 211 447 c 2
 221 447 l 1
 221 513 l 1
 -8 513 l 1
 -8 606 l 1
 417 606 l 1
 417 513 l 1
 327 513 l 1
 327 354 l 1
 214 354 l 2xfa
EndSplineSet
EndChar

StartChar: dhadeva
Encoding: 2343 2343 286
Width: 571
GlyphClass: 2
Flags: MW
HStem: 0 21G<396 502 396 396> 103 87<241 289> 335 87<218 219 219 262> 473 133<222 593> 513 93<358 396 358 593 502 593 502 502> 530 87<180.5 204.5>
VStem: 50 111<247.5 293 462.5 492.5> 222 40 396 106<0 142 142 142 300 513 0 513>
AnchorPoint: "Anchor-1" 449 0 basechar 0
AnchorPoint: "Anchor-0" 449 606 basechar 0
LayerCount: 2
Fore
SplineSet
593 513 m 1xeb80
 502 513 l 1xeb80
 502 0 l 1
 396 0 l 1
 396 142 l 1
 365 117 319 103 259 103 c 0
 128 103 50 169 50 262 c 0
 50 324 83 366 127 383 c 1
 87 398 50 432 50 493 c 0
 50 567 103 617 192 617 c 0xe780
 279 617 326 570 326 505 c 0
 326 489 323 478 322 473 c 1
 222 473 l 1xf380
 222 499 l 2
 222 515 215 530 194 530 c 0xe780
 167 530 161 503 161 482 c 0
 161 442 185 422 218 422 c 2
 262 422 l 1
 262 335 l 1
 219 335 l 2
 187 335 161 317 161 275 c 0
 161 220 205 190 277 190 c 0
 359 190 396 230 396 300 c 2
 396 513 l 1
 358 513 l 1
 358 606 l 1
 593 606 l 1
 593 513 l 1xeb80
EndSplineSet
EndChar

